<svg xmlns="http://www.w3.org/2000/svg" xmlns:rdkit="http://www.rdkit.org/xml" xmlns:xlink="http://www.w3.org/1999/xlink" version="1.1" baseProfile="full" xml:space="preserve" width="750px" height="750px" viewBox="0 0 750 750">
<!-- END OF HEADER -->
<rect style="opacity:1.0;fill:#FFFFFF;stroke:none" width="750" height="750" x="0" y="0"> </rect>
<rect style="opacity:1.0;fill:#FFFFFF;stroke:none" width="750" height="750" x="0" y="0"> </rect>
<rect style="opacity:1.0;fill:#FFFFFF;stroke:none" width="750" height="750" x="0" y="0"> </rect>
<rect style="opacity:1.0;fill:#FFFFFF;stroke:none" width="750" height="750" x="0" y="0"> </rect>
<rect style="opacity:1.0;fill:#FFFFFF;stroke:none" width="750" height="750" x="0" y="0"> </rect>
<rect style="opacity:1.0;fill:#FFFFFF;stroke:none" width="750" height="750" x="0" y="0"> </rect>
<rect style="opacity:1.0;fill:#FFFFFF;stroke:none" width="750" height="750" x="0" y="0"> </rect>
<rect style="opacity:1.0;fill:#FFFFFF;stroke:none" width="750" height="750" x="0" y="0"> </rect>
<rect style="opacity:1.0;fill:#FFFFFF;stroke:none" width="750" height="750" x="0" y="0"> </rect>
<rect style="opacity:1.0;fill:#FFFFFF;stroke:none" width="750" height="750" x="0" y="0"> </rect>
<path class="bond-0 atom-0 atom-1" d="M 95.912,123.864 L 101.327,121.559" style="fill:none;fill-rule:evenodd;stroke:#0000FF;stroke-width:2.0px;stroke-linecap:butt;stroke-linejoin:miter;stroke-opacity:1"/>
<path class="bond-0 atom-0 atom-1" d="M 101.327,121.559 L 106.742,119.255" style="fill:none;fill-rule:evenodd;stroke:#FF7F00;stroke-width:2.0px;stroke-linecap:butt;stroke-linejoin:miter;stroke-opacity:1"/>
<path class="bond-1 atom-1 atom-2" d="M 111.279,120.087 L 116.918,124.329" style="fill:none;fill-rule:evenodd;stroke:#FF7F00;stroke-width:2.0px;stroke-linecap:butt;stroke-linejoin:miter;stroke-opacity:1"/>
<path class="bond-1 atom-1 atom-2" d="M 116.918,124.329 L 122.558,128.57" style="fill:none;fill-rule:evenodd;stroke:#0000FF;stroke-width:2.0px;stroke-linecap:butt;stroke-linejoin:miter;stroke-opacity:1"/>
<path class="bond-2 atom-2 atom-3" d="M 130.855,128.122 L 136.211,125.843" style="fill:none;fill-rule:evenodd;stroke:#0000FF;stroke-width:2.0px;stroke-linecap:butt;stroke-linejoin:miter;stroke-opacity:1"/>
<path class="bond-2 atom-2 atom-3" d="M 136.211,125.843 L 141.568,123.564" style="fill:none;fill-rule:evenodd;stroke:#7F4C19;stroke-width:2.0px;stroke-linecap:butt;stroke-linejoin:miter;stroke-opacity:1"/>
<path class="atom-0" d="M 88.9603 123.403 L 90.8463 126.451 Q 91.0333 126.752, 91.3341 127.297 Q 91.6349 127.841, 91.6511 127.874 L 91.6511 123.403 L 92.4153 123.403 L 92.4153 129.158 L 91.6268 129.158 L 89.6025 125.825 Q 89.3668 125.435, 89.1148 124.988 Q 88.8709 124.541, 88.7977 124.402 L 88.7977 129.158 L 88.0498 129.158 L 88.0498 123.403 L 88.9603 123.403 " fill="#0000FF"/>
<path class="atom-0" d="M 92.8982 124.44 L 93.9123 124.44 L 93.9123 123.372 L 94.363 123.372 L 94.363 124.44 L 95.4039 124.44 L 95.4039 124.826 L 94.363 124.826 L 94.363 125.899 L 93.9123 125.899 L 93.9123 124.826 L 92.8982 124.826 L 92.8982 124.44 " fill="#0000FF"/>
<path class="atom-1" d="M 108.795 115.445 Q 109.779 115.445, 110.275 115.892 Q 110.771 116.331, 110.771 117.136 Q 110.771 117.932, 110.259 118.388 Q 109.755 118.835, 108.795 118.835 L 107.877 118.835 L 107.877 121.2 L 107.096 121.2 L 107.096 115.445 L 108.795 115.445 M 108.795 118.184 Q 109.356 118.184, 109.657 117.916 Q 109.958 117.648, 109.958 117.136 Q 109.958 116.624, 109.657 116.363 Q 109.364 116.095, 108.795 116.095 L 107.877 116.095 L 107.877 118.184 L 108.795 118.184 " fill="#FF7F00"/>
<path class="atom-1" d="M 106.682 109.114 L 107.462 109.114 L 107.462 111.56 L 110.405 111.56 L 110.405 109.114 L 111.185 109.114 L 111.185 114.869 L 110.405 114.869 L 110.405 112.211 L 107.462 112.211 L 107.462 114.869 L 106.682 114.869 L 106.682 109.114 " fill="#FF7F00"/>
<path class="atom-2" d="M 123.903 127.661 L 125.789 130.71 Q 125.976 131.011, 126.277 131.555 Q 126.578 132.1, 126.594 132.133 L 126.594 127.661 L 127.358 127.661 L 127.358 133.417 L 126.57 133.417 L 124.546 130.084 Q 124.31 129.694, 124.058 129.247 Q 123.814 128.799, 123.741 128.661 L 123.741 133.417 L 122.993 133.417 L 122.993 127.661 L 123.903 127.661 " fill="#0000FF"/>
<path class="atom-2" d="M 127.841 128.699 L 128.855 128.699 L 128.855 127.631 L 129.306 127.631 L 129.306 128.699 L 130.347 128.699 L 130.347 129.085 L 129.306 129.085 L 129.306 130.158 L 128.855 130.158 L 128.855 129.085 L 127.841 129.085 L 127.841 128.699 " fill="#0000FF"/>
<path class="atom-2" d="M 122.924 133.993 L 123.704 133.993 L 123.704 136.44 L 126.647 136.44 L 126.647 133.993 L 127.427 133.993 L 127.427 139.748 L 126.647 139.748 L 126.647 137.09 L 123.704 137.09 L 123.704 139.748 L 122.924 139.748 L 122.924 133.993 " fill="#0000FF"/>
<path class="atom-3" d="M 144.718 122.435 Q 145.271 122.59, 145.547 122.931 Q 145.832 123.264, 145.832 123.76 Q 145.832 124.557, 145.32 125.012 Q 144.816 125.459, 143.856 125.459 L 141.921 125.459 L 141.921 119.704 L 143.62 119.704 Q 144.604 119.704, 145.1 120.102 Q 145.596 120.5, 145.596 121.232 Q 145.596 122.102, 144.718 122.435 M 142.694 120.354 L 142.694 122.159 L 143.62 122.159 Q 144.19 122.159, 144.482 121.931 Q 144.783 121.695, 144.783 121.232 Q 144.783 120.354, 143.62 120.354 L 142.694 120.354 M 143.856 124.809 Q 144.417 124.809, 144.718 124.541 Q 145.019 124.272, 145.019 123.76 Q 145.019 123.289, 144.685 123.053 Q 144.36 122.809, 143.734 122.809 L 142.694 122.809 L 142.694 124.809 L 143.856 124.809 " fill="#7F4C19"/>
<path class="atom-3" d="M 147.141 121.281 L 147.23 121.858 Q 147.669 121.208, 148.384 121.208 Q 148.612 121.208, 148.921 121.289 L 148.799 121.972 Q 148.449 121.89, 148.254 121.89 Q 147.913 121.89, 147.685 122.029 Q 147.466 122.159, 147.287 122.476 L 147.287 125.459 L 146.523 125.459 L 146.523 121.281 L 147.141 121.281 " fill="#7F4C19"/>
<path d="M 87.2368,126.28 L 87.2353,126.245 L 87.2308,126.211 L 87.2234,126.177 L 87.213,126.143 L 87.1998,126.111 L 87.1838,126.08 L 87.1653,126.05 L 87.1442,126.022 L 87.1209,125.996 L 87.0954,125.972 L 87.0679,125.95 L 87.0386,125.931 L 87.0079,125.915 L 86.9758,125.901 L 86.9426,125.89 L 86.9086,125.881 L 86.874,125.876 L 86.8391,125.874 L 86.8042,125.875 L 86.7694,125.878 L 86.7351,125.885 L 86.7014,125.895 L 86.6688,125.907 L 86.6373,125.923 L 86.6073,125.941 L 86.5789,125.961 L 86.5524,125.984 L 86.5279,126.009 L 86.5057,126.036 L 86.4859,126.065 L 86.4686,126.095 L 86.454,126.127 L 86.4422,126.16 L 86.4333,126.194 L 86.4273,126.228 L 86.4243,126.263 L 86.4243,126.298 L 86.4273,126.333 L 86.4333,126.367 L 86.4422,126.401 L 86.454,126.434 L 86.4686,126.466 L 86.4859,126.496 L 86.5057,126.525 L 86.5279,126.552 L 86.5524,126.577 L 86.5789,126.6 L 86.6073,126.62 L 86.6373,126.638 L 86.6688,126.653 L 86.7014,126.666 L 86.7351,126.675 L 86.7694,126.682 L 86.8042,126.686 L 86.8391,126.687 L 86.874,126.684 L 86.9086,126.679 L 86.9426,126.671 L 86.9758,126.66 L 87.0079,126.646 L 87.0386,126.629 L 87.0679,126.61 L 87.0954,126.589 L 87.1209,126.565 L 87.1442,126.539 L 87.1653,126.511 L 87.1838,126.481 L 87.1998,126.45 L 87.213,126.418 L 87.2234,126.384 L 87.2308,126.35 L 87.2353,126.315 L 87.2368,126.28 L 86.8304,126.28 Z" style="fill:#000000;fill-rule:evenodd;fill-opacity:1;stroke:#000000;stroke-width:0.0px;stroke-linecap:butt;stroke-linejoin:miter;stroke-opacity:1;"/>
<path d="M 87.2368,127.906 L 87.2353,127.871 L 87.2308,127.837 L 87.2234,127.802 L 87.213,127.769 L 87.1998,127.737 L 87.1838,127.706 L 87.1653,127.676 L 87.1442,127.648 L 87.1209,127.622 L 87.0954,127.598 L 87.0679,127.576 L 87.0386,127.557 L 87.0079,127.541 L 86.9758,127.527 L 86.9426,127.516 L 86.9086,127.507 L 86.874,127.502 L 86.8391,127.5 L 86.8042,127.501 L 86.7694,127.504 L 86.7351,127.511 L 86.7014,127.521 L 86.6688,127.533 L 86.6373,127.549 L 86.6073,127.566 L 86.5789,127.587 L 86.5524,127.61 L 86.5279,127.635 L 86.5057,127.662 L 86.4859,127.691 L 86.4686,127.721 L 86.454,127.753 L 86.4422,127.786 L 86.4333,127.819 L 86.4273,127.854 L 86.4243,127.889 L 86.4243,127.924 L 86.4273,127.959 L 86.4333,127.993 L 86.4422,128.027 L 86.454,128.06 L 86.4686,128.092 L 86.4859,128.122 L 86.5057,128.151 L 86.5279,128.178 L 86.5524,128.203 L 86.5789,128.226 L 86.6073,128.246 L 86.6373,128.264 L 86.6688,128.279 L 86.7014,128.292 L 86.7351,128.301 L 86.7694,128.308 L 86.8042,128.312 L 86.8391,128.313 L 86.874,128.31 L 86.9086,128.305 L 86.9426,128.297 L 86.9758,128.286 L 87.0079,128.272 L 87.0386,128.255 L 87.0679,128.236 L 87.0954,128.214 L 87.1209,128.191 L 87.1442,128.165 L 87.1653,128.137 L 87.1838,128.107 L 87.1998,128.076 L 87.213,128.043 L 87.2234,128.01 L 87.2308,127.976 L 87.2353,127.941 L 87.2368,127.906 L 86.8304,127.906 Z" style="fill:#000000;fill-rule:evenodd;fill-opacity:1;stroke:#000000;stroke-width:0.0px;stroke-linecap:butt;stroke-linejoin:miter;stroke-opacity:1;"/>
<path d="M 87.2368,124.654 L 87.2353,124.619 L 87.2308,124.585 L 87.2234,124.551 L 87.213,124.517 L 87.1998,124.485 L 87.1838,124.454 L 87.1653,124.424 L 87.1442,124.396 L 87.1209,124.37 L 87.0954,124.346 L 87.0679,124.325 L 87.0386,124.305 L 87.0079,124.289 L 86.9758,124.275 L 86.9426,124.264 L 86.9086,124.256 L 86.874,124.25 L 86.8391,124.248 L 86.8042,124.249 L 86.7694,124.253 L 86.7351,124.259 L 86.7014,124.269 L 86.6688,124.281 L 86.6373,124.297 L 86.6073,124.315 L 86.5789,124.335 L 86.5524,124.358 L 86.5279,124.383 L 86.5057,124.41 L 86.4859,124.439 L 86.4686,124.469 L 86.454,124.501 L 86.4422,124.534 L 86.4333,124.568 L 86.4273,124.602 L 86.4243,124.637 L 86.4243,124.672 L 86.4273,124.707 L 86.4333,124.741 L 86.4422,124.775 L 86.454,124.808 L 86.4686,124.84 L 86.4859,124.87 L 86.5057,124.899 L 86.5279,124.926 L 86.5524,124.951 L 86.5789,124.974 L 86.6073,124.994 L 86.6373,125.012 L 86.6688,125.027 L 86.7014,125.04 L 86.7351,125.05 L 86.7694,125.056 L 86.8042,125.06 L 86.8391,125.061 L 86.874,125.059 L 86.9086,125.053 L 86.9426,125.045 L 86.9758,125.034 L 87.0079,125.02 L 87.0386,125.004 L 87.0679,124.984 L 87.0954,124.963 L 87.1209,124.939 L 87.1442,124.913 L 87.1653,124.885 L 87.1838,124.855 L 87.1998,124.824 L 87.213,124.792 L 87.2234,124.758 L 87.2308,124.724 L 87.2353,124.689 L 87.2368,124.654 L 86.8304,124.654 Z" style="fill:#000000;fill-rule:evenodd;fill-opacity:1;stroke:#000000;stroke-width:0.0px;stroke-linecap:butt;stroke-linejoin:miter;stroke-opacity:1;"/>
<path d="M 87.2368,126.28 L 87.2353,126.245 L 87.2308,126.211 L 87.2234,126.177 L 87.213,126.143 L 87.1998,126.111 L 87.1838,126.08 L 87.1653,126.05 L 87.1442,126.022 L 87.1209,125.996 L 87.0954,125.972 L 87.0679,125.95 L 87.0386,125.931 L 87.0079,125.915 L 86.9758,125.901 L 86.9426,125.89 L 86.9086,125.881 L 86.874,125.876 L 86.8391,125.874 L 86.8042,125.875 L 86.7694,125.878 L 86.7351,125.885 L 86.7014,125.895 L 86.6688,125.907 L 86.6373,125.923 L 86.6073,125.941 L 86.5789,125.961 L 86.5524,125.984 L 86.5279,126.009 L 86.5057,126.036 L 86.4859,126.065 L 86.4686,126.095 L 86.454,126.127 L 86.4422,126.16 L 86.4333,126.194 L 86.4273,126.228 L 86.4243,126.263 L 86.4243,126.298 L 86.4273,126.333 L 86.4333,126.367 L 86.4422,126.401 L 86.454,126.434 L 86.4686,126.466 L 86.4859,126.496 L 86.5057,126.525 L 86.5279,126.552 L 86.5524,126.577 L 86.5789,126.6 L 86.6073,126.62 L 86.6373,126.638 L 86.6688,126.653 L 86.7014,126.666 L 86.7351,126.675 L 86.7694,126.682 L 86.8042,126.686 L 86.8391,126.687 L 86.874,126.684 L 86.9086,126.679 L 86.9426,126.671 L 86.9758,126.66 L 87.0079,126.646 L 87.0386,126.629 L 87.0679,126.61 L 87.0954,126.589 L 87.1209,126.565 L 87.1442,126.539 L 87.1653,126.511 L 87.1838,126.481 L 87.1998,126.45 L 87.213,126.418 L 87.2234,126.384 L 87.2308,126.35 L 87.2353,126.315 L 87.2368,126.28 L 86.8304,126.28 Z" style="fill:#000000;fill-rule:evenodd;fill-opacity:1;stroke:#000000;stroke-width:0.0px;stroke-linecap:butt;stroke-linejoin:miter;stroke-opacity:1;"/>
<path d="M 125.582,140.358 L 125.581,140.323 L 125.576,140.288 L 125.569,140.254 L 125.558,140.221 L 125.545,140.188 L 125.529,140.157 L 125.511,140.128 L 125.489,140.1 L 125.466,140.074 L 125.441,140.05 L 125.413,140.028 L 125.384,140.009 L 125.353,139.992 L 125.321,139.978 L 125.288,139.967 L 125.254,139.959 L 125.219,139.954 L 125.184,139.952 L 125.149,139.952 L 125.115,139.956 L 125.08,139.963 L 125.047,139.972 L 125.014,139.985 L 124.983,140 L 124.953,140.018 L 124.924,140.039 L 124.898,140.061 L 124.873,140.086 L 124.851,140.113 L 124.831,140.142 L 124.814,140.173 L 124.799,140.204 L 124.787,140.237 L 124.779,140.271 L 124.773,140.306 L 124.77,140.34 L 124.77,140.375 L 124.773,140.41 L 124.779,140.445 L 124.787,140.479 L 124.799,140.511 L 124.814,140.543 L 124.831,140.574 L 124.851,140.603 L 124.873,140.63 L 124.898,140.655 L 124.924,140.677 L 124.953,140.698 L 124.983,140.716 L 125.014,140.731 L 125.047,140.743 L 125.08,140.753 L 125.115,140.76 L 125.149,140.764 L 125.184,140.764 L 125.219,140.762 L 125.254,140.757 L 125.288,140.749 L 125.321,140.738 L 125.353,140.724 L 125.384,140.707 L 125.413,140.688 L 125.441,140.666 L 125.466,140.642 L 125.489,140.616 L 125.511,140.588 L 125.529,140.559 L 125.545,140.528 L 125.558,140.495 L 125.569,140.462 L 125.576,140.428 L 125.581,140.393 L 125.582,140.358 L 125.176,140.358 Z" style="fill:#000000;fill-rule:evenodd;fill-opacity:1;stroke:#000000;stroke-width:0.0px;stroke-linecap:butt;stroke-linejoin:miter;stroke-opacity:1;"/>
<path class="bond-0 atom-0 atom-1" d="M 356.893,126.463 L 365.709,126.463" style="fill:none;fill-rule:evenodd;stroke:#000000;stroke-width:2.0px;stroke-linecap:butt;stroke-linejoin:miter;stroke-opacity:1"/>
<path class="bond-0 atom-0 atom-1" d="M 365.709,126.463 L 374.526,126.463" style="fill:none;fill-rule:evenodd;stroke:#0000FF;stroke-width:2.0px;stroke-linecap:butt;stroke-linejoin:miter;stroke-opacity:1"/>
<path class="bond-0 atom-0 atom-1" d="M 356.893,122.399 L 365.709,122.399" style="fill:none;fill-rule:evenodd;stroke:#000000;stroke-width:2.0px;stroke-linecap:butt;stroke-linejoin:miter;stroke-opacity:1"/>
<path class="bond-0 atom-0 atom-1" d="M 365.709,122.399 L 374.526,122.399" style="fill:none;fill-rule:evenodd;stroke:#0000FF;stroke-width:2.0px;stroke-linecap:butt;stroke-linejoin:miter;stroke-opacity:1"/>
<path class="atom-1" d="M 375.944 121.553 L 377.83 124.602 Q 378.017 124.902, 378.318 125.447 Q 378.619 125.992, 378.635 126.024 L 378.635 121.553 L 379.399 121.553 L 379.399 127.309 L 378.611 127.309 L 376.586 123.976 Q 376.351 123.585, 376.099 123.138 Q 375.855 122.691, 375.782 122.553 L 375.782 127.309 L 375.034 127.309 L 375.034 121.553 L 375.944 121.553 " fill="#0000FF"/>
<path class="atom-1" d="M 379.667 122.505 L 381.637 122.505 L 381.637 122.934 L 379.667 122.934 L 379.667 122.505 " fill="#0000FF"/>
<path d="M 354.86,123.618 L 354.859,123.583 L 354.854,123.548 L 354.847,123.514 L 354.837,123.481 L 354.823,123.448 L 354.807,123.417 L 354.789,123.388 L 354.768,123.36 L 354.744,123.334 L 354.719,123.31 L 354.691,123.288 L 354.662,123.269 L 354.631,123.252 L 354.599,123.238 L 354.566,123.227 L 354.532,123.219 L 354.498,123.214 L 354.463,123.212 L 354.428,123.212 L 354.393,123.216 L 354.359,123.223 L 354.325,123.232 L 354.292,123.245 L 354.261,123.26 L 354.231,123.278 L 354.202,123.299 L 354.176,123.321 L 354.151,123.346 L 354.129,123.373 L 354.109,123.402 L 354.092,123.433 L 354.078,123.464 L 354.066,123.497 L 354.057,123.531 L 354.051,123.566 L 354.048,123.6 L 354.048,123.635 L 354.051,123.67 L 354.057,123.705 L 354.066,123.739 L 354.078,123.771 L 354.092,123.803 L 354.109,123.834 L 354.129,123.862 L 354.151,123.889 L 354.176,123.914 L 354.202,123.937 L 354.231,123.958 L 354.261,123.976 L 354.292,123.991 L 354.325,124.003 L 354.359,124.013 L 354.393,124.02 L 354.428,124.024 L 354.463,124.024 L 354.498,124.022 L 354.532,124.017 L 354.566,124.009 L 354.599,123.998 L 354.631,123.984 L 354.662,123.967 L 354.691,123.948 L 354.719,123.926 L 354.744,123.902 L 354.768,123.876 L 354.789,123.848 L 354.807,123.819 L 354.823,123.788 L 354.837,123.755 L 354.847,123.722 L 354.854,123.688 L 354.859,123.653 L 354.86,123.618 L 354.454,123.618 Z" style="fill:#000000;fill-rule:evenodd;fill-opacity:1;stroke:#000000;stroke-width:0.0px;stroke-linecap:butt;stroke-linejoin:miter;stroke-opacity:1;"/>
<path d="M 354.86,125.244 L 354.859,125.209 L 354.854,125.174 L 354.847,125.14 L 354.837,125.107 L 354.823,125.074 L 354.807,125.043 L 354.789,125.013 L 354.768,124.986 L 354.744,124.96 L 354.719,124.936 L 354.691,124.914 L 354.662,124.895 L 354.631,124.878 L 354.599,124.864 L 354.566,124.853 L 354.532,124.845 L 354.498,124.84 L 354.463,124.837 L 354.428,124.838 L 354.393,124.842 L 354.359,124.849 L 354.325,124.858 L 354.292,124.871 L 354.261,124.886 L 354.231,124.904 L 354.202,124.924 L 354.176,124.947 L 354.151,124.972 L 354.129,124.999 L 354.109,125.028 L 354.092,125.059 L 354.078,125.09 L 354.066,125.123 L 354.057,125.157 L 354.051,125.192 L 354.048,125.226 L 354.048,125.261 L 354.051,125.296 L 354.057,125.331 L 354.066,125.364 L 354.078,125.397 L 354.092,125.429 L 354.109,125.46 L 354.129,125.488 L 354.151,125.515 L 354.176,125.54 L 354.202,125.563 L 354.231,125.584 L 354.261,125.602 L 354.292,125.617 L 354.325,125.629 L 354.359,125.639 L 354.393,125.646 L 354.428,125.649 L 354.463,125.65 L 354.498,125.648 L 354.532,125.643 L 354.566,125.635 L 354.599,125.623 L 354.631,125.61 L 354.662,125.593 L 354.691,125.574 L 354.719,125.552 L 354.744,125.528 L 354.768,125.502 L 354.789,125.474 L 354.807,125.445 L 354.823,125.413 L 354.837,125.381 L 354.847,125.348 L 354.854,125.313 L 354.859,125.279 L 354.86,125.244 L 354.454,125.244 Z" style="fill:#000000;fill-rule:evenodd;fill-opacity:1;stroke:#000000;stroke-width:0.0px;stroke-linecap:butt;stroke-linejoin:miter;stroke-opacity:1;"/>
<path class="bond-0 atom-0 atom-1" d="M 651.362,127.979 L 644.341,123.926" style="fill:none;fill-rule:evenodd;stroke:#A01EEF;stroke-width:2.0px;stroke-linecap:butt;stroke-linejoin:miter;stroke-opacity:1"/>
<path class="bond-0 atom-0 atom-1" d="M 644.341,123.926 L 637.32,119.872" style="fill:none;fill-rule:evenodd;stroke:#0000FF;stroke-width:2.0px;stroke-linecap:butt;stroke-linejoin:miter;stroke-opacity:1"/>
<path class="bond-1 atom-1 atom-2" d="M 631.965,119.887 L 624.51,124.191" style="fill:none;fill-rule:evenodd;stroke:#0000FF;stroke-width:2.0px;stroke-linecap:butt;stroke-linejoin:miter;stroke-opacity:1"/>
<path class="bond-1 atom-1 atom-2" d="M 624.51,124.191 L 617.055,128.496" style="fill:none;fill-rule:evenodd;stroke:#000000;stroke-width:2.0px;stroke-linecap:butt;stroke-linejoin:miter;stroke-opacity:1"/>
<path class="bond-2 atom-2 atom-3" d="M 617.055,128.496 L 609.431,124.094" style="fill:none;fill-rule:evenodd;stroke:#000000;stroke-width:2.0px;stroke-linecap:butt;stroke-linejoin:miter;stroke-opacity:1"/>
<path class="bond-2 atom-2 atom-3" d="M 609.431,124.094 L 601.807,119.693" style="fill:none;fill-rule:evenodd;stroke:#CCCC00;stroke-width:2.0px;stroke-linecap:butt;stroke-linejoin:miter;stroke-opacity:1"/>
<path class="bond-2 atom-2 atom-3" d="M 616.8,123.655 L 611.463,120.574" style="fill:none;fill-rule:evenodd;stroke:#000000;stroke-width:2.0px;stroke-linecap:butt;stroke-linejoin:miter;stroke-opacity:1"/>
<path class="bond-2 atom-2 atom-3" d="M 611.463,120.574 L 606.127,117.493" style="fill:none;fill-rule:evenodd;stroke:#CCCC00;stroke-width:2.0px;stroke-linecap:butt;stroke-linejoin:miter;stroke-opacity:1"/>
<path class="bond-3 atom-3 atom-4" d="M 597.1,119.693 L 590.552,123.473" style="fill:none;fill-rule:evenodd;stroke:#CCCC00;stroke-width:2.0px;stroke-linecap:butt;stroke-linejoin:miter;stroke-opacity:1"/>
<path class="bond-3 atom-3 atom-4" d="M 590.552,123.473 L 584.004,127.254" style="fill:none;fill-rule:evenodd;stroke:#33CCCC;stroke-width:2.0px;stroke-linecap:butt;stroke-linejoin:miter;stroke-opacity:1"/>
<path class="atom-0" d="M 651.87 125.606 L 652.642 125.606 L 652.642 131.386 L 651.87 131.386 L 651.87 125.606 " fill="#A01EEF"/>
<path class="atom-1" d="M 633.383 115.456 L 635.269 118.505 Q 635.456 118.805, 635.757 119.35 Q 636.058 119.895, 636.074 119.927 L 636.074 115.456 L 636.838 115.456 L 636.838 121.212 L 636.05 121.212 L 634.025 117.879 Q 633.79 117.488, 633.538 117.041 Q 633.294 116.594, 633.221 116.456 L 633.221 121.212 L 632.473 121.212 L 632.473 115.456 L 633.383 115.456 " fill="#0000FF"/>
<path class="atom-1" d="M 632.404 109.125 L 633.184 109.125 L 633.184 111.572 L 636.127 111.572 L 636.127 109.125 L 636.907 109.125 L 636.907 114.88 L 636.127 114.88 L 636.127 112.222 L 633.184 112.222 L 633.184 114.88 L 632.404 114.88 L 632.404 109.125 " fill="#0000FF"/>
<path class="atom-1" d="M 637.39 110.162 L 638.404 110.162 L 638.404 109.094 L 638.855 109.094 L 638.855 110.162 L 639.896 110.162 L 639.896 110.549 L 638.855 110.549 L 638.855 111.622 L 638.404 111.622 L 638.404 110.549 L 637.39 110.549 L 637.39 110.162 " fill="#0000FF"/>
<path class="atom-3" d="M 597.828 120.309 Q 597.893 120.334, 598.161 120.447 Q 598.429 120.561, 598.722 120.634 Q 599.023 120.699, 599.316 120.699 Q 599.86 120.699, 600.177 120.439 Q 600.494 120.171, 600.494 119.708 Q 600.494 119.391, 600.332 119.196 Q 600.177 119, 599.933 118.895 Q 599.689 118.789, 599.283 118.667 Q 598.771 118.513, 598.462 118.366 Q 598.161 118.22, 597.942 117.911 Q 597.73 117.602, 597.73 117.082 Q 597.73 116.358, 598.218 115.911 Q 598.714 115.464, 599.689 115.464 Q 600.356 115.464, 601.112 115.781 L 600.925 116.407 Q 600.234 116.123, 599.714 116.123 Q 599.153 116.123, 598.844 116.358 Q 598.535 116.586, 598.543 116.984 Q 598.543 117.293, 598.698 117.48 Q 598.86 117.667, 599.088 117.773 Q 599.324 117.879, 599.714 118 Q 600.234 118.163, 600.543 118.326 Q 600.852 118.488, 601.072 118.822 Q 601.299 119.147, 601.299 119.708 Q 601.299 120.504, 600.763 120.935 Q 600.234 121.358, 599.348 121.358 Q 598.836 121.358, 598.446 121.244 Q 598.064 121.138, 597.608 120.951 L 597.828 120.309 " fill="#CCCC00"/>
<path class="atom-4" d="M 580.142 125.618 L 583.564 125.618 L 583.564 126.276 L 580.914 126.276 L 580.914 128.024 L 583.272 128.024 L 583.272 128.691 L 580.914 128.691 L 580.914 131.373 L 580.142 131.373 L 580.142 125.618 " fill="#33CCCC"/>
<path d="M 635.062,108.485 L 635.06,108.45 L 635.056,108.415 L 635.048,108.381 L 635.038,108.348 L 635.025,108.315 L 635.009,108.284 L 634.99,108.254 L 634.969,108.226 L 634.946,108.2 L 634.92,108.177 L 634.893,108.155 L 634.864,108.136 L 634.833,108.119 L 634.801,108.105 L 634.768,108.094 L 634.734,108.086 L 634.699,108.081 L 634.664,108.078 L 634.629,108.079 L 634.594,108.083 L 634.56,108.09 L 634.526,108.099 L 634.494,108.112 L 634.462,108.127 L 634.432,108.145 L 634.404,108.165 L 634.377,108.188 L 634.353,108.213 L 634.331,108.24 L 634.311,108.269 L 634.294,108.299 L 634.279,108.331 L 634.267,108.364 L 634.258,108.398 L 634.252,108.432 L 634.249,108.467 L 634.249,108.502 L 634.252,108.537 L 634.258,108.572 L 634.267,108.605 L 634.279,108.638 L 634.294,108.67 L 634.311,108.701 L 634.331,108.729 L 634.353,108.756 L 634.377,108.781 L 634.404,108.804 L 634.432,108.825 L 634.462,108.842 L 634.494,108.858 L 634.526,108.87 L 634.56,108.88 L 634.594,108.887 L 634.629,108.89 L 634.664,108.891 L 634.699,108.889 L 634.734,108.884 L 634.768,108.875 L 634.801,108.864 L 634.833,108.85 L 634.864,108.834 L 634.893,108.815 L 634.92,108.793 L 634.946,108.769 L 634.969,108.743 L 634.99,108.715 L 635.009,108.685 L 635.025,108.654 L 635.038,108.622 L 635.048,108.589 L 635.056,108.554 L 635.06,108.52 L 635.062,108.485 L 634.655,108.485 Z" style="fill:#000000;fill-rule:evenodd;fill-opacity:1;stroke:#000000;stroke-width:0.0px;stroke-linecap:butt;stroke-linejoin:miter;stroke-opacity:1;"/>
<path d="M 599.86,114.854 L 599.859,114.819 L 599.854,114.785 L 599.847,114.751 L 599.836,114.717 L 599.823,114.685 L 599.807,114.654 L 599.789,114.624 L 599.768,114.596 L 599.744,114.57 L 599.719,114.546 L 599.691,114.525 L 599.662,114.505 L 599.631,114.489 L 599.599,114.475 L 599.566,114.464 L 599.532,114.455 L 599.497,114.45 L 599.462,114.448 L 599.428,114.449 L 599.393,114.453 L 599.358,114.459 L 599.325,114.469 L 599.292,114.481 L 599.261,114.497 L 599.231,114.515 L 599.202,114.535 L 599.176,114.558 L 599.151,114.583 L 599.129,114.61 L 599.109,114.639 L 599.092,114.669 L 599.077,114.701 L 599.066,114.734 L 599.057,114.768 L 599.051,114.802 L 599.048,114.837 L 599.048,114.872 L 599.051,114.907 L 599.057,114.941 L 599.066,114.975 L 599.077,115.008 L 599.092,115.04 L 599.109,115.07 L 599.129,115.099 L 599.151,115.126 L 599.176,115.151 L 599.202,115.174 L 599.231,115.194 L 599.261,115.212 L 599.292,115.227 L 599.325,115.24 L 599.358,115.25 L 599.393,115.256 L 599.428,115.26 L 599.462,115.261 L 599.497,115.258 L 599.532,115.253 L 599.566,115.245 L 599.599,115.234 L 599.631,115.22 L 599.662,115.203 L 599.691,115.184 L 599.719,115.163 L 599.744,115.139 L 599.768,115.113 L 599.789,115.085 L 599.807,115.055 L 599.823,115.024 L 599.836,114.992 L 599.847,114.958 L 599.854,114.924 L 599.859,114.889 L 599.86,114.854 L 599.454,114.854 Z" style="fill:#000000;fill-rule:evenodd;fill-opacity:1;stroke:#000000;stroke-width:0.0px;stroke-linecap:butt;stroke-linejoin:miter;stroke-opacity:1;"/>
<path class="bond-0 atom-0 atom-1" d="M 65.1464,370.592 L 73.4996,375.415" style="fill:none;fill-rule:evenodd;stroke:#A01EEF;stroke-width:2.0px;stroke-linecap:butt;stroke-linejoin:miter;stroke-opacity:1"/>
<path class="bond-0 atom-0 atom-1" d="M 73.4996,375.415 L 81.8529,380.238" style="fill:none;fill-rule:evenodd;stroke:#000000;stroke-width:2.0px;stroke-linecap:butt;stroke-linejoin:miter;stroke-opacity:1"/>
<path class="bond-1 atom-1 atom-2" d="M 81.8529,380.238 L 89.3079,375.934" style="fill:none;fill-rule:evenodd;stroke:#000000;stroke-width:2.0px;stroke-linecap:butt;stroke-linejoin:miter;stroke-opacity:1"/>
<path class="bond-1 atom-1 atom-2" d="M 89.3079,375.934 L 96.7629,371.629" style="fill:none;fill-rule:evenodd;stroke:#0000FF;stroke-width:2.0px;stroke-linecap:butt;stroke-linejoin:miter;stroke-opacity:1"/>
<path class="bond-2 atom-2 atom-3" d="M 102.145,371.629 L 114.441,378.729" style="fill:none;fill-rule:evenodd;stroke:#0000FF;stroke-width:2.0px;stroke-linecap:butt;stroke-linejoin:miter;stroke-opacity:1"/>
<path class="bond-3 atom-3 atom-4" d="M 119.745,378.684 L 126.062,375.037" style="fill:none;fill-rule:evenodd;stroke:#0000FF;stroke-width:2.0px;stroke-linecap:butt;stroke-linejoin:miter;stroke-opacity:1"/>
<path class="bond-3 atom-3 atom-4" d="M 126.062,375.037 L 132.38,371.39" style="fill:none;fill-rule:evenodd;stroke:#CCCC00;stroke-width:2.0px;stroke-linecap:butt;stroke-linejoin:miter;stroke-opacity:1"/>
<path class="bond-3 atom-3 atom-4" d="M 119.608,374.07 L 124.03,371.517" style="fill:none;fill-rule:evenodd;stroke:#0000FF;stroke-width:2.0px;stroke-linecap:butt;stroke-linejoin:miter;stroke-opacity:1"/>
<path class="bond-3 atom-3 atom-4" d="M 124.03,371.517 L 128.452,368.964" style="fill:none;fill-rule:evenodd;stroke:#CCCC00;stroke-width:2.0px;stroke-linecap:butt;stroke-linejoin:miter;stroke-opacity:1"/>
<path class="bond-4 atom-4 atom-5" d="M 137.009,371.435 L 144.633,375.836" style="fill:none;fill-rule:evenodd;stroke:#CCCC00;stroke-width:2.0px;stroke-linecap:butt;stroke-linejoin:miter;stroke-opacity:1"/>
<path class="bond-4 atom-4 atom-5" d="M 144.633,375.836 L 152.256,380.238" style="fill:none;fill-rule:evenodd;stroke:#000000;stroke-width:2.0px;stroke-linecap:butt;stroke-linejoin:miter;stroke-opacity:1"/>
<path class="bond-4 atom-4 atom-5" d="M 137.264,376.275 L 142.6,379.356" style="fill:none;fill-rule:evenodd;stroke:#CCCC00;stroke-width:2.0px;stroke-linecap:butt;stroke-linejoin:miter;stroke-opacity:1"/>
<path class="bond-4 atom-4 atom-5" d="M 142.6,379.356 L 147.937,382.437" style="fill:none;fill-rule:evenodd;stroke:#000000;stroke-width:2.0px;stroke-linecap:butt;stroke-linejoin:miter;stroke-opacity:1"/>
<path class="bond-5 atom-5 atom-6" d="M 152.256,380.238 L 160.609,375.415" style="fill:none;fill-rule:evenodd;stroke:#000000;stroke-width:2.0px;stroke-linecap:butt;stroke-linejoin:miter;stroke-opacity:1"/>
<path class="bond-5 atom-5 atom-6" d="M 160.609,375.415 L 168.963,370.592" style="fill:none;fill-rule:evenodd;stroke:#A01EEF;stroke-width:2.0px;stroke-linecap:butt;stroke-linejoin:miter;stroke-opacity:1"/>
<path class="atom-0" d="M 63.866 367.186 L 64.6383 367.186 L 64.6383 372.966 L 63.866 372.966 L 63.866 367.186 " fill="#A01EEF"/>
<path class="atom-2" d="M 98.1815 367.198 L 100.068 370.247 Q 100.254 370.547, 100.555 371.092 Q 100.856 371.637, 100.872 371.669 L 100.872 367.198 L 101.637 367.198 L 101.637 372.954 L 100.848 372.954 L 98.8237 369.621 Q 98.588 369.23, 98.3359 368.783 Q 98.0921 368.336, 98.0189 368.198 L 98.0189 372.954 L 97.271 372.954 L 97.271 367.198 L 98.1815 367.198 " fill="#0000FF"/>
<path class="atom-2" d="M 97.2019 360.867 L 97.9823 360.867 L 97.9823 363.314 L 100.925 363.314 L 100.925 360.867 L 101.706 360.867 L 101.706 366.622 L 100.925 366.622 L 100.925 363.964 L 97.9823 363.964 L 97.9823 366.622 L 97.2019 366.622 L 97.2019 360.867 " fill="#0000FF"/>
<path class="atom-3" d="M 115.782 377.36 L 117.668 380.408 Q 117.855 380.709, 118.156 381.254 Q 118.457 381.799, 118.473 381.831 L 118.473 377.36 L 119.237 377.36 L 119.237 383.115 L 118.449 383.115 L 116.425 379.782 Q 116.189 379.392, 115.937 378.945 Q 115.693 378.498, 115.62 378.36 L 115.62 383.115 L 114.872 383.115 L 114.872 377.36 L 115.782 377.36 " fill="#0000FF"/>
<path class="atom-4" d="M 133.029 372.051 Q 133.095 372.076, 133.363 372.189 Q 133.631 372.303, 133.924 372.376 Q 134.225 372.441, 134.517 372.441 Q 135.062 372.441, 135.379 372.181 Q 135.696 371.913, 135.696 371.45 Q 135.696 371.133, 135.533 370.938 Q 135.379 370.742, 135.135 370.637 Q 134.891 370.531, 134.485 370.409 Q 133.972 370.255, 133.664 370.108 Q 133.363 369.962, 133.143 369.653 Q 132.932 369.344, 132.932 368.824 Q 132.932 368.1, 133.42 367.653 Q 133.916 367.206, 134.891 367.206 Q 135.558 367.206, 136.314 367.523 L 136.127 368.149 Q 135.436 367.865, 134.916 367.865 Q 134.355 367.865, 134.046 368.1 Q 133.737 368.328, 133.745 368.726 Q 133.745 369.035, 133.899 369.222 Q 134.062 369.409, 134.29 369.515 Q 134.525 369.621, 134.916 369.743 Q 135.436 369.905, 135.745 370.068 Q 136.054 370.23, 136.273 370.564 Q 136.501 370.889, 136.501 371.45 Q 136.501 372.246, 135.964 372.677 Q 135.436 373.1, 134.55 373.1 Q 134.038 373.1, 133.647 372.986 Q 133.265 372.88, 132.81 372.694 L 133.029 372.051 " fill="#CCCC00"/>
<path class="atom-6" d="M 169.471 367.186 L 170.243 367.186 L 170.243 372.966 L 169.471 372.966 L 169.471 367.186 " fill="#A01EEF"/>
<path d="M 83.0723,382.067 L 83.0708,382.032 L 83.0663,381.997 L 83.0589,381.963 L 83.0485,381.93 L 83.0353,381.897 L 83.0193,381.866 L 83.0008,381.836 L 82.9797,381.808 L 82.9564,381.782 L 82.9309,381.759 L 82.9034,381.737 L 82.8741,381.718 L 82.8434,381.701 L 82.8113,381.687 L 82.7781,381.676 L 82.7441,381.668 L 82.7095,381.663 L 82.6746,381.66 L 82.6397,381.661 L 82.6049,381.665 L 82.5706,381.672 L 82.5369,381.681 L 82.5043,381.694 L 82.4728,381.709 L 82.4428,381.727 L 82.4144,381.747 L 82.3879,381.77 L 82.3634,381.795 L 82.3412,381.822 L 82.3214,381.851 L 82.3041,381.881 L 82.2895,381.913 L 82.2777,381.946 L 82.2688,381.98 L 82.2628,382.014 L 82.2598,382.049 L 82.2598,382.084 L 82.2628,382.119 L 82.2688,382.154 L 82.2777,382.187 L 82.2895,382.22 L 82.3041,382.252 L 82.3214,382.283 L 82.3412,382.311 L 82.3634,382.338 L 82.3879,382.363 L 82.4144,382.386 L 82.4428,382.407 L 82.4728,382.424 L 82.5043,382.44 L 82.5369,382.452 L 82.5706,382.462 L 82.6049,382.469 L 82.6397,382.472 L 82.6746,382.473 L 82.7095,382.471 L 82.7441,382.466 L 82.7781,382.457 L 82.8113,382.446 L 82.8434,382.432 L 82.8741,382.416 L 82.9034,382.397 L 82.9309,382.375 L 82.9564,382.351 L 82.9797,382.325 L 83.0008,382.297 L 83.0193,382.267 L 83.0353,382.236 L 83.0485,382.204 L 83.0589,382.171 L 83.0663,382.136 L 83.0708,382.102 L 83.0723,382.067 L 82.6659,382.067 Z" style="fill:#000000;fill-rule:evenodd;fill-opacity:1;stroke:#000000;stroke-width:0.0px;stroke-linecap:butt;stroke-linejoin:miter;stroke-opacity:1;"/>
<path d="M 81.4465,382.067 L 81.445,382.032 L 81.4404,381.997 L 81.433,381.963 L 81.4226,381.93 L 81.4094,381.897 L 81.3934,381.866 L 81.3749,381.836 L 81.3538,381.808 L 81.3305,381.782 L 81.305,381.759 L 81.2775,381.737 L 81.2482,381.718 L 81.2175,381.701 L 81.1854,381.687 L 81.1522,381.676 L 81.1182,381.668 L 81.0836,381.663 L 81.0487,381.66 L 81.0138,381.661 L 80.979,381.665 L 80.9447,381.672 L 80.9111,381.681 L 80.8784,381.694 L 80.8469,381.709 L 80.8169,381.727 L 80.7885,381.747 L 80.762,381.77 L 80.7375,381.795 L 80.7153,381.822 L 80.6955,381.851 L 80.6782,381.881 L 80.6636,381.913 L 80.6518,381.946 L 80.6429,381.98 L 80.6369,382.014 L 80.6339,382.049 L 80.6339,382.084 L 80.6369,382.119 L 80.6429,382.154 L 80.6518,382.187 L 80.6636,382.22 L 80.6782,382.252 L 80.6955,382.283 L 80.7153,382.311 L 80.7375,382.338 L 80.762,382.363 L 80.7885,382.386 L 80.8169,382.407 L 80.8469,382.424 L 80.8784,382.44 L 80.9111,382.452 L 80.9447,382.462 L 80.979,382.469 L 81.0138,382.472 L 81.0487,382.473 L 81.0836,382.471 L 81.1182,382.466 L 81.1522,382.457 L 81.1854,382.446 L 81.2175,382.432 L 81.2482,382.416 L 81.2775,382.397 L 81.305,382.375 L 81.3305,382.351 L 81.3538,382.325 L 81.3749,382.297 L 81.3934,382.267 L 81.4094,382.236 L 81.4226,382.204 L 81.433,382.171 L 81.4404,382.136 L 81.445,382.102 L 81.4465,382.067 L 81.04,382.067 Z" style="fill:#000000;fill-rule:evenodd;fill-opacity:1;stroke:#000000;stroke-width:0.0px;stroke-linecap:butt;stroke-linejoin:miter;stroke-opacity:1;"/>
<path class="bond-0 atom-0 atom-1" d="M 399.911,377.142 L 393.595,373.495" style="fill:none;fill-rule:evenodd;stroke:#FF7F00;stroke-width:2.0px;stroke-linecap:butt;stroke-linejoin:miter;stroke-opacity:1"/>
<path class="bond-0 atom-0 atom-1" d="M 393.595,373.495 L 387.279,369.848" style="fill:none;fill-rule:evenodd;stroke:#0000FF;stroke-width:2.0px;stroke-linecap:butt;stroke-linejoin:miter;stroke-opacity:1"/>
<path class="bond-1 atom-1 atom-2" d="M 381.965,369.887 L 374.51,374.191" style="fill:none;fill-rule:evenodd;stroke:#0000FF;stroke-width:2.0px;stroke-linecap:butt;stroke-linejoin:miter;stroke-opacity:1"/>
<path class="bond-1 atom-1 atom-2" d="M 374.51,374.191 L 367.055,378.496" style="fill:none;fill-rule:evenodd;stroke:#000000;stroke-width:2.0px;stroke-linecap:butt;stroke-linejoin:miter;stroke-opacity:1"/>
<path class="bond-2 atom-2 atom-3" d="M 367.055,378.496 L 359.427,374.092" style="fill:none;fill-rule:evenodd;stroke:#000000;stroke-width:2.0px;stroke-linecap:butt;stroke-linejoin:miter;stroke-opacity:1"/>
<path class="bond-2 atom-2 atom-3" d="M 359.427,374.092 L 351.799,369.688" style="fill:none;fill-rule:evenodd;stroke:#FF7F00;stroke-width:2.0px;stroke-linecap:butt;stroke-linejoin:miter;stroke-opacity:1"/>
<path class="bond-2 atom-2 atom-3" d="M 366.799,373.654 L 361.459,370.572" style="fill:none;fill-rule:evenodd;stroke:#000000;stroke-width:2.0px;stroke-linecap:butt;stroke-linejoin:miter;stroke-opacity:1"/>
<path class="bond-2 atom-2 atom-3" d="M 361.459,370.572 L 356.12,367.489" style="fill:none;fill-rule:evenodd;stroke:#FF7F00;stroke-width:2.0px;stroke-linecap:butt;stroke-linejoin:miter;stroke-opacity:1"/>
<path class="bond-3 atom-3 atom-4" d="M 347.108,369.688 L 339.894,373.853" style="fill:none;fill-rule:evenodd;stroke:#FF7F00;stroke-width:2.0px;stroke-linecap:butt;stroke-linejoin:miter;stroke-opacity:1"/>
<path class="bond-3 atom-3 atom-4" d="M 339.894,373.853 L 332.679,378.018" style="fill:none;fill-rule:evenodd;stroke:#A01EEF;stroke-width:2.0px;stroke-linecap:butt;stroke-linejoin:miter;stroke-opacity:1"/>
<path class="atom-0" d="M 402.118 375.618 Q 403.102 375.618, 403.598 376.065 Q 404.093 376.504, 404.093 377.309 Q 404.093 378.105, 403.581 378.561 Q 403.077 379.008, 402.118 379.008 L 401.199 379.008 L 401.199 381.373 L 400.419 381.373 L 400.419 375.618 L 402.118 375.618 M 402.118 378.357 Q 402.679 378.357, 402.98 378.089 Q 403.28 377.821, 403.28 377.309 Q 403.28 376.797, 402.98 376.536 Q 402.687 376.268, 402.118 376.268 L 401.199 376.268 L 401.199 378.357 L 402.118 378.357 " fill="#FF7F00"/>
<path class="atom-1" d="M 383.383 365.456 L 385.269 368.505 Q 385.456 368.805, 385.757 369.35 Q 386.058 369.895, 386.074 369.927 L 386.074 365.456 L 386.838 365.456 L 386.838 371.212 L 386.05 371.212 L 384.025 367.879 Q 383.79 367.488, 383.538 367.041 Q 383.294 366.594, 383.221 366.456 L 383.221 371.212 L 382.473 371.212 L 382.473 365.456 L 383.383 365.456 " fill="#0000FF"/>
<path class="atom-1" d="M 387.106 366.408 L 389.076 366.408 L 389.076 366.837 L 387.106 366.837 L 387.106 366.408 " fill="#0000FF"/>
<path class="atom-3" d="M 349.316 365.456 Q 350.299 365.456, 350.795 365.903 Q 351.291 366.342, 351.291 367.147 Q 351.291 367.944, 350.779 368.399 Q 350.275 368.846, 349.316 368.846 L 348.397 368.846 L 348.397 371.212 L 347.616 371.212 L 347.616 365.456 L 349.316 365.456 M 349.316 368.196 Q 349.876 368.196, 350.177 367.927 Q 350.478 367.659, 350.478 367.147 Q 350.478 366.635, 350.177 366.375 Q 349.885 366.106, 349.316 366.106 L 348.397 366.106 L 348.397 368.196 L 349.316 368.196 " fill="#FF7F00"/>
<path class="atom-4" d="M 331.467 375.606 L 332.239 375.606 L 332.239 381.386 L 331.467 381.386 L 331.467 375.606 " fill="#A01EEF"/>
<path d="M 405.719,377.683 L 405.718,377.648 L 405.713,377.613 L 405.706,377.579 L 405.695,377.545 L 405.682,377.513 L 405.666,377.482 L 405.648,377.452 L 405.627,377.424 L 405.603,377.398 L 405.578,377.374 L 405.55,377.353 L 405.521,377.334 L 405.49,377.317 L 405.458,377.303 L 405.425,377.292 L 405.391,377.284 L 405.357,377.279 L 405.322,377.276 L 405.287,377.277 L 405.252,377.281 L 405.218,377.288 L 405.184,377.297 L 405.151,377.31 L 405.12,377.325 L 405.09,377.343 L 405.061,377.363 L 405.035,377.386 L 405.01,377.411 L 404.988,377.438 L 404.968,377.467 L 404.951,377.497 L 404.937,377.529 L 404.925,377.562 L 404.916,377.596 L 404.91,377.63 L 404.907,377.665 L 404.907,377.7 L 404.91,377.735 L 404.916,377.769 L 404.925,377.803 L 404.937,377.836 L 404.951,377.868 L 404.968,377.898 L 404.988,377.927 L 405.01,377.954 L 405.035,377.979 L 405.061,378.002 L 405.09,378.022 L 405.12,378.04 L 405.151,378.056 L 405.184,378.068 L 405.218,378.078 L 405.252,378.085 L 405.287,378.088 L 405.322,378.089 L 405.357,378.087 L 405.391,378.082 L 405.425,378.073 L 405.458,378.062 L 405.49,378.048 L 405.521,378.032 L 405.55,378.013 L 405.578,377.991 L 405.603,377.967 L 405.627,377.941 L 405.648,377.913 L 405.666,377.883 L 405.682,377.852 L 405.695,377.82 L 405.706,377.786 L 405.713,377.752 L 405.718,377.718 L 405.719,377.683 L 405.313,377.683 Z" style="fill:#000000;fill-rule:evenodd;fill-opacity:1;stroke:#000000;stroke-width:0.0px;stroke-linecap:butt;stroke-linejoin:miter;stroke-opacity:1;"/>
<path d="M 405.719,379.309 L 405.718,379.274 L 405.713,379.239 L 405.706,379.205 L 405.695,379.171 L 405.682,379.139 L 405.666,379.108 L 405.648,379.078 L 405.627,379.05 L 405.603,379.024 L 405.578,379 L 405.55,378.979 L 405.521,378.96 L 405.49,378.943 L 405.458,378.929 L 405.425,378.918 L 405.391,378.91 L 405.357,378.904 L 405.322,378.902 L 405.287,378.903 L 405.252,378.907 L 405.218,378.913 L 405.184,378.923 L 405.151,378.936 L 405.12,378.951 L 405.09,378.969 L 405.061,378.989 L 405.035,379.012 L 405.01,379.037 L 404.988,379.064 L 404.968,379.093 L 404.951,379.123 L 404.937,379.155 L 404.925,379.188 L 404.916,379.222 L 404.91,379.256 L 404.907,379.291 L 404.907,379.326 L 404.91,379.361 L 404.916,379.395 L 404.925,379.429 L 404.937,379.462 L 404.951,379.494 L 404.968,379.524 L 404.988,379.553 L 405.01,379.58 L 405.035,379.605 L 405.061,379.628 L 405.09,379.648 L 405.12,379.666 L 405.151,379.682 L 405.184,379.694 L 405.218,379.704 L 405.252,379.71 L 405.287,379.714 L 405.322,379.715 L 405.357,379.713 L 405.391,379.707 L 405.425,379.699 L 405.458,379.688 L 405.49,379.674 L 405.521,379.658 L 405.55,379.638 L 405.578,379.617 L 405.603,379.593 L 405.627,379.567 L 405.648,379.539 L 405.666,379.509 L 405.682,379.478 L 405.695,379.446 L 405.706,379.412 L 405.713,379.378 L 405.718,379.344 L 405.719,379.309 L 405.313,379.309 Z" style="fill:#000000;fill-rule:evenodd;fill-opacity:1;stroke:#000000;stroke-width:0.0px;stroke-linecap:butt;stroke-linejoin:miter;stroke-opacity:1;"/>
<path class="atom-0" d="M 614.835 374.455 Q 614.835 373.024, 615.502 372.277 Q 616.177 371.521, 617.453 371.521 Q 618.64 371.521, 619.274 372.358 L 618.737 372.797 Q 618.274 372.187, 617.453 372.187 Q 616.583 372.187, 616.12 372.772 Q 615.664 373.35, 615.664 374.455 Q 615.664 375.593, 616.136 376.179 Q 616.616 376.764, 617.542 376.764 Q 618.176 376.764, 618.916 376.382 L 619.144 376.992 Q 618.843 377.187, 618.388 377.301 Q 617.933 377.414, 617.429 377.414 Q 616.177 377.414, 615.502 376.65 Q 614.835 375.886, 614.835 374.455 " fill="#000000"/>
<path class="atom-0" d="M 619.965 371.586 L 620.745 371.586 L 620.745 374.033 L 623.688 374.033 L 623.688 371.586 L 624.469 371.586 L 624.469 377.341 L 623.688 377.341 L 623.688 374.683 L 620.745 374.683 L 620.745 377.341 L 619.965 377.341 L 619.965 371.586 " fill="#000000"/>
<path d="M 626.095,374.431 L 626.093,374.396 L 626.089,374.361 L 626.081,374.327 L 626.071,374.294 L 626.057,374.261 L 626.042,374.23 L 626.023,374.201 L 626.002,374.173 L 625.979,374.147 L 625.953,374.123 L 625.926,374.101 L 625.896,374.082 L 625.866,374.065 L 625.833,374.051 L 625.8,374.04 L 625.766,374.032 L 625.732,374.027 L 625.697,374.025 L 625.662,374.025 L 625.627,374.029 L 625.593,374.036 L 625.559,374.045 L 625.526,374.058 L 625.495,374.073 L 625.465,374.091 L 625.437,374.112 L 625.41,374.134 L 625.386,374.159 L 625.363,374.186 L 625.344,374.215 L 625.326,374.246 L 625.312,374.277 L 625.3,374.31 L 625.291,374.344 L 625.285,374.379 L 625.282,374.413 L 625.282,374.448 L 625.285,374.483 L 625.291,374.518 L 625.3,374.551 L 625.312,374.584 L 625.326,374.616 L 625.344,374.647 L 625.363,374.675 L 625.386,374.702 L 625.41,374.727 L 625.437,374.75 L 625.465,374.771 L 625.495,374.789 L 625.526,374.804 L 625.559,374.816 L 625.593,374.826 L 625.627,374.833 L 625.662,374.837 L 625.697,374.837 L 625.732,374.835 L 625.766,374.83 L 625.8,374.822 L 625.833,374.81 L 625.866,374.797 L 625.896,374.78 L 625.926,374.761 L 625.953,374.739 L 625.979,374.715 L 626.002,374.689 L 626.023,374.661 L 626.042,374.632 L 626.057,374.6 L 626.071,374.568 L 626.081,374.535 L 626.089,374.501 L 626.093,374.466 L 626.095,374.431 L 625.688,374.431 Z" style="fill:#000000;fill-rule:evenodd;fill-opacity:1;stroke:#000000;stroke-width:0.0px;stroke-linecap:butt;stroke-linejoin:miter;stroke-opacity:1;"/>
<path d="M 626.095,376.057 L 626.093,376.022 L 626.089,375.987 L 626.081,375.953 L 626.071,375.92 L 626.057,375.887 L 626.042,375.856 L 626.023,375.826 L 626.002,375.798 L 625.979,375.772 L 625.953,375.749 L 625.926,375.727 L 625.896,375.708 L 625.866,375.691 L 625.833,375.677 L 625.8,375.666 L 625.766,375.658 L 625.732,375.653 L 625.697,375.65 L 625.662,375.651 L 625.627,375.655 L 625.593,375.662 L 625.559,375.671 L 625.526,375.684 L 625.495,375.699 L 625.465,375.717 L 625.437,375.737 L 625.41,375.76 L 625.386,375.785 L 625.363,375.812 L 625.344,375.841 L 625.326,375.871 L 625.312,375.903 L 625.3,375.936 L 625.291,375.97 L 625.285,376.004 L 625.282,376.039 L 625.282,376.074 L 625.285,376.109 L 625.291,376.144 L 625.3,376.177 L 625.312,376.21 L 625.326,376.242 L 625.344,376.273 L 625.363,376.301 L 625.386,376.328 L 625.41,376.353 L 625.437,376.376 L 625.465,376.397 L 625.495,376.414 L 625.526,376.43 L 625.559,376.442 L 625.593,376.452 L 625.627,376.459 L 625.662,376.462 L 625.697,376.463 L 625.732,376.461 L 625.766,376.456 L 625.8,376.447 L 625.833,376.436 L 625.866,376.422 L 625.896,376.406 L 625.926,376.387 L 625.953,376.365 L 625.979,376.341 L 626.002,376.315 L 626.023,376.287 L 626.042,376.257 L 626.057,376.226 L 626.071,376.194 L 626.081,376.161 L 626.089,376.126 L 626.093,376.092 L 626.095,376.057 L 625.688,376.057 Z" style="fill:#000000;fill-rule:evenodd;fill-opacity:1;stroke:#000000;stroke-width:0.0px;stroke-linecap:butt;stroke-linejoin:miter;stroke-opacity:1;"/>
<path d="M 626.095,372.805 L 626.093,372.77 L 626.089,372.735 L 626.081,372.701 L 626.071,372.668 L 626.057,372.635 L 626.042,372.604 L 626.023,372.575 L 626.002,372.547 L 625.979,372.521 L 625.953,372.497 L 625.926,372.475 L 625.896,372.456 L 625.866,372.439 L 625.833,372.425 L 625.8,372.414 L 625.766,372.406 L 625.732,372.401 L 625.697,372.399 L 625.662,372.399 L 625.627,372.403 L 625.593,372.41 L 625.559,372.42 L 625.526,372.432 L 625.495,372.447 L 625.465,372.465 L 625.437,372.486 L 625.41,372.508 L 625.386,372.533 L 625.363,372.56 L 625.344,372.589 L 625.326,372.62 L 625.312,372.651 L 625.3,372.684 L 625.291,372.718 L 625.285,372.753 L 625.282,372.788 L 625.282,372.822 L 625.285,372.857 L 625.291,372.892 L 625.3,372.926 L 625.312,372.959 L 625.326,372.99 L 625.344,373.021 L 625.363,373.05 L 625.386,373.077 L 625.41,373.102 L 625.437,373.124 L 625.465,373.145 L 625.495,373.163 L 625.526,373.178 L 625.559,373.19 L 625.593,373.2 L 625.627,373.207 L 625.662,373.211 L 625.697,373.211 L 625.732,373.209 L 625.766,373.204 L 625.8,373.196 L 625.833,373.185 L 625.866,373.171 L 625.896,373.154 L 625.926,373.135 L 625.953,373.113 L 625.979,373.089 L 626.002,373.063 L 626.023,373.035 L 626.042,373.006 L 626.057,372.975 L 626.071,372.942 L 626.081,372.909 L 626.089,372.875 L 626.093,372.84 L 626.095,372.805 L 625.688,372.805 Z" style="fill:#000000;fill-rule:evenodd;fill-opacity:1;stroke:#000000;stroke-width:0.0px;stroke-linecap:butt;stroke-linejoin:miter;stroke-opacity:1;"/>
<path d="M 626.095,374.431 L 626.093,374.396 L 626.089,374.361 L 626.081,374.327 L 626.071,374.294 L 626.057,374.261 L 626.042,374.23 L 626.023,374.201 L 626.002,374.173 L 625.979,374.147 L 625.953,374.123 L 625.926,374.101 L 625.896,374.082 L 625.866,374.065 L 625.833,374.051 L 625.8,374.04 L 625.766,374.032 L 625.732,374.027 L 625.697,374.025 L 625.662,374.025 L 625.627,374.029 L 625.593,374.036 L 625.559,374.045 L 625.526,374.058 L 625.495,374.073 L 625.465,374.091 L 625.437,374.112 L 625.41,374.134 L 625.386,374.159 L 625.363,374.186 L 625.344,374.215 L 625.326,374.246 L 625.312,374.277 L 625.3,374.31 L 625.291,374.344 L 625.285,374.379 L 625.282,374.413 L 625.282,374.448 L 625.285,374.483 L 625.291,374.518 L 625.3,374.551 L 625.312,374.584 L 625.326,374.616 L 625.344,374.647 L 625.363,374.675 L 625.386,374.702 L 625.41,374.727 L 625.437,374.75 L 625.465,374.771 L 625.495,374.789 L 625.526,374.804 L 625.559,374.816 L 625.593,374.826 L 625.627,374.833 L 625.662,374.837 L 625.697,374.837 L 625.732,374.835 L 625.766,374.83 L 625.8,374.822 L 625.833,374.81 L 625.866,374.797 L 625.896,374.78 L 625.926,374.761 L 625.953,374.739 L 625.979,374.715 L 626.002,374.689 L 626.023,374.661 L 626.042,374.632 L 626.057,374.6 L 626.071,374.568 L 626.081,374.535 L 626.089,374.501 L 626.093,374.466 L 626.095,374.431 L 625.688,374.431 Z" style="fill:#000000;fill-rule:evenodd;fill-opacity:1;stroke:#000000;stroke-width:0.0px;stroke-linecap:butt;stroke-linejoin:miter;stroke-opacity:1;"/>
<path class="bond-0 atom-0 atom-1" d="M 48.8706,621.196 L 55.4207,624.978" style="fill:none;fill-rule:evenodd;stroke:#33CCCC;stroke-width:2.0px;stroke-linecap:butt;stroke-linejoin:miter;stroke-opacity:1"/>
<path class="bond-0 atom-0 atom-1" d="M 55.4207,624.978 L 61.9708,628.759" style="fill:none;fill-rule:evenodd;stroke:#FF7F00;stroke-width:2.0px;stroke-linecap:butt;stroke-linejoin:miter;stroke-opacity:1"/>
<path class="bond-1 atom-1 atom-2" d="M 66.5975,628.722 L 73.0823,624.978" style="fill:none;fill-rule:evenodd;stroke:#FF7F00;stroke-width:2.0px;stroke-linecap:butt;stroke-linejoin:miter;stroke-opacity:1"/>
<path class="bond-1 atom-1 atom-2" d="M 73.0823,624.978 L 79.5672,621.234" style="fill:none;fill-rule:evenodd;stroke:#CCCC00;stroke-width:2.0px;stroke-linecap:butt;stroke-linejoin:miter;stroke-opacity:1"/>
<path class="bond-2 atom-2 atom-3" d="M 84.2064,621.273 L 90.289,624.785" style="fill:none;fill-rule:evenodd;stroke:#CCCC00;stroke-width:2.0px;stroke-linecap:butt;stroke-linejoin:miter;stroke-opacity:1"/>
<path class="bond-2 atom-2 atom-3" d="M 90.289,624.785 L 96.3715,628.297" style="fill:none;fill-rule:evenodd;stroke:#FF0000;stroke-width:2.0px;stroke-linecap:butt;stroke-linejoin:miter;stroke-opacity:1"/>
<path class="bond-3 atom-3 atom-4" d="M 105.448,626.615 L 109.992,623.992" style="fill:none;fill-rule:evenodd;stroke:#FF0000;stroke-width:2.0px;stroke-linecap:butt;stroke-linejoin:miter;stroke-opacity:1"/>
<path class="bond-3 atom-3 atom-4" d="M 109.992,623.992 L 114.537,621.368" style="fill:none;fill-rule:evenodd;stroke:#0000FF;stroke-width:2.0px;stroke-linecap:butt;stroke-linejoin:miter;stroke-opacity:1"/>
<path class="bond-4 atom-4 atom-5" d="M 119.745,621.468 L 132.042,628.568" style="fill:none;fill-rule:evenodd;stroke:#0000FF;stroke-width:2.0px;stroke-linecap:butt;stroke-linejoin:miter;stroke-opacity:1"/>
<path class="bond-5 atom-5 atom-6" d="M 138.872,627.642 L 144.452,624.42" style="fill:none;fill-rule:evenodd;stroke:#0000FF;stroke-width:2.0px;stroke-linecap:butt;stroke-linejoin:miter;stroke-opacity:1"/>
<path class="bond-5 atom-5 atom-6" d="M 144.452,624.42 L 150.033,621.198" style="fill:none;fill-rule:evenodd;stroke:#FF7F00;stroke-width:2.0px;stroke-linecap:butt;stroke-linejoin:miter;stroke-opacity:1"/>
<path class="bond-6 atom-6 atom-7" d="M 154.602,621.269 L 162.229,625.672" style="fill:none;fill-rule:evenodd;stroke:#FF7F00;stroke-width:2.0px;stroke-linecap:butt;stroke-linejoin:miter;stroke-opacity:1"/>
<path class="bond-6 atom-6 atom-7" d="M 162.229,625.672 L 169.857,630.076" style="fill:none;fill-rule:evenodd;stroke:#000000;stroke-width:2.0px;stroke-linecap:butt;stroke-linejoin:miter;stroke-opacity:1"/>
<path class="bond-7 atom-7 atom-8" d="M 170.873,631.836 L 178.328,627.532" style="fill:none;fill-rule:evenodd;stroke:#000000;stroke-width:2.0px;stroke-linecap:butt;stroke-linejoin:miter;stroke-opacity:1"/>
<path class="bond-7 atom-7 atom-8" d="M 178.328,627.532 L 185.783,623.228" style="fill:none;fill-rule:evenodd;stroke:#0000FF;stroke-width:2.0px;stroke-linecap:butt;stroke-linejoin:miter;stroke-opacity:1"/>
<path class="bond-7 atom-7 atom-8" d="M 168.841,628.316 L 176.296,624.012" style="fill:none;fill-rule:evenodd;stroke:#000000;stroke-width:2.0px;stroke-linecap:butt;stroke-linejoin:miter;stroke-opacity:1"/>
<path class="bond-7 atom-7 atom-8" d="M 176.296,624.012 L 183.751,619.708" style="fill:none;fill-rule:evenodd;stroke:#0000FF;stroke-width:2.0px;stroke-linecap:butt;stroke-linejoin:miter;stroke-opacity:1"/>
<path class="atom-0" d="M 44.94 617.037 L 48.3626 617.037 L 48.3626 617.695 L 45.7123 617.695 L 45.7123 619.443 L 48.0699 619.443 L 48.0699 620.11 L 45.7123 620.11 L 45.7123 622.792 L 44.94 622.792 L 44.94 617.037 " fill="#33CCCC"/>
<path class="atom-1" d="M 64.1139 627.199 Q 65.0976 627.199, 65.5935 627.646 Q 66.0894 628.085, 66.0894 628.889 Q 66.0894 629.686, 65.5772 630.141 Q 65.0732 630.589, 64.1139 630.589 L 63.1953 630.589 L 63.1953 632.954 L 62.4149 632.954 L 62.4149 627.199 L 64.1139 627.199 M 64.1139 629.938 Q 64.6748 629.938, 64.9756 629.67 Q 65.2764 629.402, 65.2764 628.889 Q 65.2764 628.377, 64.9756 628.117 Q 64.683 627.849, 64.1139 627.849 L 63.1953 627.849 L 63.1953 629.938 L 64.1139 629.938 " fill="#FF7F00"/>
<path class="atom-1" d="M 62.0003 633.53 L 62.7807 633.53 L 62.7807 635.977 L 65.7235 635.977 L 65.7235 633.53 L 66.504 633.53 L 66.504 639.285 L 65.7235 639.285 L 65.7235 636.627 L 62.7807 636.627 L 62.7807 639.285 L 62.0003 639.285 L 62.0003 633.53 " fill="#FF7F00"/>
<path class="atom-2" d="M 80.227 621.89 Q 80.2921 621.914, 80.5603 622.028 Q 80.8286 622.142, 81.1213 622.215 Q 81.4221 622.28, 81.7147 622.28 Q 82.2594 622.28, 82.5765 622.02 Q 82.8935 621.752, 82.8935 621.288 Q 82.8935 620.971, 82.7309 620.776 Q 82.5765 620.581, 82.3326 620.475 Q 82.0887 620.37, 81.6822 620.248 Q 81.1701 620.093, 80.8611 619.947 Q 80.5603 619.801, 80.3408 619.492 Q 80.1295 619.183, 80.1295 618.663 Q 80.1295 617.939, 80.6172 617.492 Q 81.1131 617.045, 82.0887 617.045 Q 82.7553 617.045, 83.5113 617.362 L 83.3244 617.988 Q 82.6334 617.703, 82.1131 617.703 Q 81.5521 617.703, 81.2432 617.939 Q 80.9343 618.167, 80.9424 618.565 Q 80.9424 618.874, 81.0969 619.061 Q 81.2595 619.248, 81.4871 619.354 Q 81.7229 619.459, 82.1131 619.581 Q 82.6334 619.744, 82.9423 619.906 Q 83.2512 620.069, 83.4707 620.402 Q 83.6983 620.727, 83.6983 621.288 Q 83.6983 622.085, 83.1618 622.516 Q 82.6334 622.939, 81.7472 622.939 Q 81.2351 622.939, 80.8449 622.825 Q 80.4628 622.719, 80.0075 622.532 L 80.227 621.89 " fill="#CCCC00"/>
<path class="atom-2" d="M 83.9666 617.911 L 85.9357 617.911 L 85.9357 618.34 L 83.9666 618.34 L 83.9666 617.911 " fill="#CCCC00"/>
<path class="atom-3" d="M 96.8117 630.093 Q 96.8117 628.711, 97.4945 627.938 Q 98.1774 627.166, 99.4537 627.166 Q 100.73 627.166, 101.413 627.938 Q 102.096 628.711, 102.096 630.093 Q 102.096 631.491, 101.405 632.288 Q 100.714 633.076, 99.4537 633.076 Q 98.1855 633.076, 97.4945 632.288 Q 96.8117 631.499, 96.8117 630.093 M 99.4537 632.426 Q 100.332 632.426, 100.803 631.84 Q 101.283 631.247, 101.283 630.093 Q 101.283 628.963, 100.803 628.394 Q 100.332 627.816, 99.4537 627.816 Q 98.5758 627.816, 98.0961 628.385 Q 97.6246 628.954, 97.6246 630.093 Q 97.6246 631.255, 98.0961 631.84 Q 98.5758 632.426, 99.4537 632.426 " fill="#FF0000"/>
<path class="atom-3" d="M 102.579 628.191 L 103.593 628.191 L 103.593 627.124 L 104.043 627.124 L 104.043 628.191 L 105.084 628.191 L 105.084 628.578 L 104.043 628.578 L 104.043 629.651 L 103.593 629.651 L 103.593 628.578 L 102.579 628.578 L 102.579 628.191 " fill="#FF0000"/>
<path class="atom-4" d="M 115.782 617.037 L 117.668 620.085 Q 117.855 620.386, 118.156 620.931 Q 118.457 621.475, 118.473 621.508 L 118.473 617.037 L 119.237 617.037 L 119.237 622.792 L 118.449 622.792 L 116.425 619.459 Q 116.189 619.069, 115.937 618.622 Q 115.693 618.175, 115.62 618.037 L 115.62 622.792 L 114.872 622.792 L 114.872 617.037 L 115.782 617.037 " fill="#0000FF"/>
<path class="atom-4" d="M 114.803 610.705 L 115.583 610.705 L 115.583 613.152 L 118.526 613.152 L 118.526 610.705 L 119.306 610.705 L 119.306 616.461 L 118.526 616.461 L 118.526 613.803 L 115.583 613.803 L 115.583 616.461 L 114.803 616.461 L 114.803 610.705 " fill="#0000FF"/>
<path class="atom-5" d="M 133.383 627.199 L 135.269 630.247 Q 135.456 630.548, 135.757 631.093 Q 136.058 631.637, 136.074 631.67 L 136.074 627.199 L 136.838 627.199 L 136.838 632.954 L 136.05 632.954 L 134.025 629.621 Q 133.79 629.231, 133.538 628.784 Q 133.294 628.337, 133.221 628.198 L 133.221 632.954 L 132.473 632.954 L 132.473 627.199 L 133.383 627.199 " fill="#0000FF"/>
<path class="atom-5" d="M 137.106 628.15 L 139.076 628.15 L 139.076 628.579 L 137.106 628.579 L 137.106 628.15 " fill="#0000FF"/>
<path class="atom-6" d="M 152.118 617.037 Q 153.102 617.037, 153.598 617.484 Q 154.093 617.923, 154.093 618.728 Q 154.093 619.524, 153.581 619.98 Q 153.077 620.427, 152.118 620.427 L 151.199 620.427 L 151.199 622.792 L 150.419 622.792 L 150.419 617.037 L 152.118 617.037 M 152.118 619.776 Q 152.679 619.776, 152.98 619.508 Q 153.28 619.24, 153.28 618.728 Q 153.28 618.215, 152.98 617.955 Q 152.687 617.687, 152.118 617.687 L 151.199 617.687 L 151.199 619.776 L 152.118 619.776 " fill="#FF7F00"/>
<path class="atom-6" d="M 154.576 618.074 L 155.59 618.074 L 155.59 617.006 L 156.041 617.006 L 156.041 618.074 L 157.082 618.074 L 157.082 618.46 L 156.041 618.46 L 156.041 619.534 L 155.59 619.534 L 155.59 618.46 L 154.576 618.46 L 154.576 618.074 " fill="#FF7F00"/>
<path class="atom-8" d="M 186.186 617.037 L 188.072 620.085 Q 188.259 620.386, 188.559 620.931 Q 188.86 621.475, 188.876 621.508 L 188.876 617.037 L 189.641 617.037 L 189.641 622.792 L 188.852 622.792 L 186.828 619.459 Q 186.592 619.069, 186.34 618.622 Q 186.096 618.175, 186.023 618.037 L 186.023 622.792 L 185.275 622.792 L 185.275 617.037 L 186.186 617.037 " fill="#0000FF"/>
<path class="atom-8" d="M 190.332 617.037 L 191.112 617.037 L 191.112 619.484 L 194.055 619.484 L 194.055 617.037 L 194.835 617.037 L 194.835 622.792 L 194.055 622.792 L 194.055 620.134 L 191.112 620.134 L 191.112 622.792 L 190.332 622.792 L 190.332 617.037 " fill="#0000FF"/>
<path class="atom-8" d="M 195.114 622.59 Q 195.254 622.231, 195.586 622.032 Q 195.919 621.829, 196.381 621.829 Q 196.955 621.829, 197.277 622.14 Q 197.599 622.451, 197.599 623.004 Q 197.599 623.567, 197.18 624.093 Q 196.767 624.619, 195.908 625.241 L 197.663 625.241 L 197.663 625.67 L 195.104 625.67 L 195.104 625.311 Q 195.812 624.806, 196.23 624.431 Q 196.654 624.055, 196.858 623.717 Q 197.062 623.379, 197.062 623.03 Q 197.062 622.666, 196.88 622.462 Q 196.697 622.258, 196.381 622.258 Q 196.075 622.258, 195.871 622.381 Q 195.667 622.505, 195.522 622.778 L 195.114 622.59 " fill="#0000FF"/>
<path class="atom-8" d="M 195.318 618.074 L 196.332 618.074 L 196.332 617.006 L 196.783 617.006 L 196.783 618.074 L 197.824 618.074 L 197.824 618.46 L 196.783 618.46 L 196.783 619.534 L 196.332 619.534 L 196.332 618.46 L 195.318 618.46 L 195.318 618.074 " fill="#0000FF"/>
<path d="M 82.2594,616.435 L 82.2579,616.4 L 82.2534,616.365 L 82.2459,616.331 L 82.2355,616.298 L 82.2223,616.266 L 82.2064,616.234 L 82.1878,616.205 L 82.1668,616.177 L 82.1434,616.151 L 82.1179,616.127 L 82.0904,616.105 L 82.0612,616.086 L 82.0304,616.069 L 81.9983,616.056 L 81.9652,616.044 L 81.9312,616.036 L 81.8966,616.031 L 81.8617,616.029 L 81.8267,616.029 L 81.7919,616.033 L 81.7576,616.04 L 81.724,616.05 L 81.6913,616.062 L 81.6599,616.077 L 81.6298,616.095 L 81.6015,616.116 L 81.5749,616.139 L 81.5505,616.164 L 81.5282,616.191 L 81.5084,616.219 L 81.4912,616.25 L 81.4766,616.282 L 81.4648,616.314 L 81.4558,616.348 L 81.4498,616.383 L 81.4468,616.418 L 81.4468,616.453 L 81.4498,616.487 L 81.4558,616.522 L 81.4648,616.556 L 81.4766,616.589 L 81.4912,616.62 L 81.5084,616.651 L 81.5282,616.68 L 81.5505,616.707 L 81.5749,616.732 L 81.6015,616.754 L 81.6298,616.775 L 81.6599,616.793 L 81.6913,616.808 L 81.724,616.821 L 81.7576,616.83 L 81.7919,616.837 L 81.8267,616.841 L 81.8617,616.841 L 81.8966,616.839 L 81.9312,616.834 L 81.9652,616.826 L 81.9983,616.815 L 82.0304,616.801 L 82.0612,616.784 L 82.0904,616.765 L 82.1179,616.743 L 82.1434,616.719 L 82.1668,616.693 L 82.1878,616.665 L 82.2064,616.636 L 82.2223,616.605 L 82.2355,616.572 L 82.2459,616.539 L 82.2534,616.505 L 82.2579,616.47 L 82.2594,616.435 L 81.8529,616.435 Z" style="fill:#000000;fill-rule:evenodd;fill-opacity:1;stroke:#000000;stroke-width:0.0px;stroke-linecap:butt;stroke-linejoin:miter;stroke-opacity:1;"/>
<path d="M 99.8602,633.686 L 99.8587,633.651 L 99.8542,633.616 L 99.8467,633.582 L 99.8364,633.549 L 99.8232,633.516 L 99.8072,633.485 L 99.7886,633.455 L 99.7676,633.428 L 99.7442,633.402 L 99.7187,633.378 L 99.6912,633.356 L 99.662,633.337 L 99.6312,633.32 L 99.5991,633.306 L 99.566,633.295 L 99.532,633.287 L 99.4974,633.282 L 99.4625,633.279 L 99.4275,633.28 L 99.3927,633.284 L 99.3584,633.291 L 99.3248,633.3 L 99.2922,633.313 L 99.2607,633.328 L 99.2307,633.346 L 99.2023,633.366 L 99.1757,633.389 L 99.1513,633.414 L 99.1291,633.441 L 99.1092,633.47 L 99.092,633.501 L 99.0774,633.532 L 99.0656,633.565 L 99.0566,633.599 L 99.0507,633.634 L 99.0476,633.668 L 99.0476,633.703 L 99.0507,633.738 L 99.0566,633.773 L 99.0656,633.806 L 99.0774,633.839 L 99.092,633.871 L 99.1092,633.902 L 99.1291,633.93 L 99.1513,633.957 L 99.1757,633.982 L 99.2023,634.005 L 99.2307,634.026 L 99.2607,634.044 L 99.2922,634.059 L 99.3248,634.071 L 99.3584,634.081 L 99.3927,634.088 L 99.4275,634.091 L 99.4625,634.092 L 99.4974,634.09 L 99.532,634.085 L 99.566,634.077 L 99.5991,634.065 L 99.6312,634.052 L 99.662,634.035 L 99.6912,634.016 L 99.7187,633.994 L 99.7442,633.97 L 99.7676,633.944 L 99.7886,633.916 L 99.8072,633.887 L 99.8232,633.855 L 99.8364,633.823 L 99.8467,633.79 L 99.8542,633.755 L 99.8587,633.721 L 99.8602,633.686 L 99.4537,633.686 Z" style="fill:#000000;fill-rule:evenodd;fill-opacity:1;stroke:#000000;stroke-width:0.0px;stroke-linecap:butt;stroke-linejoin:miter;stroke-opacity:1;"/>
<path d="M 153.476,616.397 L 153.474,616.362 L 153.47,616.327 L 153.462,616.293 L 153.452,616.26 L 153.439,616.227 L 153.423,616.196 L 153.404,616.166 L 153.383,616.138 L 153.36,616.112 L 153.334,616.089 L 153.307,616.067 L 153.277,616.048 L 153.247,616.031 L 153.215,616.017 L 153.181,616.006 L 153.147,615.998 L 153.113,615.993 L 153.078,615.99 L 153.043,615.991 L 153.008,615.995 L 152.974,616.002 L 152.94,616.011 L 152.908,616.024 L 152.876,616.039 L 152.846,616.057 L 152.818,616.077 L 152.791,616.1 L 152.767,616.125 L 152.744,616.152 L 152.725,616.181 L 152.707,616.211 L 152.693,616.243 L 152.681,616.276 L 152.672,616.31 L 152.666,616.344 L 152.663,616.379 L 152.663,616.414 L 152.666,616.449 L 152.672,616.484 L 152.681,616.517 L 152.693,616.55 L 152.707,616.582 L 152.725,616.612 L 152.744,616.641 L 152.767,616.668 L 152.791,616.693 L 152.818,616.716 L 152.846,616.737 L 152.876,616.754 L 152.908,616.77 L 152.94,616.782 L 152.974,616.792 L 153.008,616.799 L 153.043,616.802 L 153.078,616.803 L 153.113,616.801 L 153.147,616.796 L 153.181,616.787 L 153.215,616.776 L 153.247,616.762 L 153.277,616.746 L 153.307,616.727 L 153.334,616.705 L 153.36,616.681 L 153.383,616.655 L 153.404,616.627 L 153.423,616.597 L 153.439,616.566 L 153.452,616.534 L 153.462,616.501 L 153.47,616.466 L 153.474,616.432 L 153.476,616.397 L 153.069,616.397 Z" style="fill:#000000;fill-rule:evenodd;fill-opacity:1;stroke:#000000;stroke-width:0.0px;stroke-linecap:butt;stroke-linejoin:miter;stroke-opacity:1;"/>
<path d="M 151.85,616.397 L 151.848,616.362 L 151.844,616.327 L 151.836,616.293 L 151.826,616.26 L 151.813,616.227 L 151.797,616.196 L 151.778,616.166 L 151.757,616.138 L 151.734,616.112 L 151.708,616.089 L 151.681,616.067 L 151.652,616.048 L 151.621,616.031 L 151.589,616.017 L 151.555,616.006 L 151.521,615.998 L 151.487,615.993 L 151.452,615.99 L 151.417,615.991 L 151.382,615.995 L 151.348,616.002 L 151.314,616.011 L 151.282,616.024 L 151.25,616.039 L 151.22,616.057 L 151.192,616.077 L 151.165,616.1 L 151.141,616.125 L 151.119,616.152 L 151.099,616.181 L 151.081,616.211 L 151.067,616.243 L 151.055,616.276 L 151.046,616.31 L 151.04,616.344 L 151.037,616.379 L 151.037,616.414 L 151.04,616.449 L 151.046,616.484 L 151.055,616.517 L 151.067,616.55 L 151.081,616.582 L 151.099,616.612 L 151.119,616.641 L 151.141,616.668 L 151.165,616.693 L 151.192,616.716 L 151.22,616.737 L 151.25,616.754 L 151.282,616.77 L 151.314,616.782 L 151.348,616.792 L 151.382,616.799 L 151.417,616.802 L 151.452,616.803 L 151.487,616.801 L 151.521,616.796 L 151.555,616.787 L 151.589,616.776 L 151.621,616.762 L 151.652,616.746 L 151.681,616.727 L 151.708,616.705 L 151.734,616.681 L 151.757,616.655 L 151.778,616.627 L 151.797,616.597 L 151.813,616.566 L 151.826,616.534 L 151.836,616.501 L 151.844,616.466 L 151.848,616.432 L 151.85,616.397 L 151.443,616.397 Z" style="fill:#000000;fill-rule:evenodd;fill-opacity:1;stroke:#000000;stroke-width:0.0px;stroke-linecap:butt;stroke-linejoin:miter;stroke-opacity:1;"/>
<path class="bond-0 atom-0 atom-1" d="M 360.043,626.463 L 374.145,626.463" style="fill:none;fill-rule:evenodd;stroke:#FF0000;stroke-width:2.0px;stroke-linecap:butt;stroke-linejoin:miter;stroke-opacity:1"/>
<path class="bond-0 atom-0 atom-1" d="M 360.043,622.399 L 374.145,622.399" style="fill:none;fill-rule:evenodd;stroke:#FF0000;stroke-width:2.0px;stroke-linecap:butt;stroke-linejoin:miter;stroke-opacity:1"/>
<path class="atom-0" d="M 354.251 624.447 Q 354.251 623.065, 354.934 622.293 Q 355.616 621.521, 356.893 621.521 Q 358.169 621.521, 358.852 622.293 Q 359.535 623.065, 359.535 624.447 Q 359.535 625.845, 358.844 626.642 Q 358.153 627.431, 356.893 627.431 Q 355.625 627.431, 354.934 626.642 Q 354.251 625.854, 354.251 624.447 M 356.893 626.78 Q 357.771 626.78, 358.242 626.195 Q 358.722 625.602, 358.722 624.447 Q 358.722 623.317, 358.242 622.748 Q 357.771 622.171, 356.893 622.171 Q 356.015 622.171, 355.535 622.74 Q 355.064 623.309, 355.064 624.447 Q 355.064 625.61, 355.535 626.195 Q 356.015 626.78, 356.893 626.78 " fill="#FF0000"/>
<path class="atom-1" d="M 374.574 624.447 Q 374.574 623.065, 375.257 622.293 Q 375.94 621.521, 377.216 621.521 Q 378.493 621.521, 379.176 622.293 Q 379.858 623.065, 379.858 624.447 Q 379.858 625.845, 379.167 626.642 Q 378.476 627.431, 377.216 627.431 Q 375.948 627.431, 375.257 626.642 Q 374.574 625.854, 374.574 624.447 M 377.216 626.78 Q 378.094 626.78, 378.566 626.195 Q 379.046 625.602, 379.046 624.447 Q 379.046 623.317, 378.566 622.748 Q 378.094 622.171, 377.216 622.171 Q 376.338 622.171, 375.859 622.74 Q 375.387 623.309, 375.387 624.447 Q 375.387 625.61, 375.859 626.195 Q 376.338 626.78, 377.216 626.78 " fill="#FF0000"/>
<path class="atom-1" d="M 380.549 621.586 L 381.33 621.586 L 381.33 624.033 L 384.273 624.033 L 384.273 621.586 L 385.053 621.586 L 385.053 627.341 L 384.273 627.341 L 384.273 624.683 L 381.33 624.683 L 381.33 627.341 L 380.549 627.341 L 380.549 621.586 " fill="#FF0000"/>
<path class="atom-1" d="M 385.536 622.623 L 386.55 622.623 L 386.55 621.555 L 387.001 621.555 L 387.001 622.623 L 388.042 622.623 L 388.042 623.009 L 387.001 623.009 L 387.001 624.082 L 386.55 624.082 L 386.55 623.009 L 385.536 623.009 L 385.536 622.623 " fill="#FF0000"/>
<path class="bond-0 atom-0 atom-1" d="M 663.111,653.858 L 669.49,649.496" style="fill:none;fill-rule:evenodd;stroke:#A01EEF;stroke-width:2.0px;stroke-linecap:butt;stroke-linejoin:miter;stroke-opacity:1"/>
<path class="bond-0 atom-0 atom-1" d="M 669.49,649.496 L 675.87,645.134" style="fill:none;fill-rule:evenodd;stroke:#FF0000;stroke-width:2.0px;stroke-linecap:butt;stroke-linejoin:miter;stroke-opacity:1"/>
<path class="bond-1 atom-1 atom-2" d="M 678.732,639.58 L 678.221,632.88" style="fill:none;fill-rule:evenodd;stroke:#FF0000;stroke-width:2.0px;stroke-linecap:butt;stroke-linejoin:miter;stroke-opacity:1"/>
<path class="bond-1 atom-1 atom-2" d="M 678.221,632.88 L 677.709,626.18" style="fill:none;fill-rule:evenodd;stroke:#CCCC00;stroke-width:2.0px;stroke-linecap:butt;stroke-linejoin:miter;stroke-opacity:1"/>
<path class="bond-2 atom-2 atom-3" d="M 686.827,617.14 L 686.062,616.021" style="fill:none;fill-rule:evenodd;stroke:#CCCC00;stroke-width:1.0px;stroke-linecap:butt;stroke-linejoin:miter;stroke-opacity:1"/>
<path class="bond-2 atom-2 atom-3" d="M 691.098,615.04 L 689.569,612.803" style="fill:none;fill-rule:evenodd;stroke:#000000;stroke-width:1.0px;stroke-linecap:butt;stroke-linejoin:miter;stroke-opacity:1"/>
<path class="bond-2 atom-2 atom-3" d="M 695.37,612.939 L 693.075,609.584" style="fill:none;fill-rule:evenodd;stroke:#000000;stroke-width:1.0px;stroke-linecap:butt;stroke-linejoin:miter;stroke-opacity:1"/>
<path class="bond-3 atom-2 atom-4" d="M 675.093,621.604 L 668.421,618.402" style="fill:none;fill-rule:evenodd;stroke:#CCCC00;stroke-width:2.0px;stroke-linecap:butt;stroke-linejoin:miter;stroke-opacity:1"/>
<path class="bond-3 atom-2 atom-4" d="M 668.421,618.402 L 661.749,615.2" style="fill:none;fill-rule:evenodd;stroke:#0000FF;stroke-width:2.0px;stroke-linecap:butt;stroke-linejoin:miter;stroke-opacity:1"/>
<path class="bond-4 atom-4 atom-5" d="M 656.432,615.781 L 647.223,622.078" style="fill:none;fill-rule:evenodd;stroke:#0000FF;stroke-width:2.0px;stroke-linecap:butt;stroke-linejoin:miter;stroke-opacity:1"/>
<path class="bond-5 atom-5 atom-6" d="M 639.656,624.121 L 632.975,620.915" style="fill:none;fill-rule:evenodd;stroke:#0000FF;stroke-width:2.0px;stroke-linecap:butt;stroke-linejoin:miter;stroke-opacity:1"/>
<path class="bond-5 atom-5 atom-6" d="M 632.975,620.915 L 626.294,617.709" style="fill:none;fill-rule:evenodd;stroke:#FF7F00;stroke-width:2.0px;stroke-linecap:butt;stroke-linejoin:miter;stroke-opacity:1"/>
<path class="bond-6 atom-6 atom-7" d="M 623.282,606.902 L 622.999,603.2" style="fill:none;fill-rule:evenodd;stroke:#FF7F00;stroke-width:2.0px;stroke-linecap:butt;stroke-linejoin:miter;stroke-opacity:1"/>
<path class="bond-6 atom-6 atom-7" d="M 622.999,603.2 L 622.717,599.497" style="fill:none;fill-rule:evenodd;stroke:#0000FF;stroke-width:2.0px;stroke-linecap:butt;stroke-linejoin:miter;stroke-opacity:1"/>
<path class="bond-7 atom-6 atom-8" d="M 621.678,618.223 L 614.463,623.157" style="fill:none;fill-rule:evenodd;stroke:#FF7F00;stroke-width:2.0px;stroke-linecap:butt;stroke-linejoin:miter;stroke-opacity:1"/>
<path class="bond-7 atom-6 atom-8" d="M 614.463,623.157 L 607.247,628.091" style="fill:none;fill-rule:evenodd;stroke:#000000;stroke-width:2.0px;stroke-linecap:butt;stroke-linejoin:miter;stroke-opacity:1"/>
<path class="bond-8 atom-8 atom-9" d="M 607.247,628.091 L 599.661,624.451" style="fill:none;fill-rule:evenodd;stroke:#000000;stroke-width:2.0px;stroke-linecap:butt;stroke-linejoin:miter;stroke-opacity:1"/>
<path class="bond-8 atom-8 atom-9" d="M 599.661,624.451 L 592.074,620.81" style="fill:none;fill-rule:evenodd;stroke:#FF0000;stroke-width:2.0px;stroke-linecap:butt;stroke-linejoin:miter;stroke-opacity:1"/>
<path class="bond-9 atom-9 atom-10" d="M 585.774,621.452 L 581.389,624.451" style="fill:none;fill-rule:evenodd;stroke:#FF0000;stroke-width:2.0px;stroke-linecap:butt;stroke-linejoin:miter;stroke-opacity:1"/>
<path class="bond-9 atom-9 atom-10" d="M 581.389,624.451 L 577.004,627.449" style="fill:none;fill-rule:evenodd;stroke:#0000FF;stroke-width:2.0px;stroke-linecap:butt;stroke-linejoin:miter;stroke-opacity:1"/>
<path class="bond-10 atom-10 atom-11" d="M 569.457,629.479 L 561.641,625.728" style="fill:none;fill-rule:evenodd;stroke:#0000FF;stroke-width:2.0px;stroke-linecap:butt;stroke-linejoin:miter;stroke-opacity:1"/>
<path class="bond-10 atom-10 atom-11" d="M 561.641,625.728 L 553.824,621.977" style="fill:none;fill-rule:evenodd;stroke:#000000;stroke-width:2.0px;stroke-linecap:butt;stroke-linejoin:miter;stroke-opacity:1"/>
<path class="bond-11 atom-11 atom-12" d="M 553.824,621.977 L 537.048,633.449" style="fill:none;fill-rule:evenodd;stroke:#000000;stroke-width:2.0px;stroke-linecap:butt;stroke-linejoin:miter;stroke-opacity:1"/>
<path class="bond-12 atom-12 atom-13" d="M 537.048,633.449 L 529.232,629.698" style="fill:none;fill-rule:evenodd;stroke:#000000;stroke-width:2.0px;stroke-linecap:butt;stroke-linejoin:miter;stroke-opacity:1"/>
<path class="bond-12 atom-12 atom-13" d="M 529.232,629.698 L 521.416,625.947" style="fill:none;fill-rule:evenodd;stroke:#0000FF;stroke-width:2.0px;stroke-linecap:butt;stroke-linejoin:miter;stroke-opacity:1"/>
<path class="atom-0" d="M 661.83 651.58 L 662.603 651.58 L 662.603 657.36 L 661.83 657.36 L 661.83 651.58 " fill="#A01EEF"/>
<path class="atom-1" d="M 676.351 643.014 Q 676.351 641.632, 677.034 640.86 Q 677.717 640.088, 678.993 640.088 Q 680.269 640.088, 680.952 640.86 Q 681.635 641.632, 681.635 643.014 Q 681.635 644.413, 680.944 645.209 Q 680.253 645.998, 678.993 645.998 Q 677.725 645.998, 677.034 645.209 Q 676.351 644.421, 676.351 643.014 M 678.993 645.348 Q 679.871 645.348, 680.342 644.762 Q 680.822 644.169, 680.822 643.014 Q 680.822 641.884, 680.342 641.315 Q 679.871 640.738, 678.993 640.738 Q 678.115 640.738, 677.635 641.307 Q 677.164 641.876, 677.164 643.014 Q 677.164 644.177, 677.635 644.762 Q 678.115 645.348, 678.993 645.348 " fill="#FF0000"/>
<path class="atom-1" d="M 682.326 640.153 L 683.106 640.153 L 683.106 642.6 L 686.049 642.6 L 686.049 640.153 L 686.83 640.153 L 686.83 645.909 L 686.049 645.909 L 686.049 643.25 L 683.106 643.25 L 683.106 645.909 L 682.326 645.909 L 682.326 640.153 " fill="#FF0000"/>
<path class="atom-1" d="M 687.313 641.19 L 688.327 641.19 L 688.327 640.123 L 688.777 640.123 L 688.777 641.19 L 689.818 641.19 L 689.818 641.577 L 688.777 641.577 L 688.777 642.65 L 688.327 642.65 L 688.327 641.577 L 687.313 641.577 L 687.313 641.19 " fill="#FF0000"/>
<path class="atom-2" d="M 675.82 624.709 Q 675.885 624.733, 676.154 624.847 Q 676.422 624.961, 676.715 625.034 Q 677.015 625.099, 677.308 625.099 Q 677.853 625.099, 678.17 624.839 Q 678.487 624.571, 678.487 624.107 Q 678.487 623.79, 678.324 623.595 Q 678.17 623.4, 677.926 623.294 Q 677.682 623.189, 677.275 623.067 Q 676.763 622.912, 676.454 622.766 Q 676.154 622.62, 675.934 622.311 Q 675.723 622.002, 675.723 621.481 Q 675.723 620.758, 676.21 620.311 Q 676.706 619.864, 677.682 619.864 Q 678.349 619.864, 679.105 620.181 L 678.918 620.807 Q 678.227 620.522, 677.706 620.522 Q 677.145 620.522, 676.836 620.758 Q 676.528 620.986, 676.536 621.384 Q 676.536 621.693, 676.69 621.88 Q 676.853 622.067, 677.08 622.172 Q 677.316 622.278, 677.706 622.4 Q 678.227 622.563, 678.536 622.725 Q 678.844 622.888, 679.064 623.221 Q 679.292 623.546, 679.292 624.107 Q 679.292 624.904, 678.755 625.335 Q 678.227 625.758, 677.34 625.758 Q 676.828 625.758, 676.438 625.644 Q 676.056 625.538, 675.601 625.351 L 675.82 624.709 " fill="#CCCC00"/>
<path class="atom-2" d="M 679.774 620.816 L 680.789 620.816 L 680.789 619.748 L 681.239 619.748 L 681.239 620.816 L 682.28 620.816 L 682.28 621.202 L 681.239 621.202 L 681.239 622.275 L 680.789 622.275 L 680.789 621.202 L 679.774 621.202 L 679.774 620.816 " fill="#CCCC00"/>
<path class="atom-4" d="M 657.851 611.063 L 659.737 614.111 Q 659.924 614.412, 660.225 614.957 Q 660.525 615.501, 660.542 615.534 L 660.542 611.063 L 661.306 611.063 L 661.306 616.818 L 660.517 616.818 L 658.493 613.485 Q 658.257 613.095, 658.005 612.648 Q 657.761 612.201, 657.688 612.063 L 657.688 616.818 L 656.94 616.818 L 656.94 611.063 L 657.851 611.063 " fill="#0000FF"/>
<path class="atom-4" d="M 656.871 604.731 L 657.652 604.731 L 657.652 607.178 L 660.594 607.178 L 660.594 604.731 L 661.375 604.731 L 661.375 610.487 L 660.594 610.487 L 660.594 607.829 L 657.652 607.829 L 657.652 610.487 L 656.871 610.487 L 656.871 604.731 " fill="#0000FF"/>
<path class="atom-4" d="M 661.654 610.285 Q 661.793 609.926, 662.126 609.727 Q 662.459 609.523, 662.92 609.523 Q 663.494 609.523, 663.816 609.834 Q 664.138 610.146, 664.138 610.698 Q 664.138 611.262, 663.72 611.788 Q 663.306 612.313, 662.448 612.936 L 664.203 612.936 L 664.203 613.365 L 661.643 613.365 L 661.643 613.005 Q 662.351 612.501, 662.77 612.126 Q 663.194 611.75, 663.398 611.412 Q 663.602 611.074, 663.602 610.725 Q 663.602 610.36, 663.419 610.156 Q 663.237 609.953, 662.92 609.953 Q 662.614 609.953, 662.41 610.076 Q 662.207 610.199, 662.062 610.473 L 661.654 610.285 " fill="#0000FF"/>
<path class="atom-4" d="M 661.858 605.769 L 662.872 605.769 L 662.872 604.701 L 663.323 604.701 L 663.323 605.769 L 664.363 605.769 L 664.363 606.155 L 663.323 606.155 L 663.323 607.228 L 662.872 607.228 L 662.872 606.155 L 661.858 606.155 L 661.858 605.769 " fill="#0000FF"/>
<path class="atom-5" d="M 641.074 622.535 L 642.96 625.583 Q 643.147 625.884, 643.448 626.429 Q 643.749 626.973, 643.765 627.006 L 643.765 622.535 L 644.529 622.535 L 644.529 628.29 L 643.741 628.29 L 641.717 624.957 Q 641.481 624.567, 641.229 624.12 Q 640.985 623.673, 640.912 623.534 L 640.912 628.29 L 640.164 628.29 L 640.164 622.535 L 641.074 622.535 " fill="#0000FF"/>
<path class="atom-5" d="M 645.012 623.572 L 646.026 623.572 L 646.026 622.504 L 646.477 622.504 L 646.477 623.572 L 647.518 623.572 L 647.518 623.958 L 646.477 623.958 L 646.477 625.031 L 646.026 625.031 L 646.026 623.958 L 645.012 623.958 L 645.012 623.572 " fill="#0000FF"/>
<path class="atom-5" d="M 640.095 628.866 L 640.875 628.866 L 640.875 631.313 L 643.818 631.313 L 643.818 628.866 L 644.598 628.866 L 644.598 634.621 L 643.818 634.621 L 643.818 631.963 L 640.875 631.963 L 640.875 634.621 L 640.095 634.621 L 640.095 628.866 " fill="#0000FF"/>
<path class="atom-5" d="M 644.877 634.419 Q 645.017 634.06, 645.35 633.861 Q 645.682 633.658, 646.144 633.658 Q 646.718 633.658, 647.04 633.969 Q 647.362 634.28, 647.362 634.833 Q 647.362 635.396, 646.943 635.922 Q 646.53 636.448, 645.672 637.07 L 647.426 637.07 L 647.426 637.499 L 644.867 637.499 L 644.867 637.14 Q 645.575 636.635, 645.993 636.26 Q 646.417 635.884, 646.621 635.546 Q 646.825 635.208, 646.825 634.859 Q 646.825 634.495, 646.643 634.291 Q 646.46 634.087, 646.144 634.087 Q 645.838 634.087, 645.634 634.21 Q 645.43 634.334, 645.285 634.607 L 644.877 634.419 " fill="#0000FF"/>
<path class="atom-6" d="M 623.885 613.742 Q 624.869 613.742, 625.365 614.189 Q 625.861 614.628, 625.861 615.433 Q 625.861 616.229, 625.349 616.684 Q 624.845 617.132, 623.885 617.132 L 622.967 617.132 L 622.967 619.497 L 622.186 619.497 L 622.186 613.742 L 623.885 613.742 M 623.885 616.481 Q 624.446 616.481, 624.747 616.213 Q 625.048 615.945, 625.048 615.433 Q 625.048 614.92, 624.747 614.66 Q 624.454 614.392, 623.885 614.392 L 622.967 614.392 L 622.967 616.481 L 623.885 616.481 " fill="#FF7F00"/>
<path class="atom-6" d="M 621.772 607.41 L 622.552 607.41 L 622.552 609.857 L 625.495 609.857 L 625.495 607.41 L 626.275 607.41 L 626.275 613.166 L 625.495 613.166 L 625.495 610.508 L 622.552 610.508 L 622.552 613.166 L 621.772 613.166 L 621.772 607.41 " fill="#FF7F00"/>
<path class="atom-6" d="M 626.554 612.964 Q 626.694 612.605, 627.027 612.406 Q 627.359 612.202, 627.821 612.202 Q 628.395 612.202, 628.717 612.513 Q 629.039 612.825, 629.039 613.377 Q 629.039 613.941, 628.62 614.466 Q 628.207 614.992, 627.348 615.615 L 629.103 615.615 L 629.103 616.044 L 626.544 616.044 L 626.544 615.684 Q 627.252 615.18, 627.67 614.804 Q 628.094 614.429, 628.298 614.091 Q 628.502 613.753, 628.502 613.404 Q 628.502 613.039, 628.32 612.835 Q 628.137 612.631, 627.821 612.631 Q 627.515 612.631, 627.311 612.755 Q 627.107 612.878, 626.962 613.152 L 626.554 612.964 " fill="#FF7F00"/>
<path class="atom-7" d="M 621.205 593.477 L 623.091 596.525 Q 623.278 596.826, 623.578 597.371 Q 623.879 597.916, 623.895 597.948 L 623.895 593.477 L 624.66 593.477 L 624.66 599.233 L 623.871 599.233 L 621.847 595.899 Q 621.611 595.509, 621.359 595.062 Q 621.115 594.615, 621.042 594.477 L 621.042 599.233 L 620.294 599.233 L 620.294 593.477 L 621.205 593.477 " fill="#0000FF"/>
<path class="atom-7" d="M 625.351 593.477 L 626.131 593.477 L 626.131 595.924 L 629.074 595.924 L 629.074 593.477 L 629.854 593.477 L 629.854 599.233 L 629.074 599.233 L 629.074 596.574 L 626.131 596.574 L 626.131 599.233 L 625.351 599.233 L 625.351 593.477 " fill="#0000FF"/>
<path class="atom-7" d="M 630.337 594.514 L 631.351 594.514 L 631.351 593.447 L 631.802 593.447 L 631.802 594.514 L 632.843 594.514 L 632.843 594.901 L 631.802 594.901 L 631.802 595.974 L 631.351 595.974 L 631.351 594.901 L 630.337 594.901 L 630.337 594.514 " fill="#0000FF"/>
<path class="atom-9" d="M 586.282 619.315 Q 586.282 617.933, 586.965 617.16 Q 587.648 616.388, 588.924 616.388 Q 590.2 616.388, 590.883 617.16 Q 591.566 617.933, 591.566 619.315 Q 591.566 620.713, 590.875 621.51 Q 590.184 622.298, 588.924 622.298 Q 587.656 622.298, 586.965 621.51 Q 586.282 620.721, 586.282 619.315 M 588.924 621.648 Q 589.802 621.648, 590.273 621.062 Q 590.753 620.469, 590.753 619.315 Q 590.753 618.185, 590.273 617.616 Q 589.802 617.038, 588.924 617.038 Q 588.046 617.038, 587.566 617.607 Q 587.095 618.176, 587.095 619.315 Q 587.095 620.477, 587.566 621.062 Q 588.046 621.648, 588.924 621.648 " fill="#FF0000"/>
<path class="atom-10" d="M 570.875 627.892 L 572.761 630.941 Q 572.948 631.242, 573.249 631.786 Q 573.55 632.331, 573.566 632.364 L 573.566 627.892 L 574.33 627.892 L 574.33 633.648 L 573.542 633.648 L 571.517 630.315 Q 571.282 629.925, 571.03 629.478 Q 570.786 629.03, 570.713 628.892 L 570.713 633.648 L 569.965 633.648 L 569.965 627.892 L 570.875 627.892 " fill="#0000FF"/>
<path class="atom-10" d="M 574.813 628.93 L 575.827 628.93 L 575.827 627.862 L 576.278 627.862 L 576.278 628.93 L 577.319 628.93 L 577.319 629.316 L 576.278 629.316 L 576.278 630.389 L 575.827 630.389 L 575.827 629.316 L 574.813 629.316 L 574.813 628.93 " fill="#0000FF"/>
<path class="atom-10" d="M 569.896 634.224 L 570.676 634.224 L 570.676 636.671 L 573.619 636.671 L 573.619 634.224 L 574.399 634.224 L 574.399 639.979 L 573.619 639.979 L 573.619 637.321 L 570.676 637.321 L 570.676 639.979 L 569.896 639.979 L 569.896 634.224 " fill="#0000FF"/>
<path class="atom-13" d="M 511.364 621.778 L 512.144 621.778 L 512.144 624.225 L 515.087 624.225 L 515.087 621.778 L 515.867 621.778 L 515.867 627.534 L 515.087 627.534 L 515.087 624.876 L 512.144 624.876 L 512.144 627.534 L 511.364 627.534 L 511.364 621.778 " fill="#0000FF"/>
<path class="atom-13" d="M 517.453 621.778 L 519.339 624.827 Q 519.526 625.128, 519.826 625.672 Q 520.127 626.217, 520.143 626.25 L 520.143 621.778 L 520.908 621.778 L 520.908 627.534 L 520.119 627.534 L 518.095 624.201 Q 517.859 623.811, 517.607 623.364 Q 517.363 622.916, 517.29 622.778 L 517.29 627.534 L 516.542 627.534 L 516.542 621.778 L 517.453 621.778 " fill="#0000FF"/>
<path class="atom-13" d="M 521.176 622.73 L 523.145 622.73 L 523.145 623.159 L 521.176 623.159 L 521.176 622.73 " fill="#0000FF"/>
<path d="M 697.068,610.449 L 697.066,610.414 L 697.062,610.379 L 697.054,610.345 L 697.044,610.311 L 697.031,610.279 L 697.015,610.248 L 696.996,610.218 L 696.975,610.19 L 696.952,610.164 L 696.926,610.14 L 696.899,610.119 L 696.87,610.1 L 696.839,610.083 L 696.807,610.069 L 696.774,610.058 L 696.74,610.05 L 696.705,610.045 L 696.67,610.042 L 696.635,610.043 L 696.6,610.047 L 696.566,610.054 L 696.533,610.063 L 696.5,610.076 L 696.468,610.091 L 696.438,610.109 L 696.41,610.129 L 696.383,610.152 L 696.359,610.177 L 696.337,610.204 L 696.317,610.233 L 696.3,610.263 L 696.285,610.295 L 696.273,610.328 L 696.264,610.362 L 696.258,610.396 L 696.255,610.431 L 696.255,610.466 L 696.258,610.501 L 696.264,610.535 L 696.273,610.569 L 696.285,610.602 L 696.3,610.634 L 696.317,610.664 L 696.337,610.693 L 696.359,610.72 L 696.383,610.745 L 696.41,610.768 L 696.438,610.788 L 696.468,610.806 L 696.5,610.822 L 696.533,610.834 L 696.566,610.844 L 696.6,610.851 L 696.635,610.854 L 696.67,610.855 L 696.705,610.853 L 696.74,610.848 L 696.774,610.839 L 696.807,610.828 L 696.839,610.814 L 696.87,610.798 L 696.899,610.779 L 696.926,610.757 L 696.952,610.733 L 696.975,610.707 L 696.996,610.679 L 697.015,610.649 L 697.031,610.618 L 697.044,610.586 L 697.054,610.552 L 697.062,610.518 L 697.066,610.484 L 697.068,610.449 L 696.661,610.449 Z" style="fill:#000000;fill-rule:evenodd;fill-opacity:1;stroke:#000000;stroke-width:0.0px;stroke-linecap:butt;stroke-linejoin:miter;stroke-opacity:1;"/>
<path d="M 697.068,612.075 L 697.066,612.04 L 697.062,612.005 L 697.054,611.971 L 697.044,611.937 L 697.031,611.905 L 697.015,611.874 L 696.996,611.844 L 696.975,611.816 L 696.952,611.79 L 696.926,611.766 L 696.899,611.745 L 696.87,611.725 L 696.839,611.709 L 696.807,611.695 L 696.774,611.684 L 696.74,611.676 L 696.705,611.67 L 696.67,611.668 L 696.635,611.669 L 696.6,611.673 L 696.566,611.679 L 696.533,611.689 L 696.5,611.702 L 696.468,611.717 L 696.438,611.735 L 696.41,611.755 L 696.383,611.778 L 696.359,611.803 L 696.337,611.83 L 696.317,611.859 L 696.3,611.889 L 696.285,611.921 L 696.273,611.954 L 696.264,611.988 L 696.258,612.022 L 696.255,612.057 L 696.255,612.092 L 696.258,612.127 L 696.264,612.161 L 696.273,612.195 L 696.285,612.228 L 696.3,612.26 L 696.317,612.29 L 696.337,612.319 L 696.359,612.346 L 696.383,612.371 L 696.41,612.394 L 696.438,612.414 L 696.468,612.432 L 696.5,612.448 L 696.533,612.46 L 696.566,612.47 L 696.6,612.476 L 696.635,612.48 L 696.67,612.481 L 696.705,612.479 L 696.74,612.473 L 696.774,612.465 L 696.807,612.454 L 696.839,612.44 L 696.87,612.424 L 696.899,612.404 L 696.926,612.383 L 696.952,612.359 L 696.975,612.333 L 696.996,612.305 L 697.015,612.275 L 697.031,612.244 L 697.044,612.212 L 697.054,612.178 L 697.062,612.144 L 697.066,612.109 L 697.068,612.075 L 696.661,612.075 Z" style="fill:#000000;fill-rule:evenodd;fill-opacity:1;stroke:#000000;stroke-width:0.0px;stroke-linecap:butt;stroke-linejoin:miter;stroke-opacity:1;"/>
<path d="M 634.469,595.542 L 634.467,595.507 L 634.463,595.472 L 634.455,595.438 L 634.445,595.405 L 634.432,595.372 L 634.416,595.341 L 634.397,595.311 L 634.376,595.283 L 634.353,595.257 L 634.327,595.234 L 634.3,595.212 L 634.271,595.193 L 634.24,595.176 L 634.208,595.162 L 634.175,595.151 L 634.141,595.143 L 634.106,595.138 L 634.071,595.135 L 634.036,595.136 L 634.001,595.14 L 633.967,595.147 L 633.933,595.156 L 633.901,595.169 L 633.869,595.184 L 633.839,595.202 L 633.811,595.222 L 633.784,595.245 L 633.76,595.27 L 633.738,595.297 L 633.718,595.326 L 633.701,595.356 L 633.686,595.388 L 633.674,595.421 L 633.665,595.455 L 633.659,595.489 L 633.656,595.524 L 633.656,595.559 L 633.659,595.594 L 633.665,595.629 L 633.674,595.662 L 633.686,595.695 L 633.701,595.727 L 633.718,595.757 L 633.738,595.786 L 633.76,595.813 L 633.784,595.838 L 633.811,595.861 L 633.839,595.882 L 633.869,595.899 L 633.901,595.915 L 633.933,595.927 L 633.967,595.937 L 634.001,595.944 L 634.036,595.947 L 634.071,595.948 L 634.106,595.946 L 634.141,595.941 L 634.175,595.932 L 634.208,595.921 L 634.24,595.907 L 634.271,595.891 L 634.3,595.872 L 634.327,595.85 L 634.353,595.826 L 634.376,595.8 L 634.397,595.772 L 634.416,595.742 L 634.432,595.711 L 634.445,595.679 L 634.455,595.646 L 634.463,595.611 L 634.467,595.577 L 634.469,595.542 L 634.062,595.542 Z" style="fill:#000000;fill-rule:evenodd;fill-opacity:1;stroke:#000000;stroke-width:0.0px;stroke-linecap:butt;stroke-linejoin:miter;stroke-opacity:1;"/>
<path d="M 634.469,597.168 L 634.467,597.133 L 634.463,597.098 L 634.455,597.064 L 634.445,597.03 L 634.432,596.998 L 634.416,596.967 L 634.397,596.937 L 634.376,596.909 L 634.353,596.883 L 634.327,596.859 L 634.3,596.838 L 634.271,596.819 L 634.24,596.802 L 634.208,596.788 L 634.175,596.777 L 634.141,596.769 L 634.106,596.764 L 634.071,596.761 L 634.036,596.762 L 634.001,596.766 L 633.967,596.773 L 633.933,596.782 L 633.901,596.795 L 633.869,596.81 L 633.839,596.828 L 633.811,596.848 L 633.784,596.871 L 633.76,596.896 L 633.738,596.923 L 633.718,596.952 L 633.701,596.982 L 633.686,597.014 L 633.674,597.047 L 633.665,597.081 L 633.659,597.115 L 633.656,597.15 L 633.656,597.185 L 633.659,597.22 L 633.665,597.254 L 633.674,597.288 L 633.686,597.321 L 633.701,597.353 L 633.718,597.383 L 633.738,597.412 L 633.76,597.439 L 633.784,597.464 L 633.811,597.487 L 633.839,597.507 L 633.869,597.525 L 633.901,597.541 L 633.933,597.553 L 633.967,597.563 L 634.001,597.57 L 634.036,597.573 L 634.071,597.574 L 634.106,597.572 L 634.141,597.567 L 634.175,597.558 L 634.208,597.547 L 634.24,597.533 L 634.271,597.517 L 634.3,597.498 L 634.327,597.476 L 634.353,597.452 L 634.376,597.426 L 634.397,597.398 L 634.416,597.368 L 634.432,597.337 L 634.445,597.305 L 634.455,597.271 L 634.463,597.237 L 634.467,597.203 L 634.469,597.168 L 634.062,597.168 Z" style="fill:#000000;fill-rule:evenodd;fill-opacity:1;stroke:#000000;stroke-width:0.0px;stroke-linecap:butt;stroke-linejoin:miter;stroke-opacity:1;"/>
<path d="M 607.654,629.92 L 607.652,629.885 L 607.648,629.851 L 607.64,629.817 L 607.63,629.783 L 607.616,629.751 L 607.601,629.72 L 607.582,629.69 L 607.561,629.662 L 607.538,629.636 L 607.512,629.612 L 607.485,629.591 L 607.455,629.571 L 607.425,629.555 L 607.392,629.541 L 607.359,629.53 L 607.325,629.522 L 607.291,629.516 L 607.256,629.514 L 607.221,629.515 L 607.186,629.519 L 607.152,629.525 L 607.118,629.535 L 607.085,629.547 L 607.054,629.563 L 607.024,629.581 L 606.996,629.601 L 606.969,629.624 L 606.945,629.649 L 606.922,629.676 L 606.903,629.705 L 606.885,629.735 L 606.871,629.767 L 606.859,629.8 L 606.85,629.834 L 606.844,629.868 L 606.841,629.903 L 606.841,629.938 L 606.844,629.973 L 606.85,630.007 L 606.859,630.041 L 606.871,630.074 L 606.885,630.106 L 606.903,630.136 L 606.922,630.165 L 606.945,630.192 L 606.969,630.217 L 606.996,630.24 L 607.024,630.26 L 607.054,630.278 L 607.085,630.293 L 607.118,630.306 L 607.152,630.316 L 607.186,630.322 L 607.221,630.326 L 607.256,630.327 L 607.291,630.325 L 607.325,630.319 L 607.359,630.311 L 607.392,630.3 L 607.425,630.286 L 607.455,630.269 L 607.485,630.25 L 607.512,630.229 L 607.538,630.205 L 607.561,630.179 L 607.582,630.151 L 607.601,630.121 L 607.616,630.09 L 607.63,630.058 L 607.64,630.024 L 607.648,629.99 L 607.652,629.955 L 607.654,629.92 L 607.247,629.92 Z" style="fill:#000000;fill-rule:evenodd;fill-opacity:1;stroke:#000000;stroke-width:0.0px;stroke-linecap:butt;stroke-linejoin:miter;stroke-opacity:1;"/>
<path d="M 572.554,640.589 L 572.552,640.554 L 572.548,640.519 L 572.541,640.485 L 572.53,640.452 L 572.517,640.419 L 572.501,640.388 L 572.482,640.359 L 572.461,640.331 L 572.438,640.305 L 572.413,640.281 L 572.385,640.259 L 572.356,640.24 L 572.325,640.223 L 572.293,640.209 L 572.26,640.198 L 572.226,640.19 L 572.191,640.185 L 572.156,640.183 L 572.121,640.183 L 572.087,640.187 L 572.052,640.194 L 572.019,640.203 L 571.986,640.216 L 571.954,640.231 L 571.924,640.249 L 571.896,640.27 L 571.87,640.292 L 571.845,640.317 L 571.823,640.344 L 571.803,640.373 L 571.786,640.404 L 571.771,640.435 L 571.759,640.468 L 571.75,640.502 L 571.744,640.537 L 571.741,640.571 L 571.741,640.606 L 571.744,640.641 L 571.75,640.676 L 571.759,640.71 L 571.771,640.742 L 571.786,640.774 L 571.803,640.805 L 571.823,640.833 L 571.845,640.86 L 571.87,640.885 L 571.896,640.908 L 571.924,640.929 L 571.954,640.947 L 571.986,640.962 L 572.019,640.974 L 572.052,640.984 L 572.087,640.991 L 572.121,640.995 L 572.156,640.995 L 572.191,640.993 L 572.226,640.988 L 572.26,640.98 L 572.293,640.969 L 572.325,640.955 L 572.356,640.938 L 572.385,640.919 L 572.413,640.897 L 572.438,640.873 L 572.461,640.847 L 572.482,640.819 L 572.501,640.79 L 572.517,640.759 L 572.53,640.726 L 572.541,640.693 L 572.548,640.659 L 572.552,640.624 L 572.554,640.589 L 572.148,640.589 Z" style="fill:#000000;fill-rule:evenodd;fill-opacity:1;stroke:#000000;stroke-width:0.0px;stroke-linecap:butt;stroke-linejoin:miter;stroke-opacity:1;"/>
<path d="M 554.231,620.148 L 554.229,620.113 L 554.225,620.079 L 554.217,620.044 L 554.207,620.011 L 554.194,619.979 L 554.178,619.947 L 554.159,619.918 L 554.138,619.89 L 554.115,619.864 L 554.089,619.84 L 554.062,619.818 L 554.033,619.799 L 554.002,619.782 L 553.97,619.769 L 553.937,619.757 L 553.903,619.749 L 553.868,619.744 L 553.833,619.742 L 553.798,619.743 L 553.763,619.746 L 553.729,619.753 L 553.695,619.763 L 553.663,619.775 L 553.631,619.79 L 553.601,619.808 L 553.573,619.829 L 553.546,619.852 L 553.522,619.877 L 553.5,619.904 L 553.48,619.932 L 553.463,619.963 L 553.448,619.995 L 553.436,620.028 L 553.427,620.061 L 553.421,620.096 L 553.418,620.131 L 553.418,620.166 L 553.421,620.2 L 553.427,620.235 L 553.436,620.269 L 553.448,620.302 L 553.463,620.333 L 553.48,620.364 L 553.5,620.393 L 553.522,620.42 L 553.546,620.445 L 553.573,620.467 L 553.601,620.488 L 553.631,620.506 L 553.663,620.521 L 553.695,620.534 L 553.729,620.543 L 553.763,620.55 L 553.798,620.554 L 553.833,620.555 L 553.868,620.552 L 553.903,620.547 L 553.937,620.539 L 553.97,620.528 L 554.002,620.514 L 554.033,620.497 L 554.062,620.478 L 554.089,620.456 L 554.115,620.432 L 554.138,620.406 L 554.159,620.378 L 554.178,620.349 L 554.194,620.318 L 554.207,620.285 L 554.217,620.252 L 554.225,620.218 L 554.229,620.183 L 554.231,620.148 L 553.824,620.148 Z" style="fill:#000000;fill-rule:evenodd;fill-opacity:1;stroke:#000000;stroke-width:0.0px;stroke-linecap:butt;stroke-linejoin:miter;stroke-opacity:1;"/>
</svg>