<svg xmlns="http://www.w3.org/2000/svg" xmlns:rdkit="http://www.rdkit.org/xml" xmlns:xlink="http://www.w3.org/1999/xlink" version="1.1" baseProfile="full" xml:space="preserve" width="750px" height="750px" viewBox="0 0 750 750">
<!-- END OF HEADER -->
<rect style="opacity:1.0;fill:#FFFFFF;stroke:none" width="750" height="750" x="0" y="0"> </rect>
<rect style="opacity:1.0;fill:#FFFFFF;stroke:none" width="750" height="750" x="0" y="0"> </rect>
<rect style="opacity:1.0;fill:#FFFFFF;stroke:none" width="750" height="750" x="0" y="0"> </rect>
<rect style="opacity:1.0;fill:#FFFFFF;stroke:none" width="750" height="750" x="0" y="0"> </rect>
<rect style="opacity:1.0;fill:#FFFFFF;stroke:none" width="750" height="750" x="0" y="0"> </rect>
<rect style="opacity:1.0;fill:#FFFFFF;stroke:none" width="750" height="750" x="0" y="0"> </rect>
<rect style="opacity:1.0;fill:#FFFFFF;stroke:none" width="750" height="750" x="0" y="0"> </rect>
<rect style="opacity:1.0;fill:#FFFFFF;stroke:none" width="750" height="750" x="0" y="0"> </rect>
<rect style="opacity:1.0;fill:#FFFFFF;stroke:none" width="750" height="750" x="0" y="0"> </rect>
<rect style="opacity:1.0;fill:#FFFFFF;stroke:none" width="750" height="750" x="0" y="0"> </rect>
<path class="bond-0 atom-0 atom-1" d="M 108.772,133.128 L 103.762,133.128" style="fill:none;fill-rule:evenodd;stroke:#FF0000;stroke-width:2.0px;stroke-linecap:butt;stroke-linejoin:miter;stroke-opacity:1"/>
<path class="bond-0 atom-0 atom-1" d="M 103.762,133.128 L 98.7521,133.128" style="fill:none;fill-rule:evenodd;stroke:#0000FF;stroke-width:2.0px;stroke-linecap:butt;stroke-linejoin:miter;stroke-opacity:1"/>
<path class="atom-0" d="M 109.128 133.14 Q 109.128 132.12, 109.632 131.55 Q 110.136 130.98, 111.078 130.98 Q 112.02 130.98, 112.524 131.55 Q 113.028 132.12, 113.028 133.14 Q 113.028 134.172, 112.518 134.76 Q 112.008 135.342, 111.078 135.342 Q 110.142 135.342, 109.632 134.76 Q 109.128 134.178, 109.128 133.14 M 111.078 134.862 Q 111.726 134.862, 112.074 134.43 Q 112.428 133.992, 112.428 133.14 Q 112.428 132.306, 112.074 131.886 Q 111.726 131.46, 111.078 131.46 Q 110.43 131.46, 110.076 131.88 Q 109.728 132.3, 109.728 133.14 Q 109.728 133.998, 110.076 134.43 Q 110.43 134.862, 111.078 134.862 " fill="#FF0000"/>
<path class="atom-0" d="M 113.384 131.737 L 114.133 131.737 L 114.133 130.949 L 114.465 130.949 L 114.465 131.737 L 115.234 131.737 L 115.234 132.022 L 114.465 132.022 L 114.465 132.814 L 114.133 132.814 L 114.133 132.022 L 113.384 132.022 L 113.384 131.737 " fill="#FF0000"/>
<path class="atom-1" d="M 91.4099 131.004 L 91.9859 131.004 L 91.9859 132.81 L 94.1579 132.81 L 94.1579 131.004 L 94.7339 131.004 L 94.7339 135.252 L 94.1579 135.252 L 94.1579 133.29 L 91.9859 133.29 L 91.9859 135.252 L 91.4099 135.252 L 91.4099 131.004 " fill="#0000FF"/>
<path class="atom-1" d="M 95.9039 131.004 L 97.2959 133.254 Q 97.4339 133.476, 97.6559 133.878 Q 97.8779 134.28, 97.8899 134.304 L 97.8899 131.004 L 98.4539 131.004 L 98.4539 135.252 L 97.8719 135.252 L 96.3779 132.792 Q 96.2039 132.504, 96.0179 132.174 Q 95.8379 131.844, 95.7839 131.742 L 95.7839 135.252 L 95.2319 135.252 L 95.2319 131.004 L 95.9039 131.004 " fill="#0000FF"/>
<path class="atom-1" d="M 98.6519 131.706 L 100.105 131.706 L 100.105 132.023 L 98.6519 132.023 L 98.6519 131.706 " fill="#0000FF"/>
<path d="M 116.434,132.528 L 116.433,132.502 L 116.429,132.477 L 116.424,132.451 L 116.416,132.427 L 116.406,132.403 L 116.395,132.38 L 116.381,132.358 L 116.365,132.337 L 116.348,132.318 L 116.329,132.301 L 116.309,132.285 L 116.287,132.27 L 116.265,132.258 L 116.241,132.248 L 116.217,132.24 L 116.191,132.234 L 116.166,132.23 L 116.14,132.228 L 116.114,132.229 L 116.089,132.231 L 116.063,132.236 L 116.039,132.244 L 116.014,132.253 L 115.991,132.264 L 115.969,132.277 L 115.948,132.292 L 115.929,132.309 L 115.91,132.328 L 115.894,132.348 L 115.879,132.369 L 115.867,132.391 L 115.856,132.415 L 115.847,132.439 L 115.841,132.464 L 115.836,132.489 L 115.834,132.515 L 115.834,132.541 L 115.836,132.567 L 115.841,132.592 L 115.847,132.617 L 115.856,132.641 L 115.867,132.665 L 115.879,132.687 L 115.894,132.709 L 115.91,132.728 L 115.929,132.747 L 115.948,132.764 L 115.969,132.779 L 115.991,132.792 L 116.014,132.803 L 116.039,132.813 L 116.063,132.82 L 116.089,132.825 L 116.114,132.827 L 116.14,132.828 L 116.166,132.826 L 116.191,132.822 L 116.217,132.816 L 116.241,132.808 L 116.265,132.798 L 116.287,132.786 L 116.309,132.772 L 116.329,132.756 L 116.348,132.738 L 116.365,132.719 L 116.381,132.698 L 116.395,132.676 L 116.406,132.653 L 116.416,132.629 L 116.424,132.605 L 116.429,132.579 L 116.433,132.554 L 116.434,132.528 L 116.134,132.528 Z" style="fill:#000000;fill-rule:evenodd;fill-opacity:1;stroke:#000000;stroke-width:0.0px;stroke-linecap:butt;stroke-linejoin:miter;stroke-opacity:1;"/>
<path d="M 116.434,133.728 L 116.433,133.702 L 116.429,133.677 L 116.424,133.651 L 116.416,133.627 L 116.406,133.603 L 116.395,133.58 L 116.381,133.558 L 116.365,133.537 L 116.348,133.518 L 116.329,133.501 L 116.309,133.485 L 116.287,133.47 L 116.265,133.458 L 116.241,133.448 L 116.217,133.44 L 116.191,133.434 L 116.166,133.43 L 116.14,133.428 L 116.114,133.429 L 116.089,133.431 L 116.063,133.436 L 116.039,133.444 L 116.014,133.453 L 115.991,133.464 L 115.969,133.477 L 115.948,133.492 L 115.929,133.509 L 115.91,133.528 L 115.894,133.548 L 115.879,133.569 L 115.867,133.591 L 115.856,133.615 L 115.847,133.639 L 115.841,133.664 L 115.836,133.689 L 115.834,133.715 L 115.834,133.741 L 115.836,133.767 L 115.841,133.792 L 115.847,133.817 L 115.856,133.841 L 115.867,133.865 L 115.879,133.887 L 115.894,133.909 L 115.91,133.928 L 115.929,133.947 L 115.948,133.964 L 115.969,133.979 L 115.991,133.992 L 116.014,134.003 L 116.039,134.013 L 116.063,134.02 L 116.089,134.025 L 116.114,134.027 L 116.14,134.028 L 116.166,134.026 L 116.191,134.022 L 116.217,134.016 L 116.241,134.008 L 116.265,133.998 L 116.287,133.986 L 116.309,133.972 L 116.329,133.956 L 116.348,133.938 L 116.365,133.919 L 116.381,133.898 L 116.395,133.876 L 116.406,133.853 L 116.416,133.829 L 116.424,133.805 L 116.429,133.779 L 116.433,133.754 L 116.434,133.728 L 116.134,133.728 Z" style="fill:#000000;fill-rule:evenodd;fill-opacity:1;stroke:#000000;stroke-width:0.0px;stroke-linecap:butt;stroke-linejoin:miter;stroke-opacity:1;"/>
<path class="bond-0 atom-0 atom-1" d="M 344.151,150.331 L 348.504,154.384" style="fill:none;fill-rule:evenodd;stroke:#FF7F00;stroke-width:2.0px;stroke-linecap:butt;stroke-linejoin:miter;stroke-opacity:1"/>
<path class="bond-0 atom-0 atom-1" d="M 348.504,154.384 L 352.856,158.438" style="fill:none;fill-rule:evenodd;stroke:#000000;stroke-width:2.0px;stroke-linecap:butt;stroke-linejoin:miter;stroke-opacity:1"/>
<path class="bond-20 atom-13 atom-0" d="M 340.695,134.609 L 341.414,140.433" style="fill:none;fill-rule:evenodd;stroke:#000000;stroke-width:2.0px;stroke-linecap:butt;stroke-linejoin:miter;stroke-opacity:1"/>
<path class="bond-20 atom-13 atom-0" d="M 341.414,140.433 L 342.133,146.257" style="fill:none;fill-rule:evenodd;stroke:#FF7F00;stroke-width:2.0px;stroke-linecap:butt;stroke-linejoin:miter;stroke-opacity:1"/>
<path class="bond-1 atom-1 atom-2" d="M 351.546,157.882 L 349.3,163.184" style="fill:none;fill-rule:evenodd;stroke:#000000;stroke-width:2.0px;stroke-linecap:butt;stroke-linejoin:miter;stroke-opacity:1"/>
<path class="bond-1 atom-1 atom-2" d="M 349.3,163.184 L 347.053,168.486" style="fill:none;fill-rule:evenodd;stroke:#FF0000;stroke-width:2.0px;stroke-linecap:butt;stroke-linejoin:miter;stroke-opacity:1"/>
<path class="bond-1 atom-1 atom-2" d="M 354.167,158.993 L 351.921,164.295" style="fill:none;fill-rule:evenodd;stroke:#000000;stroke-width:2.0px;stroke-linecap:butt;stroke-linejoin:miter;stroke-opacity:1"/>
<path class="bond-1 atom-1 atom-2" d="M 351.921,164.295 L 349.675,169.596" style="fill:none;fill-rule:evenodd;stroke:#FF0000;stroke-width:2.0px;stroke-linecap:butt;stroke-linejoin:miter;stroke-opacity:1"/>
<path class="bond-2 atom-1 atom-3" d="M 352.856,158.438 L 358.981,158.754" style="fill:none;fill-rule:evenodd;stroke:#000000;stroke-width:2.0px;stroke-linecap:butt;stroke-linejoin:miter;stroke-opacity:1"/>
<path class="bond-2 atom-1 atom-3" d="M 358.981,158.754 L 365.106,159.071" style="fill:none;fill-rule:evenodd;stroke:#0000FF;stroke-width:2.0px;stroke-linecap:butt;stroke-linejoin:miter;stroke-opacity:1"/>
<path class="bond-3 atom-3 atom-4" d="M 369.039,157.689 L 373.737,154.144" style="fill:none;fill-rule:evenodd;stroke:#0000FF;stroke-width:2.0px;stroke-linecap:butt;stroke-linejoin:miter;stroke-opacity:1"/>
<path class="bond-3 atom-3 atom-4" d="M 373.737,154.144 L 378.435,150.598" style="fill:none;fill-rule:evenodd;stroke:#000000;stroke-width:2.0px;stroke-linecap:butt;stroke-linejoin:miter;stroke-opacity:1"/>
<path class="bond-4 atom-4 atom-5" d="M 378.435,150.598 L 381.628,136.726" style="fill:none;fill-rule:evenodd;stroke:#000000;stroke-width:2.0px;stroke-linecap:butt;stroke-linejoin:miter;stroke-opacity:1"/>
<path class="bond-5 atom-5 atom-6" d="M 381.628,136.726 L 395.844,137.461" style="fill:none;fill-rule:evenodd;stroke:#000000;stroke-width:2.0px;stroke-linecap:butt;stroke-linejoin:miter;stroke-opacity:1"/>
<path class="bond-19 atom-10 atom-5" d="M 375.157,124.047 L 381.628,136.726" style="fill:none;fill-rule:evenodd;stroke:#000000;stroke-width:2.0px;stroke-linecap:butt;stroke-linejoin:miter;stroke-opacity:1"/>
<path class="bond-6 atom-6 atom-7" d="M 395.844,137.461 L 403.589,125.517" style="fill:none;fill-rule:evenodd;stroke:#000000;stroke-width:2.0px;stroke-linecap:butt;stroke-linejoin:miter;stroke-opacity:1"/>
<path class="bond-7 atom-7 atom-8" d="M 403.589,125.517 L 401.009,120.463" style="fill:none;fill-rule:evenodd;stroke:#000000;stroke-width:2.0px;stroke-linecap:butt;stroke-linejoin:miter;stroke-opacity:1"/>
<path class="bond-7 atom-7 atom-8" d="M 401.009,120.463 L 398.429,115.408" style="fill:none;fill-rule:evenodd;stroke:#FF0000;stroke-width:2.0px;stroke-linecap:butt;stroke-linejoin:miter;stroke-opacity:1"/>
<path class="bond-8 atom-8 atom-9" d="M 394.812,112.719 L 388.857,112.411" style="fill:none;fill-rule:evenodd;stroke:#FF0000;stroke-width:2.0px;stroke-linecap:butt;stroke-linejoin:miter;stroke-opacity:1"/>
<path class="bond-8 atom-8 atom-9" d="M 388.857,112.411 L 382.902,112.103" style="fill:none;fill-rule:evenodd;stroke:#000000;stroke-width:2.0px;stroke-linecap:butt;stroke-linejoin:miter;stroke-opacity:1"/>
<path class="bond-9 atom-9 atom-10" d="M 382.902,112.103 L 375.157,124.047" style="fill:none;fill-rule:evenodd;stroke:#000000;stroke-width:2.0px;stroke-linecap:butt;stroke-linejoin:miter;stroke-opacity:1"/>
<path class="bond-10 atom-10 atom-11" d="M 375.157,124.047 L 362.05,118.494" style="fill:none;fill-rule:evenodd;stroke:#000000;stroke-width:2.0px;stroke-linecap:butt;stroke-linejoin:miter;stroke-opacity:1"/>
<path class="bond-10 atom-10 atom-11" d="M 372.08,125.835 L 362.905,121.948" style="fill:none;fill-rule:evenodd;stroke:#000000;stroke-width:2.0px;stroke-linecap:butt;stroke-linejoin:miter;stroke-opacity:1"/>
<path class="bond-11 atom-11 atom-12" d="M 362.05,118.494 L 348.439,122.665" style="fill:none;fill-rule:evenodd;stroke:#000000;stroke-width:2.0px;stroke-linecap:butt;stroke-linejoin:miter;stroke-opacity:1"/>
<path class="bond-12 atom-12 atom-13" d="M 348.439,122.665 L 340.695,134.609" style="fill:none;fill-rule:evenodd;stroke:#000000;stroke-width:2.0px;stroke-linecap:butt;stroke-linejoin:miter;stroke-opacity:1"/>
<path class="bond-12 atom-12 atom-13" d="M 349.666,126.005 L 344.245,134.366" style="fill:none;fill-rule:evenodd;stroke:#000000;stroke-width:2.0px;stroke-linecap:butt;stroke-linejoin:miter;stroke-opacity:1"/>
<path class="bond-13 atom-13 atom-14" d="M 340.695,134.609 L 334.742,133.239" style="fill:none;fill-rule:evenodd;stroke:#000000;stroke-width:2.0px;stroke-linecap:butt;stroke-linejoin:miter;stroke-opacity:1"/>
<path class="bond-13 atom-13 atom-14" d="M 334.742,133.239 L 328.789,131.869" style="fill:none;fill-rule:evenodd;stroke:#0000FF;stroke-width:2.0px;stroke-linecap:butt;stroke-linejoin:miter;stroke-opacity:1"/>
<path class="bond-14 atom-14 atom-15" d="M 324.855,133.128 L 320.47,136.945" style="fill:none;fill-rule:evenodd;stroke:#0000FF;stroke-width:2.0px;stroke-linecap:butt;stroke-linejoin:miter;stroke-opacity:1"/>
<path class="bond-14 atom-14 atom-15" d="M 320.47,136.945 L 316.085,140.762" style="fill:none;fill-rule:evenodd;stroke:#000000;stroke-width:2.0px;stroke-linecap:butt;stroke-linejoin:miter;stroke-opacity:1"/>
<path class="bond-21 atom-18 atom-14" d="M 321.251,118.316 L 323.509,123.626" style="fill:none;fill-rule:evenodd;stroke:#000000;stroke-width:2.0px;stroke-linecap:butt;stroke-linejoin:miter;stroke-opacity:1"/>
<path class="bond-21 atom-18 atom-14" d="M 323.509,123.626 L 325.767,128.936" style="fill:none;fill-rule:evenodd;stroke:#0000FF;stroke-width:2.0px;stroke-linecap:butt;stroke-linejoin:miter;stroke-opacity:1"/>
<path class="bond-15 atom-15 atom-16" d="M 316.085,140.762 L 303.878,133.439" style="fill:none;fill-rule:evenodd;stroke:#000000;stroke-width:2.0px;stroke-linecap:butt;stroke-linejoin:miter;stroke-opacity:1"/>
<path class="bond-16 atom-16 atom-17" d="M 303.878,133.439 L 305.179,127.788" style="fill:none;fill-rule:evenodd;stroke:#000000;stroke-width:2.0px;stroke-linecap:butt;stroke-linejoin:miter;stroke-opacity:1"/>
<path class="bond-16 atom-16 atom-17" d="M 305.179,127.788 L 306.48,122.137" style="fill:none;fill-rule:evenodd;stroke:#FF0000;stroke-width:2.0px;stroke-linecap:butt;stroke-linejoin:miter;stroke-opacity:1"/>
<path class="bond-17 atom-17 atom-18" d="M 309.377,119.363 L 315.314,118.84" style="fill:none;fill-rule:evenodd;stroke:#FF0000;stroke-width:2.0px;stroke-linecap:butt;stroke-linejoin:miter;stroke-opacity:1"/>
<path class="bond-17 atom-17 atom-18" d="M 315.314,118.84 L 321.251,118.316" style="fill:none;fill-rule:evenodd;stroke:#000000;stroke-width:2.0px;stroke-linecap:butt;stroke-linejoin:miter;stroke-opacity:1"/>
<path class="bond-18 atom-18 atom-19" d="M 322.472,119.049 L 325.363,114.23" style="fill:none;fill-rule:evenodd;stroke:#000000;stroke-width:2.0px;stroke-linecap:butt;stroke-linejoin:miter;stroke-opacity:1"/>
<path class="bond-18 atom-18 atom-19" d="M 325.363,114.23 L 328.253,109.412" style="fill:none;fill-rule:evenodd;stroke:#FF0000;stroke-width:2.0px;stroke-linecap:butt;stroke-linejoin:miter;stroke-opacity:1"/>
<path class="bond-18 atom-18 atom-19" d="M 320.03,117.584 L 322.921,112.766" style="fill:none;fill-rule:evenodd;stroke:#000000;stroke-width:2.0px;stroke-linecap:butt;stroke-linejoin:miter;stroke-opacity:1"/>
<path class="bond-18 atom-18 atom-19" d="M 322.921,112.766 L 325.812,107.947" style="fill:none;fill-rule:evenodd;stroke:#FF0000;stroke-width:2.0px;stroke-linecap:butt;stroke-linejoin:miter;stroke-opacity:1"/>
<path class="atom-0" d="M 337.249 146.613 L 337.825 146.613 L 337.825 148.419 L 339.997 148.419 L 339.997 146.613 L 340.573 146.613 L 340.573 150.861 L 339.997 150.861 L 339.997 148.899 L 337.825 148.899 L 337.825 150.861 L 337.249 150.861 L 337.249 146.613 " fill="#FF7F00"/>
<path class="atom-0" d="M 342.337 146.613 Q 343.063 146.613, 343.429 146.943 Q 343.795 147.267, 343.795 147.861 Q 343.795 148.449, 343.417 148.785 Q 343.045 149.115, 342.337 149.115 L 341.659 149.115 L 341.659 150.861 L 341.083 150.861 L 341.083 146.613 L 342.337 146.613 M 342.337 148.635 Q 342.751 148.635, 342.973 148.437 Q 343.195 148.239, 343.195 147.861 Q 343.195 147.483, 342.973 147.291 Q 342.757 147.093, 342.337 147.093 L 341.659 147.093 L 341.659 148.635 L 342.337 148.635 " fill="#FF7F00"/>
<path class="atom-2" d="M 345.353 171.557 Q 345.353 170.537, 345.857 169.967 Q 346.361 169.397, 347.303 169.397 Q 348.245 169.397, 348.749 169.967 Q 349.253 170.537, 349.253 171.557 Q 349.253 172.589, 348.743 173.177 Q 348.233 173.759, 347.303 173.759 Q 346.367 173.759, 345.857 173.177 Q 345.353 172.595, 345.353 171.557 M 347.303 173.279 Q 347.951 173.279, 348.299 172.847 Q 348.653 172.409, 348.653 171.557 Q 348.653 170.723, 348.299 170.303 Q 347.951 169.877, 347.303 169.877 Q 346.655 169.877, 346.301 170.297 Q 345.953 170.717, 345.953 171.557 Q 345.953 172.415, 346.301 172.847 Q 346.655 173.279, 347.303 173.279 " fill="#FF0000"/>
<path class="atom-3" d="M 366.134 157.049 L 367.526 159.299 Q 367.664 159.521, 367.886 159.923 Q 368.108 160.325, 368.12 160.349 L 368.12 157.049 L 368.684 157.049 L 368.684 161.297 L 368.102 161.297 L 366.608 158.837 Q 366.434 158.549, 366.248 158.219 Q 366.068 157.889, 366.014 157.787 L 366.014 161.297 L 365.462 161.297 L 365.462 157.049 L 366.134 157.049 " fill="#0000FF"/>
<path class="atom-3" d="M 365.411 161.722 L 365.987 161.722 L 365.987 163.528 L 368.159 163.528 L 368.159 161.722 L 368.735 161.722 L 368.735 165.97 L 368.159 165.97 L 368.159 164.008 L 365.987 164.008 L 365.987 165.97 L 365.411 165.97 L 365.411 161.722 " fill="#0000FF"/>
<path class="atom-8" d="M 395.168 112.85 Q 395.168 111.83, 395.672 111.26 Q 396.176 110.69, 397.118 110.69 Q 398.06 110.69, 398.564 111.26 Q 399.068 111.83, 399.068 112.85 Q 399.068 113.882, 398.558 114.47 Q 398.048 115.052, 397.118 115.052 Q 396.182 115.052, 395.672 114.47 Q 395.168 113.888, 395.168 112.85 M 397.118 114.572 Q 397.766 114.572, 398.114 114.14 Q 398.468 113.702, 398.468 112.85 Q 398.468 112.016, 398.114 111.596 Q 397.766 111.17, 397.118 111.17 Q 396.47 111.17, 396.116 111.59 Q 395.768 112.01, 395.768 112.85 Q 395.768 113.708, 396.116 114.14 Q 396.47 114.572, 397.118 114.572 " fill="#FF0000"/>
<path class="atom-14" d="M 325.883 129.292 L 327.275 131.542 Q 327.413 131.764, 327.635 132.166 Q 327.857 132.568, 327.869 132.592 L 327.869 129.292 L 328.433 129.292 L 328.433 133.54 L 327.851 133.54 L 326.357 131.08 Q 326.183 130.792, 325.997 130.462 Q 325.817 130.132, 325.763 130.03 L 325.763 133.54 L 325.211 133.54 L 325.211 129.292 L 325.883 129.292 " fill="#0000FF"/>
<path class="atom-17" d="M 305.121 119.579 Q 305.121 118.559, 305.625 117.989 Q 306.129 117.419, 307.071 117.419 Q 308.013 117.419, 308.517 117.989 Q 309.021 118.559, 309.021 119.579 Q 309.021 120.611, 308.511 121.199 Q 308.001 121.781, 307.071 121.781 Q 306.135 121.781, 305.625 121.199 Q 305.121 120.617, 305.121 119.579 M 307.071 121.301 Q 307.719 121.301, 308.067 120.869 Q 308.421 120.431, 308.421 119.579 Q 308.421 118.745, 308.067 118.325 Q 307.719 117.899, 307.071 117.899 Q 306.423 117.899, 306.069 118.319 Q 305.721 118.739, 305.721 119.579 Q 305.721 120.437, 306.069 120.869 Q 306.423 121.301, 307.071 121.301 " fill="#FF0000"/>
<path class="atom-19" d="M 326.624 106.122 Q 326.624 105.102, 327.128 104.532 Q 327.632 103.962, 328.574 103.962 Q 329.516 103.962, 330.02 104.532 Q 330.524 105.102, 330.524 106.122 Q 330.524 107.154, 330.014 107.742 Q 329.504 108.324, 328.574 108.324 Q 327.638 108.324, 327.128 107.742 Q 326.624 107.16, 326.624 106.122 M 328.574 107.844 Q 329.222 107.844, 329.57 107.412 Q 329.924 106.974, 329.924 106.122 Q 329.924 105.288, 329.57 104.868 Q 329.222 104.442, 328.574 104.442 Q 327.926 104.442, 327.572 104.862 Q 327.224 105.282, 327.224 106.122 Q 327.224 106.98, 327.572 107.412 Q 327.926 107.844, 328.574 107.844 " fill="#FF0000"/>
<path class="bond-0 atom-0 atom-1" d="M 551.556,139.47 L 564.958,144.269" style="fill:none;fill-rule:evenodd;stroke:#000000;stroke-width:2.0px;stroke-linecap:butt;stroke-linejoin:miter;stroke-opacity:1"/>
<path class="bond-0 atom-0 atom-1" d="M 552.516,136.79 L 565.918,141.588" style="fill:none;fill-rule:evenodd;stroke:#000000;stroke-width:2.0px;stroke-linecap:butt;stroke-linejoin:miter;stroke-opacity:1"/>
<path class="bond-1 atom-1 atom-2" d="M 565.438,142.928 L 576.294,133.721" style="fill:none;fill-rule:evenodd;stroke:#000000;stroke-width:2.0px;stroke-linecap:butt;stroke-linejoin:miter;stroke-opacity:1"/>
<path class="bond-2 atom-2 atom-3" d="M 576.294,133.721 L 573.749,119.716" style="fill:none;fill-rule:evenodd;stroke:#000000;stroke-width:2.0px;stroke-linecap:butt;stroke-linejoin:miter;stroke-opacity:1"/>
<path class="bond-2 atom-2 atom-3" d="M 578.714,131.112 L 576.932,121.308" style="fill:none;fill-rule:evenodd;stroke:#000000;stroke-width:2.0px;stroke-linecap:butt;stroke-linejoin:miter;stroke-opacity:1"/>
<path class="bond-17 atom-7 atom-2" d="M 589.696,138.52 L 576.294,133.721" style="fill:none;fill-rule:evenodd;stroke:#000000;stroke-width:2.0px;stroke-linecap:butt;stroke-linejoin:miter;stroke-opacity:1"/>
<path class="bond-3 atom-3 atom-4" d="M 573.749,119.716 L 584.606,110.509" style="fill:none;fill-rule:evenodd;stroke:#000000;stroke-width:2.0px;stroke-linecap:butt;stroke-linejoin:miter;stroke-opacity:1"/>
<path class="bond-4 atom-4 atom-5" d="M 584.606,110.509 L 598.008,115.307" style="fill:none;fill-rule:evenodd;stroke:#000000;stroke-width:2.0px;stroke-linecap:butt;stroke-linejoin:miter;stroke-opacity:1"/>
<path class="bond-4 atom-4 atom-5" d="M 585.657,113.909 L 595.038,117.268" style="fill:none;fill-rule:evenodd;stroke:#000000;stroke-width:2.0px;stroke-linecap:butt;stroke-linejoin:miter;stroke-opacity:1"/>
<path class="bond-5 atom-5 atom-6" d="M 598.008,115.307 L 600.553,129.313" style="fill:none;fill-rule:evenodd;stroke:#000000;stroke-width:2.0px;stroke-linecap:butt;stroke-linejoin:miter;stroke-opacity:1"/>
<path class="bond-6 atom-6 atom-7" d="M 600.553,129.313 L 589.696,138.52" style="fill:none;fill-rule:evenodd;stroke:#000000;stroke-width:2.0px;stroke-linecap:butt;stroke-linejoin:miter;stroke-opacity:1"/>
<path class="bond-6 atom-6 atom-7" d="M 597.083,128.523 L 589.483,134.968" style="fill:none;fill-rule:evenodd;stroke:#000000;stroke-width:2.0px;stroke-linecap:butt;stroke-linejoin:miter;stroke-opacity:1"/>
<path class="bond-18 atom-9 atom-6" d="M 609.76,140.17 L 600.553,129.313" style="fill:none;fill-rule:evenodd;stroke:#000000;stroke-width:2.0px;stroke-linecap:butt;stroke-linejoin:miter;stroke-opacity:1"/>
<path class="bond-7 atom-7 atom-8" d="M 589.696,138.52 L 593.238,142.697" style="fill:none;fill-rule:evenodd;stroke:#000000;stroke-width:2.0px;stroke-linecap:butt;stroke-linejoin:miter;stroke-opacity:1"/>
<path class="bond-7 atom-7 atom-8" d="M 593.238,142.697 L 596.78,146.873" style="fill:none;fill-rule:evenodd;stroke:#FF0000;stroke-width:2.0px;stroke-linecap:butt;stroke-linejoin:miter;stroke-opacity:1"/>
<path class="bond-8 atom-8 atom-9" d="M 601.209,147.421 L 605.485,143.796" style="fill:none;fill-rule:evenodd;stroke:#FF0000;stroke-width:2.0px;stroke-linecap:butt;stroke-linejoin:miter;stroke-opacity:1"/>
<path class="bond-8 atom-8 atom-9" d="M 605.485,143.796 L 609.76,140.17" style="fill:none;fill-rule:evenodd;stroke:#000000;stroke-width:2.0px;stroke-linecap:butt;stroke-linejoin:miter;stroke-opacity:1"/>
<path class="bond-9 atom-9 atom-10" d="M 609.76,140.17 L 620.617,130.963" style="fill:none;fill-rule:evenodd;stroke:#000000;stroke-width:2.0px;stroke-linecap:butt;stroke-linejoin:miter;stroke-opacity:1"/>
<path class="bond-15 atom-9 atom-16" d="M 609.76,140.17 L 613.505,144.585" style="fill:none;fill-rule:evenodd;stroke:#000000;stroke-width:2.0px;stroke-linecap:butt;stroke-linejoin:miter;stroke-opacity:1"/>
<path class="bond-15 atom-9 atom-16" d="M 613.505,144.585 L 617.249,149.001" style="fill:none;fill-rule:evenodd;stroke:#CCCC00;stroke-width:2.0px;stroke-linecap:butt;stroke-linejoin:miter;stroke-opacity:1"/>
<path class="bond-10 atom-10 atom-11" d="M 620.617,130.963 L 619.55,116.768" style="fill:none;fill-rule:evenodd;stroke:#000000;stroke-width:2.0px;stroke-linecap:butt;stroke-linejoin:miter;stroke-opacity:1"/>
<path class="bond-10 atom-10 atom-11" d="M 623.296,128.62 L 622.549,118.684" style="fill:none;fill-rule:evenodd;stroke:#000000;stroke-width:2.0px;stroke-linecap:butt;stroke-linejoin:miter;stroke-opacity:1"/>
<path class="bond-19 atom-14 atom-10" d="M 634.447,134.334 L 620.617,130.963" style="fill:none;fill-rule:evenodd;stroke:#000000;stroke-width:2.0px;stroke-linecap:butt;stroke-linejoin:miter;stroke-opacity:1"/>
<path class="bond-11 atom-11 atom-12" d="M 619.55,116.768 L 625.276,114.419" style="fill:none;fill-rule:evenodd;stroke:#000000;stroke-width:2.0px;stroke-linecap:butt;stroke-linejoin:miter;stroke-opacity:1"/>
<path class="bond-11 atom-11 atom-12" d="M 625.276,114.419 L 631.002,112.071" style="fill:none;fill-rule:evenodd;stroke:#CCCC00;stroke-width:2.0px;stroke-linecap:butt;stroke-linejoin:miter;stroke-opacity:1"/>
<path class="bond-12 atom-12 atom-13" d="M 634.438,113.392 L 638.182,117.808" style="fill:none;fill-rule:evenodd;stroke:#CCCC00;stroke-width:2.0px;stroke-linecap:butt;stroke-linejoin:miter;stroke-opacity:1"/>
<path class="bond-12 atom-12 atom-13" d="M 638.182,117.808 L 641.927,122.223" style="fill:none;fill-rule:evenodd;stroke:#000000;stroke-width:2.0px;stroke-linecap:butt;stroke-linejoin:miter;stroke-opacity:1"/>
<path class="bond-13 atom-13 atom-14" d="M 641.927,122.223 L 634.447,134.334" style="fill:none;fill-rule:evenodd;stroke:#000000;stroke-width:2.0px;stroke-linecap:butt;stroke-linejoin:miter;stroke-opacity:1"/>
<path class="bond-13 atom-13 atom-14" d="M 638.383,122.544 L 633.147,131.022" style="fill:none;fill-rule:evenodd;stroke:#000000;stroke-width:2.0px;stroke-linecap:butt;stroke-linejoin:miter;stroke-opacity:1"/>
<path class="bond-14 atom-14 atom-15" d="M 634.447,134.334 L 639.848,147.505" style="fill:none;fill-rule:evenodd;stroke:#000000;stroke-width:2.0px;stroke-linecap:butt;stroke-linejoin:miter;stroke-opacity:1"/>
<path class="bond-16 atom-16 atom-17" d="M 616.698,153.141 L 614.763,158.545" style="fill:none;fill-rule:evenodd;stroke:#CCCC00;stroke-width:2.0px;stroke-linecap:butt;stroke-linejoin:miter;stroke-opacity:1"/>
<path class="bond-16 atom-16 atom-17" d="M 614.763,158.545 L 612.828,163.948" style="fill:none;fill-rule:evenodd;stroke:#000000;stroke-width:2.0px;stroke-linecap:butt;stroke-linejoin:miter;stroke-opacity:1"/>
<path class="bond-16 atom-16 atom-17" d="M 619.378,154.1 L 617.443,159.504" style="fill:none;fill-rule:evenodd;stroke:#CCCC00;stroke-width:2.0px;stroke-linecap:butt;stroke-linejoin:miter;stroke-opacity:1"/>
<path class="bond-16 atom-16 atom-17" d="M 617.443,159.504 L 615.509,164.908" style="fill:none;fill-rule:evenodd;stroke:#000000;stroke-width:2.0px;stroke-linecap:butt;stroke-linejoin:miter;stroke-opacity:1"/>
<path class="atom-8" d="M 596.953 149.389 Q 596.953 148.369, 597.457 147.799 Q 597.961 147.229, 598.903 147.229 Q 599.845 147.229, 600.349 147.799 Q 600.853 148.369, 600.853 149.389 Q 600.853 150.421, 600.343 151.009 Q 599.833 151.591, 598.903 151.591 Q 597.967 151.591, 597.457 151.009 Q 596.953 150.427, 596.953 149.389 M 598.903 151.111 Q 599.551 151.111, 599.899 150.679 Q 600.253 150.241, 600.253 149.389 Q 600.253 148.555, 599.899 148.135 Q 599.551 147.709, 598.903 147.709 Q 598.255 147.709, 597.901 148.129 Q 597.553 148.549, 597.553 149.389 Q 597.553 150.247, 597.901 150.679 Q 598.255 151.111, 598.903 151.111 " fill="#FF0000"/>
<path class="atom-12" d="M 631.52 112.824 Q 631.568 112.842, 631.766 112.926 Q 631.964 113.01, 632.18 113.064 Q 632.402 113.112, 632.618 113.112 Q 633.02 113.112, 633.254 112.92 Q 633.488 112.722, 633.488 112.38 Q 633.488 112.146, 633.368 112.002 Q 633.254 111.858, 633.074 111.78 Q 632.894 111.702, 632.594 111.612 Q 632.216 111.498, 631.988 111.39 Q 631.766 111.282, 631.604 111.054 Q 631.448 110.826, 631.448 110.442 Q 631.448 109.908, 631.808 109.578 Q 632.174 109.248, 632.894 109.248 Q 633.386 109.248, 633.944 109.482 L 633.806 109.944 Q 633.296 109.734, 632.912 109.734 Q 632.498 109.734, 632.27 109.908 Q 632.042 110.076, 632.048 110.37 Q 632.048 110.598, 632.162 110.736 Q 632.282 110.874, 632.45 110.952 Q 632.624 111.03, 632.912 111.12 Q 633.296 111.24, 633.524 111.36 Q 633.752 111.48, 633.914 111.726 Q 634.082 111.966, 634.082 112.38 Q 634.082 112.968, 633.686 113.286 Q 633.296 113.598, 632.642 113.598 Q 632.264 113.598, 631.976 113.514 Q 631.694 113.436, 631.358 113.298 L 631.52 112.824 " fill="#CCCC00"/>
<path class="atom-16" d="M 617.767 152.491 Q 617.815 152.509, 618.013 152.593 Q 618.211 152.677, 618.427 152.731 Q 618.649 152.779, 618.865 152.779 Q 619.267 152.779, 619.501 152.587 Q 619.735 152.389, 619.735 152.047 Q 619.735 151.813, 619.615 151.669 Q 619.501 151.525, 619.321 151.447 Q 619.141 151.369, 618.841 151.279 Q 618.463 151.165, 618.235 151.057 Q 618.013 150.949, 617.851 150.721 Q 617.695 150.493, 617.695 150.109 Q 617.695 149.575, 618.055 149.245 Q 618.421 148.915, 619.141 148.915 Q 619.633 148.915, 620.191 149.149 L 620.053 149.611 Q 619.543 149.401, 619.159 149.401 Q 618.745 149.401, 618.517 149.575 Q 618.289 149.743, 618.295 150.037 Q 618.295 150.265, 618.409 150.403 Q 618.529 150.541, 618.697 150.619 Q 618.871 150.697, 619.159 150.787 Q 619.543 150.907, 619.771 151.027 Q 619.999 151.147, 620.161 151.393 Q 620.329 151.633, 620.329 152.047 Q 620.329 152.635, 619.933 152.953 Q 619.543 153.265, 618.889 153.265 Q 618.511 153.265, 618.223 153.181 Q 617.941 153.103, 617.605 152.965 L 617.767 152.491 " fill="#CCCC00"/>
<path class="atom-16" d="M 620.839 148.903 L 621.415 148.903 L 621.415 150.709 L 623.587 150.709 L 623.587 148.903 L 624.163 148.903 L 624.163 153.151 L 623.587 153.151 L 623.587 151.189 L 621.415 151.189 L 621.415 153.151 L 620.839 153.151 L 620.839 148.903 " fill="#CCCC00"/>
<path class="bond-0 atom-0 atom-1" d="M 68.546,403.518 L 67.5106,397.752" style="fill:none;fill-rule:evenodd;stroke:#FF7F00;stroke-width:2.0px;stroke-linecap:butt;stroke-linejoin:miter;stroke-opacity:1"/>
<path class="bond-0 atom-0 atom-1" d="M 67.5106,397.752 L 66.4752,391.987" style="fill:none;fill-rule:evenodd;stroke:#000000;stroke-width:2.0px;stroke-linecap:butt;stroke-linejoin:miter;stroke-opacity:1"/>
<path class="bond-0 atom-0 atom-1" d="M 65.7439,404.021 L 64.7084,398.256" style="fill:none;fill-rule:evenodd;stroke:#FF7F00;stroke-width:2.0px;stroke-linecap:butt;stroke-linejoin:miter;stroke-opacity:1"/>
<path class="bond-0 atom-0 atom-1" d="M 64.7084,398.256 L 63.673,392.49" style="fill:none;fill-rule:evenodd;stroke:#000000;stroke-width:2.0px;stroke-linecap:butt;stroke-linejoin:miter;stroke-opacity:1"/>
<path class="bond-1 atom-1 atom-2" d="M 65.0741,392.239 L 59.1876,390.117" style="fill:none;fill-rule:evenodd;stroke:#000000;stroke-width:2.0px;stroke-linecap:butt;stroke-linejoin:miter;stroke-opacity:1"/>
<path class="bond-1 atom-1 atom-2" d="M 59.1876,390.117 L 53.301,387.996" style="fill:none;fill-rule:evenodd;stroke:#33CCCC;stroke-width:2.0px;stroke-linecap:butt;stroke-linejoin:miter;stroke-opacity:1"/>
<path class="bond-2 atom-1 atom-3" d="M 65.0741,392.239 L 75.9498,383.054" style="fill:none;fill-rule:evenodd;stroke:#000000;stroke-width:2.0px;stroke-linecap:butt;stroke-linejoin:miter;stroke-opacity:1"/>
<path class="bond-3 atom-3 atom-4" d="M 77.3509,382.802 L 76.3235,377.082" style="fill:none;fill-rule:evenodd;stroke:#000000;stroke-width:2.0px;stroke-linecap:butt;stroke-linejoin:miter;stroke-opacity:1"/>
<path class="bond-3 atom-3 atom-4" d="M 76.3235,377.082 L 75.2961,371.361" style="fill:none;fill-rule:evenodd;stroke:#FF0000;stroke-width:2.0px;stroke-linecap:butt;stroke-linejoin:miter;stroke-opacity:1"/>
<path class="bond-3 atom-3 atom-4" d="M 74.5487,383.306 L 73.5213,377.585" style="fill:none;fill-rule:evenodd;stroke:#000000;stroke-width:2.0px;stroke-linecap:butt;stroke-linejoin:miter;stroke-opacity:1"/>
<path class="bond-3 atom-3 atom-4" d="M 73.5213,377.585 L 72.494,371.865" style="fill:none;fill-rule:evenodd;stroke:#FF0000;stroke-width:2.0px;stroke-linecap:butt;stroke-linejoin:miter;stroke-opacity:1"/>
<path class="bond-4 atom-3 atom-5" d="M 75.9498,383.054 L 89.3417,387.88" style="fill:none;fill-rule:evenodd;stroke:#000000;stroke-width:2.0px;stroke-linecap:butt;stroke-linejoin:miter;stroke-opacity:1"/>
<path class="bond-5 atom-5 atom-6" d="M 89.3417,387.88 L 100.217,378.696" style="fill:none;fill-rule:evenodd;stroke:#000000;stroke-width:2.0px;stroke-linecap:butt;stroke-linejoin:miter;stroke-opacity:1"/>
<path class="bond-6 atom-6 atom-7" d="M 100.217,378.696 L 97.7011,364.685" style="fill:none;fill-rule:evenodd;stroke:#000000;stroke-width:2.0px;stroke-linecap:butt;stroke-linejoin:miter;stroke-opacity:1"/>
<path class="bond-6 atom-6 atom-7" d="M 102.642,376.091 L 100.881,366.283" style="fill:none;fill-rule:evenodd;stroke:#000000;stroke-width:2.0px;stroke-linecap:butt;stroke-linejoin:miter;stroke-opacity:1"/>
<path class="bond-16 atom-15 atom-6" d="M 113.609,383.522 L 100.217,378.696" style="fill:none;fill-rule:evenodd;stroke:#000000;stroke-width:2.0px;stroke-linecap:butt;stroke-linejoin:miter;stroke-opacity:1"/>
<path class="bond-7 atom-7 atom-8" d="M 97.7011,364.685 L 108.577,355.5" style="fill:none;fill-rule:evenodd;stroke:#000000;stroke-width:2.0px;stroke-linecap:butt;stroke-linejoin:miter;stroke-opacity:1"/>
<path class="bond-8 atom-8 atom-9" d="M 108.577,355.5 L 121.969,360.327" style="fill:none;fill-rule:evenodd;stroke:#000000;stroke-width:2.0px;stroke-linecap:butt;stroke-linejoin:miter;stroke-opacity:1"/>
<path class="bond-8 atom-8 atom-9" d="M 109.62,358.903 L 118.995,362.281" style="fill:none;fill-rule:evenodd;stroke:#000000;stroke-width:2.0px;stroke-linecap:butt;stroke-linejoin:miter;stroke-opacity:1"/>
<path class="bond-9 atom-9 atom-10" d="M 121.969,360.327 L 124.485,374.338" style="fill:none;fill-rule:evenodd;stroke:#000000;stroke-width:2.0px;stroke-linecap:butt;stroke-linejoin:miter;stroke-opacity:1"/>
<path class="bond-10 atom-10 atom-11" d="M 124.485,374.338 L 130.028,376.335" style="fill:none;fill-rule:evenodd;stroke:#000000;stroke-width:2.0px;stroke-linecap:butt;stroke-linejoin:miter;stroke-opacity:1"/>
<path class="bond-10 atom-10 atom-11" d="M 130.028,376.335 L 135.571,378.333" style="fill:none;fill-rule:evenodd;stroke:#FF0000;stroke-width:2.0px;stroke-linecap:butt;stroke-linejoin:miter;stroke-opacity:1"/>
<path class="bond-14 atom-10 atom-15" d="M 124.485,374.338 L 113.609,383.522" style="fill:none;fill-rule:evenodd;stroke:#000000;stroke-width:2.0px;stroke-linecap:butt;stroke-linejoin:miter;stroke-opacity:1"/>
<path class="bond-14 atom-10 atom-15" d="M 121.017,373.54 L 113.404,379.969" style="fill:none;fill-rule:evenodd;stroke:#000000;stroke-width:2.0px;stroke-linecap:butt;stroke-linejoin:miter;stroke-opacity:1"/>
<path class="bond-11 atom-11 atom-12" d="M 138.338,381.734 L 139.366,387.454" style="fill:none;fill-rule:evenodd;stroke:#FF0000;stroke-width:2.0px;stroke-linecap:butt;stroke-linejoin:miter;stroke-opacity:1"/>
<path class="bond-11 atom-11 atom-12" d="M 139.366,387.454 L 140.393,393.175" style="fill:none;fill-rule:evenodd;stroke:#000000;stroke-width:2.0px;stroke-linecap:butt;stroke-linejoin:miter;stroke-opacity:1"/>
<path class="bond-12 atom-12 atom-13" d="M 140.393,393.175 L 146.28,395.296" style="fill:none;fill-rule:evenodd;stroke:#000000;stroke-width:2.0px;stroke-linecap:butt;stroke-linejoin:miter;stroke-opacity:1"/>
<path class="bond-12 atom-12 atom-13" d="M 146.28,395.296 L 152.166,397.418" style="fill:none;fill-rule:evenodd;stroke:#33CCCC;stroke-width:2.0px;stroke-linecap:butt;stroke-linejoin:miter;stroke-opacity:1"/>
<path class="bond-13 atom-12 atom-14" d="M 140.393,393.175 L 135.765,397.083" style="fill:none;fill-rule:evenodd;stroke:#000000;stroke-width:2.0px;stroke-linecap:butt;stroke-linejoin:miter;stroke-opacity:1"/>
<path class="bond-13 atom-12 atom-14" d="M 135.765,397.083 L 131.136,400.992" style="fill:none;fill-rule:evenodd;stroke:#33CCCC;stroke-width:2.0px;stroke-linecap:butt;stroke-linejoin:miter;stroke-opacity:1"/>
<path class="bond-15 atom-15 atom-16" d="M 113.609,383.522 L 114.654,389.34" style="fill:none;fill-rule:evenodd;stroke:#000000;stroke-width:2.0px;stroke-linecap:butt;stroke-linejoin:miter;stroke-opacity:1"/>
<path class="bond-15 atom-15 atom-16" d="M 114.654,389.34 L 115.699,395.158" style="fill:none;fill-rule:evenodd;stroke:#00CC00;stroke-width:2.0px;stroke-linecap:butt;stroke-linejoin:miter;stroke-opacity:1"/>
<path class="atom-0" d="M 67.4883 404.126 Q 68.2143 404.126, 68.5803 404.456 Q 68.9463 404.78, 68.9463 405.374 Q 68.9463 405.962, 68.5683 406.298 Q 68.1963 406.628, 67.4883 406.628 L 66.8103 406.628 L 66.8103 408.374 L 66.2343 408.374 L 66.2343 404.126 L 67.4883 404.126 M 67.4883 406.148 Q 67.9023 406.148, 68.1243 405.95 Q 68.3463 405.752, 68.3463 405.374 Q 68.3463 404.996, 68.1243 404.804 Q 67.9083 404.606, 67.4883 404.606 L 66.8103 404.606 L 66.8103 406.148 L 67.4883 406.148 " fill="#FF7F00"/>
<path class="atom-0" d="M 69.4563 404.126 L 70.0323 404.126 L 70.0323 405.932 L 72.2043 405.932 L 72.2043 404.126 L 72.7803 404.126 L 72.7803 408.374 L 72.2043 408.374 L 72.2043 406.412 L 70.0323 406.412 L 70.0323 408.374 L 69.4563 408.374 L 69.4563 404.126 " fill="#FF7F00"/>
<path class="atom-2" d="M 50.4192 385.288 L 52.9452 385.288 L 52.9452 385.774 L 50.9892 385.774 L 50.9892 387.064 L 52.7292 387.064 L 52.7292 387.556 L 50.9892 387.556 L 50.9892 389.536 L 50.4192 389.536 L 50.4192 385.288 " fill="#33CCCC"/>
<path class="atom-4" d="M 71.4835 369.055 Q 71.4835 368.035, 71.9875 367.465 Q 72.4915 366.895, 73.4335 366.895 Q 74.3755 366.895, 74.8795 367.465 Q 75.3835 368.035, 75.3835 369.055 Q 75.3835 370.087, 74.8735 370.675 Q 74.3635 371.257, 73.4335 371.257 Q 72.4975 371.257, 71.9875 370.675 Q 71.4835 370.093, 71.4835 369.055 M 73.4335 370.777 Q 74.0815 370.777, 74.4295 370.345 Q 74.7835 369.907, 74.7835 369.055 Q 74.7835 368.221, 74.4295 367.801 Q 74.0815 367.375, 73.4335 367.375 Q 72.7855 367.375, 72.4315 367.795 Q 72.0835 368.215, 72.0835 369.055 Q 72.0835 369.913, 72.4315 370.345 Q 72.7855 370.777, 73.4335 370.777 " fill="#FF0000"/>
<path class="atom-11" d="M 135.927 379.176 Q 135.927 378.156, 136.431 377.586 Q 136.935 377.016, 137.877 377.016 Q 138.819 377.016, 139.323 377.586 Q 139.827 378.156, 139.827 379.176 Q 139.827 380.208, 139.317 380.796 Q 138.807 381.378, 137.877 381.378 Q 136.941 381.378, 136.431 380.796 Q 135.927 380.214, 135.927 379.176 M 137.877 380.898 Q 138.525 380.898, 138.873 380.466 Q 139.227 380.028, 139.227 379.176 Q 139.227 378.342, 138.873 377.922 Q 138.525 377.496, 137.877 377.496 Q 137.229 377.496, 136.875 377.916 Q 136.527 378.336, 136.527 379.176 Q 136.527 380.034, 136.875 380.466 Q 137.229 380.898, 137.877 380.898 " fill="#FF0000"/>
<path class="atom-13" d="M 152.522 395.877 L 155.048 395.877 L 155.048 396.363 L 153.092 396.363 L 153.092 397.653 L 154.832 397.653 L 154.832 398.145 L 153.092 398.145 L 153.092 400.125 L 152.522 400.125 L 152.522 395.877 " fill="#33CCCC"/>
<path class="atom-14" d="M 128.254 400.235 L 130.78 400.235 L 130.78 400.721 L 128.824 400.721 L 128.824 402.011 L 130.564 402.011 L 130.564 402.503 L 128.824 402.503 L 128.824 404.483 L 128.254 404.483 L 128.254 400.235 " fill="#33CCCC"/>
<path class="atom-16" d="M 114.488 397.68 Q 114.488 396.624, 114.98 396.072 Q 115.478 395.514, 116.42 395.514 Q 117.296 395.514, 117.764 396.132 L 117.368 396.456 Q 117.026 396.006, 116.42 396.006 Q 115.778 396.006, 115.436 396.438 Q 115.1 396.864, 115.1 397.68 Q 115.1 398.52, 115.448 398.952 Q 115.802 399.384, 116.486 399.384 Q 116.954 399.384, 117.5 399.102 L 117.668 399.552 Q 117.446 399.696, 117.11 399.78 Q 116.774 399.864, 116.402 399.864 Q 115.478 399.864, 114.98 399.3 Q 114.488 398.736, 114.488 397.68 " fill="#00CC00"/>
<path class="atom-16" d="M 118.28 395.256 L 118.832 395.256 L 118.832 399.81 L 118.28 399.81 L 118.28 395.256 " fill="#00CC00"/>
<path class="bond-0 atom-0 atom-1" d="M 272.597,322.953 L 276.659,327.28" style="fill:none;fill-rule:evenodd;stroke:#33CCCC;stroke-width:2.0px;stroke-linecap:butt;stroke-linejoin:miter;stroke-opacity:1"/>
<path class="bond-0 atom-0 atom-1" d="M 276.659,327.28 L 280.721,331.608" style="fill:none;fill-rule:evenodd;stroke:#000000;stroke-width:2.0px;stroke-linecap:butt;stroke-linejoin:miter;stroke-opacity:1"/>
<path class="bond-1 atom-1 atom-2" d="M 280.721,331.608 L 276.603,345.234" style="fill:none;fill-rule:evenodd;stroke:#000000;stroke-width:2.0px;stroke-linecap:butt;stroke-linejoin:miter;stroke-opacity:1"/>
<path class="bond-1 atom-1 atom-2" d="M 277.378,332.828 L 274.495,342.367" style="fill:none;fill-rule:evenodd;stroke:#000000;stroke-width:2.0px;stroke-linecap:butt;stroke-linejoin:miter;stroke-opacity:1"/>
<path class="bond-2 atom-2 atom-3" d="M 276.603,345.234 L 286.345,355.613" style="fill:none;fill-rule:evenodd;stroke:#000000;stroke-width:2.0px;stroke-linecap:butt;stroke-linejoin:miter;stroke-opacity:1"/>
<path class="bond-3 atom-3 atom-4" d="M 286.345,355.613 L 283.276,360.345" style="fill:none;fill-rule:evenodd;stroke:#000000;stroke-width:2.0px;stroke-linecap:butt;stroke-linejoin:miter;stroke-opacity:1"/>
<path class="bond-3 atom-3 atom-4" d="M 283.276,360.345 L 280.207,365.076" style="fill:none;fill-rule:evenodd;stroke:#0000FF;stroke-width:2.0px;stroke-linecap:butt;stroke-linejoin:miter;stroke-opacity:1"/>
<path class="bond-17 atom-3 atom-18" d="M 286.345,355.613 L 298.754,348.638" style="fill:none;fill-rule:evenodd;stroke:#000000;stroke-width:2.0px;stroke-linecap:butt;stroke-linejoin:miter;stroke-opacity:1"/>
<path class="bond-4 atom-4 atom-5" d="M 278.37,370.036 L 277.83,375.884" style="fill:none;fill-rule:evenodd;stroke:#0000FF;stroke-width:2.0px;stroke-linecap:butt;stroke-linejoin:miter;stroke-opacity:1"/>
<path class="bond-4 atom-4 atom-5" d="M 277.83,375.884 L 277.29,381.731" style="fill:none;fill-rule:evenodd;stroke:#000000;stroke-width:2.0px;stroke-linecap:butt;stroke-linejoin:miter;stroke-opacity:1"/>
<path class="bond-5 atom-5 atom-6" d="M 277.078,380.324 L 271.193,381.211" style="fill:none;fill-rule:evenodd;stroke:#000000;stroke-width:2.0px;stroke-linecap:butt;stroke-linejoin:miter;stroke-opacity:1"/>
<path class="bond-5 atom-5 atom-6" d="M 271.193,381.211 L 265.308,382.098" style="fill:none;fill-rule:evenodd;stroke:#FF0000;stroke-width:2.0px;stroke-linecap:butt;stroke-linejoin:miter;stroke-opacity:1"/>
<path class="bond-5 atom-5 atom-6" d="M 277.502,383.139 L 271.617,384.026" style="fill:none;fill-rule:evenodd;stroke:#000000;stroke-width:2.0px;stroke-linecap:butt;stroke-linejoin:miter;stroke-opacity:1"/>
<path class="bond-5 atom-5 atom-6" d="M 271.617,384.026 L 265.732,384.913" style="fill:none;fill-rule:evenodd;stroke:#FF0000;stroke-width:2.0px;stroke-linecap:butt;stroke-linejoin:miter;stroke-opacity:1"/>
<path class="bond-6 atom-5 atom-7" d="M 277.29,381.731 L 279.493,387.071" style="fill:none;fill-rule:evenodd;stroke:#000000;stroke-width:2.0px;stroke-linecap:butt;stroke-linejoin:miter;stroke-opacity:1"/>
<path class="bond-6 atom-5 atom-7" d="M 279.493,387.071 L 281.696,392.411" style="fill:none;fill-rule:evenodd;stroke:#0000FF;stroke-width:2.0px;stroke-linecap:butt;stroke-linejoin:miter;stroke-opacity:1"/>
<path class="bond-7 atom-7 atom-8" d="M 284.686,396.534 L 289.163,400.277" style="fill:none;fill-rule:evenodd;stroke:#0000FF;stroke-width:2.0px;stroke-linecap:butt;stroke-linejoin:miter;stroke-opacity:1"/>
<path class="bond-7 atom-7 atom-8" d="M 289.163,400.277 L 293.641,404.02" style="fill:none;fill-rule:evenodd;stroke:#000000;stroke-width:2.0px;stroke-linecap:butt;stroke-linejoin:miter;stroke-opacity:1"/>
<path class="bond-7 atom-7 atom-8" d="M 287.855,395.473 L 290.989,398.093" style="fill:none;fill-rule:evenodd;stroke:#0000FF;stroke-width:2.0px;stroke-linecap:butt;stroke-linejoin:miter;stroke-opacity:1"/>
<path class="bond-7 atom-7 atom-8" d="M 290.989,398.093 L 294.124,400.712" style="fill:none;fill-rule:evenodd;stroke:#000000;stroke-width:2.0px;stroke-linecap:butt;stroke-linejoin:miter;stroke-opacity:1"/>
<path class="bond-8 atom-8 atom-9" d="M 293.641,404.02 L 307.555,407.027" style="fill:none;fill-rule:evenodd;stroke:#000000;stroke-width:2.0px;stroke-linecap:butt;stroke-linejoin:miter;stroke-opacity:1"/>
<path class="bond-9 atom-9 atom-10" d="M 307.555,407.027 L 303.989,420.809" style="fill:none;fill-rule:evenodd;stroke:#000000;stroke-width:2.0px;stroke-linecap:butt;stroke-linejoin:miter;stroke-opacity:1"/>
<path class="bond-40 atom-14 atom-9" d="M 319.554,403.701 L 313.555,405.364" style="fill:none;fill-rule:evenodd;stroke:#CCCC00;stroke-width:2.0px;stroke-linecap:butt;stroke-linejoin:miter;stroke-opacity:1"/>
<path class="bond-40 atom-14 atom-9" d="M 313.555,405.364 L 307.555,407.027" style="fill:none;fill-rule:evenodd;stroke:#000000;stroke-width:2.0px;stroke-linecap:butt;stroke-linejoin:miter;stroke-opacity:1"/>
<path class="bond-10 atom-10 atom-11" d="M 303.989,420.809 L 314.141,430.787" style="fill:none;fill-rule:evenodd;stroke:#000000;stroke-width:2.0px;stroke-linecap:butt;stroke-linejoin:miter;stroke-opacity:1"/>
<path class="bond-15 atom-10 atom-16" d="M 303.989,420.809 L 300.781,406.94" style="fill:none;fill-rule:evenodd;stroke:#000000;stroke-width:2.0px;stroke-linecap:butt;stroke-linejoin:miter;stroke-opacity:1"/>
<path class="bond-11 atom-11 atom-12" d="M 314.141,430.787 L 327.859,426.984" style="fill:none;fill-rule:evenodd;stroke:#000000;stroke-width:2.0px;stroke-linecap:butt;stroke-linejoin:miter;stroke-opacity:1"/>
<path class="bond-12 atom-12 atom-13" d="M 327.859,426.984 L 331.425,413.203" style="fill:none;fill-rule:evenodd;stroke:#000000;stroke-width:2.0px;stroke-linecap:butt;stroke-linejoin:miter;stroke-opacity:1"/>
<path class="bond-13 atom-13 atom-14" d="M 331.425,413.203 L 327.207,409.058" style="fill:none;fill-rule:evenodd;stroke:#000000;stroke-width:2.0px;stroke-linecap:butt;stroke-linejoin:miter;stroke-opacity:1"/>
<path class="bond-13 atom-13 atom-14" d="M 327.207,409.058 L 322.99,404.913" style="fill:none;fill-rule:evenodd;stroke:#CCCC00;stroke-width:2.0px;stroke-linecap:butt;stroke-linejoin:miter;stroke-opacity:1"/>
<path class="bond-14 atom-14 atom-15" d="M 322.99,403.244 L 328.286,403.305" style="fill:none;fill-rule:evenodd;stroke:#CCCC00;stroke-width:2.0px;stroke-linecap:butt;stroke-linejoin:miter;stroke-opacity:1"/>
<path class="bond-14 atom-14 atom-15" d="M 328.286,403.305 L 333.583,403.366" style="fill:none;fill-rule:evenodd;stroke:#0000FF;stroke-width:2.0px;stroke-linecap:butt;stroke-linejoin:miter;stroke-opacity:1"/>
<path class="bond-42 atom-23 atom-14" d="M 331.652,393.483 L 327.321,397.547" style="fill:none;fill-rule:evenodd;stroke:#000000;stroke-width:2.0px;stroke-linecap:butt;stroke-linejoin:miter;stroke-opacity:1"/>
<path class="bond-42 atom-23 atom-14" d="M 327.321,397.547 L 322.99,401.612" style="fill:none;fill-rule:evenodd;stroke:#CCCC00;stroke-width:2.0px;stroke-linecap:butt;stroke-linejoin:miter;stroke-opacity:1"/>
<path class="bond-16 atom-16 atom-17" d="M 300.781,406.94 L 304.22,402.602" style="fill:none;fill-rule:evenodd;stroke:#000000;stroke-width:2.0px;stroke-linecap:butt;stroke-linejoin:miter;stroke-opacity:1"/>
<path class="bond-16 atom-16 atom-17" d="M 304.22,402.602 L 307.659,398.265" style="fill:none;fill-rule:evenodd;stroke:#0000FF;stroke-width:2.0px;stroke-linecap:butt;stroke-linejoin:miter;stroke-opacity:1"/>
<path class="bond-41 atom-22 atom-17" d="M 336.314,380.033 L 324.162,387.205" style="fill:none;fill-rule:evenodd;stroke:#000000;stroke-width:2.0px;stroke-linecap:butt;stroke-linejoin:miter;stroke-opacity:1"/>
<path class="bond-41 atom-22 atom-17" d="M 324.162,387.205 L 312.01,394.377" style="fill:none;fill-rule:evenodd;stroke:#0000FF;stroke-width:2.0px;stroke-linecap:butt;stroke-linejoin:miter;stroke-opacity:1"/>
<path class="bond-18 atom-18 atom-19" d="M 298.754,348.638 L 312.983,348.229" style="fill:none;fill-rule:evenodd;stroke:#000000;stroke-width:2.0px;stroke-linecap:butt;stroke-linejoin:miter;stroke-opacity:1"/>
<path class="bond-19 atom-19 atom-20" d="M 312.983,348.229 L 325.773,354.479" style="fill:none;fill-rule:evenodd;stroke:#000000;stroke-width:2.0px;stroke-linecap:butt;stroke-linejoin:miter;stroke-opacity:1"/>
<path class="bond-20 atom-20 atom-21" d="M 325.773,354.479 L 334.193,365.957" style="fill:none;fill-rule:evenodd;stroke:#000000;stroke-width:2.0px;stroke-linecap:butt;stroke-linejoin:miter;stroke-opacity:1"/>
<path class="bond-21 atom-21 atom-22" d="M 334.193,365.957 L 336.314,380.033" style="fill:none;fill-rule:evenodd;stroke:#000000;stroke-width:2.0px;stroke-linecap:butt;stroke-linejoin:miter;stroke-opacity:1"/>
<path class="bond-22 atom-22 atom-23" d="M 336.314,380.033 L 331.652,393.483" style="fill:none;fill-rule:evenodd;stroke:#000000;stroke-width:2.0px;stroke-linecap:butt;stroke-linejoin:miter;stroke-opacity:1"/>
<path class="bond-23 atom-23 atom-24" d="M 331.652,393.483 L 343.594,401.229" style="fill:none;fill-rule:evenodd;stroke:#000000;stroke-width:2.0px;stroke-linecap:butt;stroke-linejoin:miter;stroke-opacity:1"/>
<path class="bond-24 atom-24 atom-25" d="M 343.594,401.229 L 356.274,394.759" style="fill:none;fill-rule:evenodd;stroke:#000000;stroke-width:2.0px;stroke-linecap:butt;stroke-linejoin:miter;stroke-opacity:1"/>
<path class="bond-24 atom-24 atom-25" d="M 344.203,397.722 L 353.078,393.193" style="fill:none;fill-rule:evenodd;stroke:#000000;stroke-width:2.0px;stroke-linecap:butt;stroke-linejoin:miter;stroke-opacity:1"/>
<path class="bond-25 atom-25 atom-26" d="M 356.274,394.759 L 368.217,402.505" style="fill:none;fill-rule:evenodd;stroke:#000000;stroke-width:2.0px;stroke-linecap:butt;stroke-linejoin:miter;stroke-opacity:1"/>
<path class="bond-26 atom-26 atom-27" d="M 368.217,402.505 L 380.897,396.035" style="fill:none;fill-rule:evenodd;stroke:#000000;stroke-width:2.0px;stroke-linecap:butt;stroke-linejoin:miter;stroke-opacity:1"/>
<path class="bond-26 atom-26 atom-27" d="M 368.825,398.999 L 377.701,394.47" style="fill:none;fill-rule:evenodd;stroke:#000000;stroke-width:2.0px;stroke-linecap:butt;stroke-linejoin:miter;stroke-opacity:1"/>
<path class="bond-27 atom-27 atom-28" d="M 380.897,396.035 L 392.84,403.781" style="fill:none;fill-rule:evenodd;stroke:#000000;stroke-width:2.0px;stroke-linecap:butt;stroke-linejoin:miter;stroke-opacity:1"/>
<path class="bond-28 atom-28 atom-29" d="M 393.487,405.049 L 404.173,399.597" style="fill:none;fill-rule:evenodd;stroke:#000000;stroke-width:2.0px;stroke-linecap:butt;stroke-linejoin:miter;stroke-opacity:1"/>
<path class="bond-28 atom-28 atom-29" d="M 392.193,402.513 L 402.879,397.061" style="fill:none;fill-rule:evenodd;stroke:#000000;stroke-width:2.0px;stroke-linecap:butt;stroke-linejoin:miter;stroke-opacity:1"/>
<path class="bond-29 atom-29 atom-30" d="M 408.161,397.562 L 416.909,393.099" style="fill:none;fill-rule:evenodd;stroke:#000000;stroke-width:2.0px;stroke-linecap:butt;stroke-linejoin:miter;stroke-opacity:1"/>
<path class="bond-29 atom-29 atom-30" d="M 406.867,395.026 L 415.615,390.563" style="fill:none;fill-rule:evenodd;stroke:#000000;stroke-width:2.0px;stroke-linecap:butt;stroke-linejoin:miter;stroke-opacity:1"/>
<path class="bond-30 atom-30 atom-31" d="M 420.841,391.092 L 425.356,388.789" style="fill:none;fill-rule:evenodd;stroke:#000000;stroke-width:2.0px;stroke-linecap:butt;stroke-linejoin:miter;stroke-opacity:1"/>
<path class="bond-30 atom-30 atom-31" d="M 425.356,388.789 L 429.871,386.485" style="fill:none;fill-rule:evenodd;stroke:#FF7F00;stroke-width:2.0px;stroke-linecap:butt;stroke-linejoin:miter;stroke-opacity:1"/>
<path class="bond-30 atom-30 atom-31" d="M 419.547,388.556 L 424.062,386.253" style="fill:none;fill-rule:evenodd;stroke:#000000;stroke-width:2.0px;stroke-linecap:butt;stroke-linejoin:miter;stroke-opacity:1"/>
<path class="bond-30 atom-30 atom-31" d="M 424.062,386.253 L 428.577,383.949" style="fill:none;fill-rule:evenodd;stroke:#FF7F00;stroke-width:2.0px;stroke-linecap:butt;stroke-linejoin:miter;stroke-opacity:1"/>
<path class="bond-31 atom-31 atom-32" d="M 433.786,386.852 L 436.643,389.288" style="fill:none;fill-rule:evenodd;stroke:#FF7F00;stroke-width:2.0px;stroke-linecap:butt;stroke-linejoin:miter;stroke-opacity:1"/>
<path class="bond-31 atom-31 atom-32" d="M 436.643,389.288 L 439.499,391.725" style="fill:none;fill-rule:evenodd;stroke:#FF0000;stroke-width:2.0px;stroke-linecap:butt;stroke-linejoin:miter;stroke-opacity:1"/>
<path class="bond-34 atom-31 atom-35" d="M 430.683,381.892 L 430.219,376.037" style="fill:none;fill-rule:evenodd;stroke:#FF7F00;stroke-width:2.0px;stroke-linecap:butt;stroke-linejoin:miter;stroke-opacity:1"/>
<path class="bond-34 atom-31 atom-35" d="M 430.219,376.037 L 429.755,370.181" style="fill:none;fill-rule:evenodd;stroke:#000000;stroke-width:2.0px;stroke-linecap:butt;stroke-linejoin:miter;stroke-opacity:1"/>
<path class="bond-32 atom-32 atom-33" d="M 444.015,393.428 L 449.957,392.957" style="fill:none;fill-rule:evenodd;stroke:#FF0000;stroke-width:2.0px;stroke-linecap:butt;stroke-linejoin:miter;stroke-opacity:1"/>
<path class="bond-32 atom-32 atom-33" d="M 449.957,392.957 L 455.9,392.486" style="fill:none;fill-rule:evenodd;stroke:#000000;stroke-width:2.0px;stroke-linecap:butt;stroke-linejoin:miter;stroke-opacity:1"/>
<path class="bond-33 atom-33 atom-34" d="M 455.9,392.486 L 465.139,381.656" style="fill:none;fill-rule:evenodd;stroke:#000000;stroke-width:2.0px;stroke-linecap:butt;stroke-linejoin:miter;stroke-opacity:1"/>
<path class="bond-43 atom-38 atom-34" d="M 464.014,367.465 L 465.139,381.656" style="fill:none;fill-rule:evenodd;stroke:#000000;stroke-width:2.0px;stroke-linecap:butt;stroke-linejoin:miter;stroke-opacity:1"/>
<path class="bond-35 atom-35 atom-36" d="M 429.755,370.181 L 438.993,359.352" style="fill:none;fill-rule:evenodd;stroke:#000000;stroke-width:2.0px;stroke-linecap:butt;stroke-linejoin:miter;stroke-opacity:1"/>
<path class="bond-36 atom-36 atom-37" d="M 438.993,359.352 L 453.184,358.227" style="fill:none;fill-rule:evenodd;stroke:#000000;stroke-width:2.0px;stroke-linecap:butt;stroke-linejoin:miter;stroke-opacity:1"/>
<path class="bond-37 atom-37 atom-38" d="M 453.184,358.227 L 464.014,367.465" style="fill:none;fill-rule:evenodd;stroke:#000000;stroke-width:2.0px;stroke-linecap:butt;stroke-linejoin:miter;stroke-opacity:1"/>
<path class="bond-38 atom-38 atom-39" d="M 464.014,367.465 L 469.498,364.667" style="fill:none;fill-rule:evenodd;stroke:#000000;stroke-width:2.0px;stroke-linecap:butt;stroke-linejoin:miter;stroke-opacity:1"/>
<path class="bond-38 atom-38 atom-39" d="M 469.498,364.667 L 474.982,361.869" style="fill:none;fill-rule:evenodd;stroke:#FF7F00;stroke-width:2.0px;stroke-linecap:butt;stroke-linejoin:miter;stroke-opacity:1"/>
<path class="bond-38 atom-38 atom-39" d="M 464.365,364.09 L 468.204,362.131" style="fill:none;fill-rule:evenodd;stroke:#000000;stroke-width:2.0px;stroke-linecap:butt;stroke-linejoin:miter;stroke-opacity:1"/>
<path class="bond-38 atom-38 atom-39" d="M 468.204,362.131 L 472.042,360.173" style="fill:none;fill-rule:evenodd;stroke:#FF7F00;stroke-width:2.0px;stroke-linecap:butt;stroke-linejoin:miter;stroke-opacity:1"/>
<path class="bond-39 atom-39 atom-40" d="M 478.405,362.106 L 483.521,365.424" style="fill:none;fill-rule:evenodd;stroke:#FF7F00;stroke-width:2.0px;stroke-linecap:butt;stroke-linejoin:miter;stroke-opacity:1"/>
<path class="bond-39 atom-39 atom-40" d="M 483.521,365.424 L 488.636,368.742" style="fill:none;fill-rule:evenodd;stroke:#000000;stroke-width:2.0px;stroke-linecap:butt;stroke-linejoin:miter;stroke-opacity:1"/>
<path class="atom-0" d="M 269.715 319.104 L 272.241 319.104 L 272.241 319.59 L 270.285 319.59 L 270.285 320.88 L 272.025 320.88 L 272.025 321.372 L 270.285 321.372 L 270.285 323.352 L 269.715 323.352 L 269.715 319.104 " fill="#33CCCC"/>
<path class="atom-4" d="M 273.166 365.432 L 273.742 365.432 L 273.742 367.238 L 275.914 367.238 L 275.914 365.432 L 276.49 365.432 L 276.49 369.68 L 275.914 369.68 L 275.914 367.718 L 273.742 367.718 L 273.742 369.68 L 273.166 369.68 L 273.166 365.432 " fill="#0000FF"/>
<path class="atom-4" d="M 277.66 365.432 L 279.052 367.682 Q 279.19 367.904, 279.412 368.306 Q 279.634 368.708, 279.646 368.732 L 279.646 365.432 L 280.21 365.432 L 280.21 369.68 L 279.628 369.68 L 278.134 367.22 Q 277.96 366.932, 277.774 366.602 Q 277.594 366.272, 277.54 366.17 L 277.54 369.68 L 276.988 369.68 L 276.988 365.432 L 277.66 365.432 " fill="#0000FF"/>
<path class="atom-6" d="M 261.264 383.865 Q 261.264 382.845, 261.768 382.275 Q 262.272 381.705, 263.214 381.705 Q 264.156 381.705, 264.66 382.275 Q 265.164 382.845, 265.164 383.865 Q 265.164 384.897, 264.654 385.485 Q 264.144 386.067, 263.214 386.067 Q 262.278 386.067, 261.768 385.485 Q 261.264 384.903, 261.264 383.865 M 263.214 385.587 Q 263.862 385.587, 264.21 385.155 Q 264.564 384.717, 264.564 383.865 Q 264.564 383.031, 264.21 382.611 Q 263.862 382.185, 263.214 382.185 Q 262.566 382.185, 262.212 382.605 Q 261.864 383.025, 261.864 383.865 Q 261.864 384.723, 262.212 385.155 Q 262.566 385.587, 263.214 385.587 " fill="#FF0000"/>
<path class="atom-7" d="M 281.78 392.766 L 283.172 395.016 Q 283.31 395.238, 283.532 395.64 Q 283.754 396.042, 283.766 396.066 L 283.766 392.766 L 284.33 392.766 L 284.33 397.014 L 283.748 397.014 L 282.254 394.554 Q 282.08 394.266, 281.894 393.936 Q 281.714 393.606, 281.66 393.504 L 281.66 397.014 L 281.108 397.014 L 281.108 392.766 L 281.78 392.766 " fill="#0000FF"/>
<path class="atom-14" d="M 320.072 404.683 Q 320.12 404.701, 320.318 404.785 Q 320.516 404.869, 320.732 404.923 Q 320.954 404.971, 321.17 404.971 Q 321.572 404.971, 321.806 404.779 Q 322.04 404.581, 322.04 404.239 Q 322.04 404.005, 321.92 403.861 Q 321.806 403.717, 321.626 403.639 Q 321.446 403.561, 321.146 403.471 Q 320.768 403.357, 320.54 403.249 Q 320.318 403.141, 320.156 402.913 Q 320 402.685, 320 402.301 Q 320 401.767, 320.36 401.437 Q 320.726 401.107, 321.446 401.107 Q 321.938 401.107, 322.496 401.341 L 322.358 401.803 Q 321.848 401.593, 321.464 401.593 Q 321.05 401.593, 320.822 401.767 Q 320.594 401.935, 320.6 402.229 Q 320.6 402.457, 320.714 402.595 Q 320.834 402.733, 321.002 402.811 Q 321.176 402.889, 321.464 402.979 Q 321.848 403.099, 322.076 403.219 Q 322.304 403.339, 322.466 403.585 Q 322.634 403.825, 322.634 404.239 Q 322.634 404.827, 322.238 405.145 Q 321.848 405.457, 321.194 405.457 Q 320.816 405.457, 320.528 405.373 Q 320.246 405.295, 319.91 405.157 L 320.072 404.683 " fill="#CCCC00"/>
<path class="atom-15" d="M 334.567 401.265 L 335.959 403.515 Q 336.097 403.737, 336.319 404.139 Q 336.541 404.541, 336.553 404.565 L 336.553 401.265 L 337.117 401.265 L 337.117 405.513 L 336.535 405.513 L 335.041 403.053 Q 334.867 402.765, 334.681 402.435 Q 334.501 402.105, 334.447 402.003 L 334.447 405.513 L 333.895 405.513 L 333.895 401.265 L 334.567 401.265 " fill="#0000FF"/>
<path class="atom-15" d="M 337.627 401.265 L 338.203 401.265 L 338.203 403.071 L 340.375 403.071 L 340.375 401.265 L 340.951 401.265 L 340.951 405.513 L 340.375 405.513 L 340.375 403.551 L 338.203 403.551 L 338.203 405.513 L 337.627 405.513 L 337.627 401.265 " fill="#0000FF"/>
<path class="atom-15" d="M 341.157 405.364 Q 341.26 405.098, 341.506 404.952 Q 341.751 404.801, 342.092 404.801 Q 342.516 404.801, 342.753 405.031 Q 342.991 405.261, 342.991 405.668 Q 342.991 406.084, 342.682 406.472 Q 342.377 406.86, 341.743 407.32 L 343.038 407.32 L 343.038 407.637 L 341.149 407.637 L 341.149 407.371 Q 341.672 406.999, 341.981 406.722 Q 342.294 406.445, 342.444 406.195 Q 342.595 405.946, 342.595 405.688 Q 342.595 405.419, 342.46 405.268 Q 342.326 405.118, 342.092 405.118 Q 341.866 405.118, 341.716 405.209 Q 341.565 405.3, 341.458 405.502 L 341.157 405.364 " fill="#0000FF"/>
<path class="atom-17" d="M 304.192 393.661 L 304.768 393.661 L 304.768 395.467 L 306.94 395.467 L 306.94 393.661 L 307.516 393.661 L 307.516 397.909 L 306.94 397.909 L 306.94 395.947 L 304.768 395.947 L 304.768 397.909 L 304.192 397.909 L 304.192 393.661 " fill="#0000FF"/>
<path class="atom-17" d="M 308.686 393.661 L 310.078 395.911 Q 310.216 396.133, 310.438 396.535 Q 310.66 396.937, 310.672 396.961 L 310.672 393.661 L 311.236 393.661 L 311.236 397.909 L 310.654 397.909 L 309.16 395.449 Q 308.986 395.161, 308.8 394.831 Q 308.62 394.501, 308.566 394.399 L 308.566 397.909 L 308.014 397.909 L 308.014 393.661 L 308.686 393.661 " fill="#0000FF"/>
<path class="atom-29" d="M 403.882 397.33 Q 403.882 396.274, 404.374 395.722 Q 404.872 395.164, 405.814 395.164 Q 406.69 395.164, 407.158 395.782 L 406.762 396.106 Q 406.42 395.656, 405.814 395.656 Q 405.172 395.656, 404.83 396.088 Q 404.494 396.514, 404.494 397.33 Q 404.494 398.17, 404.842 398.602 Q 405.196 399.034, 405.88 399.034 Q 406.348 399.034, 406.894 398.752 L 407.062 399.202 Q 406.84 399.346, 406.504 399.43 Q 406.168 399.514, 405.796 399.514 Q 404.872 399.514, 404.374 398.95 Q 403.882 398.386, 403.882 397.33 " fill="#000000"/>
<path class="atom-30" d="M 416.562 390.86 Q 416.562 389.804, 417.054 389.252 Q 417.552 388.694, 418.494 388.694 Q 419.37 388.694, 419.838 389.312 L 419.442 389.636 Q 419.1 389.186, 418.494 389.186 Q 417.852 389.186, 417.51 389.618 Q 417.174 390.044, 417.174 390.86 Q 417.174 391.7, 417.522 392.132 Q 417.876 392.564, 418.56 392.564 Q 419.028 392.564, 419.574 392.282 L 419.742 392.732 Q 419.52 392.876, 419.184 392.96 Q 418.848 393.044, 418.476 393.044 Q 417.552 393.044, 417.054 392.48 Q 416.562 391.916, 416.562 390.86 " fill="#000000"/>
<path class="atom-31" d="M 430.778 382.248 Q 431.504 382.248, 431.87 382.578 Q 432.236 382.902, 432.236 383.496 Q 432.236 384.084, 431.858 384.42 Q 431.486 384.75, 430.778 384.75 L 430.1 384.75 L 430.1 386.496 L 429.524 386.496 L 429.524 382.248 L 430.778 382.248 M 430.778 384.27 Q 431.192 384.27, 431.414 384.072 Q 431.636 383.874, 431.636 383.496 Q 431.636 383.118, 431.414 382.926 Q 431.198 382.728, 430.778 382.728 L 430.1 382.728 L 430.1 384.27 L 430.778 384.27 " fill="#FF7F00"/>
<path class="atom-31" d="M 432.746 382.248 L 433.322 382.248 L 433.322 384.054 L 435.494 384.054 L 435.494 382.248 L 436.07 382.248 L 436.07 386.496 L 435.494 386.496 L 435.494 384.534 L 433.322 384.534 L 433.322 386.496 L 432.746 386.496 L 432.746 382.248 " fill="#FF7F00"/>
<path class="atom-32" d="M 439.759 393.623 Q 439.759 392.603, 440.263 392.033 Q 440.767 391.463, 441.709 391.463 Q 442.651 391.463, 443.155 392.033 Q 443.659 392.603, 443.659 393.623 Q 443.659 394.655, 443.149 395.243 Q 442.639 395.825, 441.709 395.825 Q 440.773 395.825, 440.263 395.243 Q 439.759 394.661, 439.759 393.623 M 441.709 395.345 Q 442.357 395.345, 442.705 394.913 Q 443.059 394.475, 443.059 393.623 Q 443.059 392.789, 442.705 392.369 Q 442.357 391.943, 441.709 391.943 Q 441.061 391.943, 440.707 392.363 Q 440.359 392.783, 440.359 393.623 Q 440.359 394.481, 440.707 394.913 Q 441.061 395.345, 441.709 395.345 " fill="#FF0000"/>
<path class="atom-39" d="M 476.591 358.872 Q 477.317 358.872, 477.683 359.202 Q 478.049 359.526, 478.049 360.12 Q 478.049 360.708, 477.671 361.044 Q 477.299 361.374, 476.591 361.374 L 475.913 361.374 L 475.913 363.12 L 475.337 363.12 L 475.337 358.872 L 476.591 358.872 M 476.591 360.894 Q 477.005 360.894, 477.227 360.696 Q 477.449 360.498, 477.449 360.12 Q 477.449 359.742, 477.227 359.55 Q 477.011 359.352, 476.591 359.352 L 475.913 359.352 L 475.913 360.894 L 476.591 360.894 " fill="#FF7F00"/>
<path class="bond-0 atom-0 atom-1" d="M 613.683,390.246 L 613.683,376.011" style="fill:none;fill-rule:evenodd;stroke:#000000;stroke-width:2.0px;stroke-linecap:butt;stroke-linejoin:miter;stroke-opacity:1"/>
<path class="bond-3 atom-2 atom-0" d="M 603.322,384.264 L 608.503,387.255" style="fill:none;fill-rule:evenodd;stroke:#0000FF;stroke-width:2.0px;stroke-linecap:butt;stroke-linejoin:miter;stroke-opacity:1"/>
<path class="bond-3 atom-2 atom-0" d="M 608.503,387.255 L 613.683,390.246" style="fill:none;fill-rule:evenodd;stroke:#000000;stroke-width:2.0px;stroke-linecap:butt;stroke-linejoin:miter;stroke-opacity:1"/>
<path class="bond-1 atom-1 atom-2" d="M 613.683,376.011 L 608.503,379.002" style="fill:none;fill-rule:evenodd;stroke:#000000;stroke-width:2.0px;stroke-linecap:butt;stroke-linejoin:miter;stroke-opacity:1"/>
<path class="bond-1 atom-1 atom-2" d="M 608.503,379.002 L 603.322,381.992" style="fill:none;fill-rule:evenodd;stroke:#0000FF;stroke-width:2.0px;stroke-linecap:butt;stroke-linejoin:miter;stroke-opacity:1"/>
<path class="bond-2 atom-2 atom-3" d="M 599.388,383.128 L 591.244,383.128" style="fill:none;fill-rule:evenodd;stroke:#0000FF;stroke-width:2.0px;stroke-linecap:butt;stroke-linejoin:miter;stroke-opacity:1"/>
<path class="atom-2" d="M 600.416 381.004 L 601.808 383.254 Q 601.946 383.476, 602.168 383.878 Q 602.39 384.28, 602.402 384.304 L 602.402 381.004 L 602.966 381.004 L 602.966 385.252 L 602.384 385.252 L 600.89 382.792 Q 600.716 382.504, 600.53 382.174 Q 600.35 381.844, 600.296 381.742 L 600.296 385.252 L 599.744 385.252 L 599.744 381.004 L 600.416 381.004 " fill="#0000FF"/>
<path class="atom-3" d="M 579.636 381.004 L 580.212 381.004 L 580.212 382.81 L 582.384 382.81 L 582.384 381.004 L 582.96 381.004 L 582.96 385.252 L 582.384 385.252 L 582.384 383.29 L 580.212 383.29 L 580.212 385.252 L 579.636 385.252 L 579.636 381.004 " fill="#0000FF"/>
<path class="atom-3" d="M 584.473 385.899 Q 584.746 385.978, 584.877 386.156 Q 585.011 386.331, 585.011 386.608 Q 585.011 386.845, 584.892 387.032 Q 584.774 387.214, 584.556 387.317 Q 584.338 387.416, 584.053 387.416 Q 583.752 387.416, 583.526 387.313 Q 583.304 387.206, 583.126 386.992 L 583.352 386.762 Q 583.526 386.952, 583.673 387.028 Q 583.819 387.099, 584.053 387.099 Q 584.306 387.099, 584.461 386.964 Q 584.615 386.826, 584.615 386.604 Q 584.615 386.319, 584.453 386.192 Q 584.294 386.061, 583.95 386.061 L 583.748 386.061 L 583.748 385.776 L 583.926 385.776 Q 584.231 385.772, 584.393 385.642 Q 584.556 385.507, 584.556 385.257 Q 584.556 385.075, 584.421 384.968 Q 584.287 384.858, 584.057 384.858 Q 583.823 384.858, 583.677 384.941 Q 583.534 385.024, 583.423 385.234 L 583.15 385.087 Q 583.249 384.854, 583.487 384.699 Q 583.724 384.541, 584.057 384.541 Q 584.469 384.541, 584.71 384.735 Q 584.952 384.929, 584.952 385.257 Q 584.952 385.483, 584.829 385.646 Q 584.706 385.808, 584.473 385.899 " fill="#0000FF"/>
<path class="atom-3" d="M 586.181 381.004 L 587.573 383.254 Q 587.711 383.476, 587.933 383.878 Q 588.155 384.28, 588.167 384.304 L 588.167 381.004 L 588.731 381.004 L 588.731 385.252 L 588.149 385.252 L 586.655 382.792 Q 586.481 382.504, 586.295 382.174 Q 586.115 381.844, 586.061 381.742 L 586.061 385.252 L 585.509 385.252 L 585.509 381.004 L 586.181 381.004 " fill="#0000FF"/>
<path class="atom-3" d="M 589.088 381.77 L 589.836 381.77 L 589.836 380.982 L 590.169 380.982 L 590.169 381.77 L 590.937 381.77 L 590.937 382.055 L 590.169 382.055 L 590.169 382.847 L 589.836 382.847 L 589.836 382.055 L 589.088 382.055 L 589.088 381.77 " fill="#0000FF"/>
<path class="bond-0 atom-0 atom-1" d="M 40.3224,630.442 L 46.4105,629.746" style="fill:none;fill-rule:evenodd;stroke:#0000FF;stroke-width:2.0px;stroke-linecap:butt;stroke-linejoin:miter;stroke-opacity:1"/>
<path class="bond-0 atom-0 atom-1" d="M 46.4105,629.746 L 52.4986,629.05" style="fill:none;fill-rule:evenodd;stroke:#000000;stroke-width:2.0px;stroke-linecap:butt;stroke-linejoin:miter;stroke-opacity:1"/>
<path class="bond-1 atom-1 atom-2" d="M 52.4986,629.05 L 55.8753,633.61" style="fill:none;fill-rule:evenodd;stroke:#000000;stroke-width:2.0px;stroke-linecap:butt;stroke-linejoin:miter;stroke-opacity:1"/>
<path class="bond-1 atom-1 atom-2" d="M 55.8753,633.61 L 59.252,638.17" style="fill:none;fill-rule:evenodd;stroke:#CCCC00;stroke-width:2.0px;stroke-linecap:butt;stroke-linejoin:miter;stroke-opacity:1"/>
<path class="bond-2 atom-2 atom-3" d="M 62.6878,640.294 L 68.9003,639.584" style="fill:none;fill-rule:evenodd;stroke:#CCCC00;stroke-width:2.0px;stroke-linecap:butt;stroke-linejoin:miter;stroke-opacity:1"/>
<path class="bond-2 atom-2 atom-3" d="M 68.9003,639.584 L 75.1129,638.874" style="fill:none;fill-rule:evenodd;stroke:#000000;stroke-width:2.0px;stroke-linecap:butt;stroke-linejoin:miter;stroke-opacity:1"/>
<path class="bond-3 atom-3 atom-4" d="M 75.1129,638.874 L 80.7845,625.817" style="fill:none;fill-rule:evenodd;stroke:#000000;stroke-width:2.0px;stroke-linecap:butt;stroke-linejoin:miter;stroke-opacity:1"/>
<path class="bond-3 atom-3 atom-4" d="M 78.5749,638.049 L 82.5451,628.91" style="fill:none;fill-rule:evenodd;stroke:#000000;stroke-width:2.0px;stroke-linecap:butt;stroke-linejoin:miter;stroke-opacity:1"/>
<path class="bond-17 atom-8 atom-3" d="M 83.5842,650.314 L 75.1129,638.874" style="fill:none;fill-rule:evenodd;stroke:#000000;stroke-width:2.0px;stroke-linecap:butt;stroke-linejoin:miter;stroke-opacity:1"/>
<path class="bond-4 atom-4 atom-5" d="M 80.7845,625.817 L 94.9275,624.201" style="fill:none;fill-rule:evenodd;stroke:#000000;stroke-width:2.0px;stroke-linecap:butt;stroke-linejoin:miter;stroke-opacity:1"/>
<path class="bond-5 atom-5 atom-6" d="M 94.9275,624.201 L 103.399,635.641" style="fill:none;fill-rule:evenodd;stroke:#000000;stroke-width:2.0px;stroke-linecap:butt;stroke-linejoin:miter;stroke-opacity:1"/>
<path class="bond-5 atom-5 atom-6" d="M 93.9102,627.611 L 99.8402,635.619" style="fill:none;fill-rule:evenodd;stroke:#000000;stroke-width:2.0px;stroke-linecap:butt;stroke-linejoin:miter;stroke-opacity:1"/>
<path class="bond-18 atom-10 atom-5" d="M 109.062,628.646 L 94.9275,624.201" style="fill:none;fill-rule:evenodd;stroke:#000000;stroke-width:2.0px;stroke-linecap:butt;stroke-linejoin:miter;stroke-opacity:1"/>
<path class="bond-6 atom-6 atom-7" d="M 103.399,635.641 L 97.7272,648.697" style="fill:none;fill-rule:evenodd;stroke:#000000;stroke-width:2.0px;stroke-linecap:butt;stroke-linejoin:miter;stroke-opacity:1"/>
<path class="bond-7 atom-7 atom-8" d="M 97.7272,648.697 L 83.5842,650.314" style="fill:none;fill-rule:evenodd;stroke:#000000;stroke-width:2.0px;stroke-linecap:butt;stroke-linejoin:miter;stroke-opacity:1"/>
<path class="bond-7 atom-7 atom-8" d="M 95.2825,646.111 L 85.3824,647.242" style="fill:none;fill-rule:evenodd;stroke:#000000;stroke-width:2.0px;stroke-linecap:butt;stroke-linejoin:miter;stroke-opacity:1"/>
<path class="bond-8 atom-7 atom-9" d="M 97.7272,648.697 L 103.219,646.192" style="fill:none;fill-rule:evenodd;stroke:#000000;stroke-width:2.0px;stroke-linecap:butt;stroke-linejoin:miter;stroke-opacity:1"/>
<path class="bond-8 atom-7 atom-9" d="M 103.219,646.192 L 108.712,643.687" style="fill:none;fill-rule:evenodd;stroke:#0000FF;stroke-width:2.0px;stroke-linecap:butt;stroke-linejoin:miter;stroke-opacity:1"/>
<path class="bond-9 atom-9 atom-10" d="M 110.395,640.309 L 109.729,634.478" style="fill:none;fill-rule:evenodd;stroke:#0000FF;stroke-width:2.0px;stroke-linecap:butt;stroke-linejoin:miter;stroke-opacity:1"/>
<path class="bond-9 atom-9 atom-10" d="M 109.729,634.478 L 109.062,628.646" style="fill:none;fill-rule:evenodd;stroke:#000000;stroke-width:2.0px;stroke-linecap:butt;stroke-linejoin:miter;stroke-opacity:1"/>
<path class="bond-9 atom-9 atom-10" d="M 107.367,638.883 L 106.9,634.801" style="fill:none;fill-rule:evenodd;stroke:#0000FF;stroke-width:2.0px;stroke-linecap:butt;stroke-linejoin:miter;stroke-opacity:1"/>
<path class="bond-9 atom-9 atom-10" d="M 106.9,634.801 L 106.433,630.719" style="fill:none;fill-rule:evenodd;stroke:#000000;stroke-width:2.0px;stroke-linecap:butt;stroke-linejoin:miter;stroke-opacity:1"/>
<path class="bond-10 atom-10 atom-11" d="M 109.062,628.646 L 113.325,624.738" style="fill:none;fill-rule:evenodd;stroke:#000000;stroke-width:2.0px;stroke-linecap:butt;stroke-linejoin:miter;stroke-opacity:1"/>
<path class="bond-10 atom-10 atom-11" d="M 113.325,624.738 L 117.587,620.829" style="fill:none;fill-rule:evenodd;stroke:#0000FF;stroke-width:2.0px;stroke-linecap:butt;stroke-linejoin:miter;stroke-opacity:1"/>
<path class="bond-11 atom-11 atom-12" d="M 120.393,616.237 L 119.404,611.782" style="fill:none;fill-rule:evenodd;stroke:#0000FF;stroke-width:2.0px;stroke-linecap:butt;stroke-linejoin:miter;stroke-opacity:1"/>
<path class="bond-11 atom-11 atom-12" d="M 119.404,611.782 L 118.414,607.327" style="fill:none;fill-rule:evenodd;stroke:#FF0000;stroke-width:2.0px;stroke-linecap:butt;stroke-linejoin:miter;stroke-opacity:1"/>
<path class="bond-11 atom-11 atom-12" d="M 117.614,616.854 L 116.624,612.399" style="fill:none;fill-rule:evenodd;stroke:#0000FF;stroke-width:2.0px;stroke-linecap:butt;stroke-linejoin:miter;stroke-opacity:1"/>
<path class="bond-11 atom-11 atom-12" d="M 116.624,612.399 L 115.635,607.944" style="fill:none;fill-rule:evenodd;stroke:#FF0000;stroke-width:2.0px;stroke-linecap:butt;stroke-linejoin:miter;stroke-opacity:1"/>
<path class="bond-12 atom-11 atom-13" d="M 121.521,619.645 L 127.326,621.473" style="fill:none;fill-rule:evenodd;stroke:#0000FF;stroke-width:2.0px;stroke-linecap:butt;stroke-linejoin:miter;stroke-opacity:1"/>
<path class="bond-12 atom-11 atom-13" d="M 127.326,621.473 L 133.132,623.301" style="fill:none;fill-rule:evenodd;stroke:#000000;stroke-width:2.0px;stroke-linecap:butt;stroke-linejoin:miter;stroke-opacity:1"/>
<path class="bond-13 atom-13 atom-14" d="M 133.132,623.301 L 147.028,620.216" style="fill:none;fill-rule:evenodd;stroke:#000000;stroke-width:2.0px;stroke-linecap:butt;stroke-linejoin:miter;stroke-opacity:1"/>
<path class="bond-19 atom-15 atom-13" d="M 142.752,633.793 L 133.132,623.301" style="fill:none;fill-rule:evenodd;stroke:#000000;stroke-width:2.0px;stroke-linecap:butt;stroke-linejoin:miter;stroke-opacity:1"/>
<path class="bond-14 atom-14 atom-15" d="M 147.028,620.216 L 142.752,633.793" style="fill:none;fill-rule:evenodd;stroke:#000000;stroke-width:2.0px;stroke-linecap:butt;stroke-linejoin:miter;stroke-opacity:1"/>
<path class="bond-15 atom-15 atom-16" d="M 142.752,633.793 L 144.02,639.502" style="fill:none;fill-rule:evenodd;stroke:#000000;stroke-width:2.0px;stroke-linecap:butt;stroke-linejoin:miter;stroke-opacity:1"/>
<path class="bond-15 atom-15 atom-16" d="M 144.02,639.502 L 145.288,645.21" style="fill:none;fill-rule:evenodd;stroke:#0000FF;stroke-width:2.0px;stroke-linecap:butt;stroke-linejoin:miter;stroke-opacity:1"/>
<path class="bond-16 atom-16 atom-17" d="M 147.805,648.309 L 153.316,650.045" style="fill:none;fill-rule:evenodd;stroke:#0000FF;stroke-width:2.0px;stroke-linecap:butt;stroke-linejoin:miter;stroke-opacity:1"/>
<path class="bond-16 atom-16 atom-17" d="M 153.316,650.045 L 158.827,651.78" style="fill:none;fill-rule:evenodd;stroke:#A01EEF;stroke-width:2.0px;stroke-linecap:butt;stroke-linejoin:miter;stroke-opacity:1"/>
<path class="atom-0" d="M 30.8356 628.542 L 31.4116 628.542 L 31.4116 630.348 L 33.5836 630.348 L 33.5836 628.542 L 34.1596 628.542 L 34.1596 632.79 L 33.5836 632.79 L 33.5836 630.828 L 31.4116 630.828 L 31.4116 632.79 L 30.8356 632.79 L 30.8356 628.542 " fill="#0000FF"/>
<path class="atom-0" d="M 34.3656 632.641 Q 34.4685 632.376, 34.714 632.23 Q 34.9596 632.079, 35.3001 632.079 Q 35.7238 632.079, 35.9614 632.309 Q 36.199 632.538, 36.199 632.946 Q 36.199 633.362, 35.8902 633.75 Q 35.5852 634.138, 34.9516 634.598 L 36.2466 634.598 L 36.2466 634.914 L 34.3576 634.914 L 34.3576 634.649 Q 34.8804 634.277, 35.1892 634 Q 35.5021 633.722, 35.6526 633.473 Q 35.803 633.224, 35.803 632.966 Q 35.803 632.697, 35.6684 632.546 Q 35.5338 632.396, 35.3001 632.396 Q 35.0744 632.396, 34.9239 632.487 Q 34.7734 632.578, 34.6665 632.78 L 34.3656 632.641 " fill="#0000FF"/>
<path class="atom-0" d="M 37.4166 628.542 L 38.8086 630.792 Q 38.9466 631.014, 39.1686 631.416 Q 39.3906 631.818, 39.4026 631.842 L 39.4026 628.542 L 39.9666 628.542 L 39.9666 632.79 L 39.3846 632.79 L 37.8906 630.33 Q 37.7166 630.042, 37.5306 629.712 Q 37.3506 629.382, 37.2966 629.28 L 37.2966 632.79 L 36.7446 632.79 L 36.7446 628.542 L 37.4166 628.542 " fill="#0000FF"/>
<path class="atom-2" d="M 59.7699 641.948 Q 59.8179 641.966, 60.0159 642.05 Q 60.2139 642.134, 60.4299 642.188 Q 60.6519 642.236, 60.8679 642.236 Q 61.2699 642.236, 61.5039 642.044 Q 61.7379 641.846, 61.7379 641.504 Q 61.7379 641.27, 61.6179 641.126 Q 61.5039 640.982, 61.3239 640.904 Q 61.1439 640.826, 60.8439 640.736 Q 60.4659 640.622, 60.2379 640.514 Q 60.0159 640.406, 59.8539 640.178 Q 59.6979 639.95, 59.6979 639.566 Q 59.6979 639.032, 60.0579 638.702 Q 60.4239 638.372, 61.1439 638.372 Q 61.6359 638.372, 62.1939 638.606 L 62.0559 639.068 Q 61.5459 638.858, 61.1619 638.858 Q 60.7479 638.858, 60.5199 639.032 Q 60.2919 639.2, 60.2979 639.494 Q 60.2979 639.722, 60.4119 639.86 Q 60.5319 639.998, 60.6999 640.076 Q 60.8739 640.154, 61.1619 640.244 Q 61.5459 640.364, 61.7739 640.484 Q 62.0019 640.604, 62.1639 640.85 Q 62.3319 641.09, 62.3319 641.504 Q 62.3319 642.092, 61.9359 642.41 Q 61.5459 642.722, 60.8919 642.722 Q 60.5139 642.722, 60.2259 642.638 Q 59.9439 642.56, 59.6079 642.422 L 59.7699 641.948 " fill="#CCCC00"/>
<path class="atom-9" d="M 109.74 640.665 L 111.132 642.915 Q 111.27 643.137, 111.492 643.539 Q 111.714 643.941, 111.726 643.965 L 111.726 640.665 L 112.29 640.665 L 112.29 644.913 L 111.708 644.913 L 110.214 642.453 Q 110.04 642.165, 109.854 641.835 Q 109.674 641.505, 109.62 641.403 L 109.62 644.913 L 109.068 644.913 L 109.068 640.665 L 109.74 640.665 " fill="#0000FF"/>
<path class="atom-11" d="M 118.615 616.902 L 120.007 619.152 Q 120.145 619.374, 120.367 619.776 Q 120.589 620.178, 120.601 620.202 L 120.601 616.902 L 121.165 616.902 L 121.165 621.15 L 120.583 621.15 L 119.089 618.69 Q 118.915 618.402, 118.729 618.072 Q 118.549 617.742, 118.495 617.64 L 118.495 621.15 L 117.943 621.15 L 117.943 616.902 L 118.615 616.902 " fill="#0000FF"/>
<path class="atom-11" d="M 121.521 617.667 L 122.27 617.667 L 122.27 616.879 L 122.602 616.879 L 122.602 617.667 L 123.371 617.667 L 123.371 617.952 L 122.602 617.952 L 122.602 618.744 L 122.27 618.744 L 122.27 617.952 L 121.521 617.952 L 121.521 617.667 " fill="#0000FF"/>
<path class="atom-12" d="M 114.518 605.141 Q 114.518 604.121, 115.022 603.551 Q 115.526 602.981, 116.468 602.981 Q 117.41 602.981, 117.914 603.551 Q 118.418 604.121, 118.418 605.141 Q 118.418 606.173, 117.908 606.761 Q 117.398 607.343, 116.468 607.343 Q 115.532 607.343, 115.022 606.761 Q 114.518 606.179, 114.518 605.141 M 116.468 606.863 Q 117.116 606.863, 117.464 606.431 Q 117.818 605.993, 117.818 605.141 Q 117.818 604.307, 117.464 603.887 Q 117.116 603.461, 116.468 603.461 Q 115.82 603.461, 115.466 603.881 Q 115.118 604.301, 115.118 605.141 Q 115.118 605.999, 115.466 606.431 Q 115.82 606.863, 116.468 606.863 " fill="#FF0000"/>
<path class="atom-16" d="M 140.405 645.566 L 140.981 645.566 L 140.981 647.372 L 143.153 647.372 L 143.153 645.566 L 143.729 645.566 L 143.729 649.814 L 143.153 649.814 L 143.153 647.852 L 140.981 647.852 L 140.981 649.814 L 140.405 649.814 L 140.405 645.566 " fill="#0000FF"/>
<path class="atom-16" d="M 144.899 645.566 L 146.291 647.816 Q 146.429 648.038, 146.651 648.44 Q 146.873 648.842, 146.885 648.866 L 146.885 645.566 L 147.449 645.566 L 147.449 649.814 L 146.867 649.814 L 145.373 647.354 Q 145.199 647.066, 145.013 646.736 Q 144.833 646.406, 144.779 646.304 L 144.779 649.814 L 144.227 649.814 L 144.227 645.566 L 144.899 645.566 " fill="#0000FF"/>
<path class="atom-17" d="M 159.131 649.833 L 159.701 649.833 L 159.701 654.099 L 159.131 654.099 L 159.131 649.833 " fill="#A01EEF"/>
<path class="bond-0 atom-0 atom-1" d="M 296.973,636.801 L 295.232,631.25" style="fill:none;fill-rule:evenodd;stroke:#0000FF;stroke-width:2.0px;stroke-linecap:butt;stroke-linejoin:miter;stroke-opacity:1"/>
<path class="bond-0 atom-0 atom-1" d="M 295.232,631.25 L 293.491,625.698" style="fill:none;fill-rule:evenodd;stroke:#000000;stroke-width:2.0px;stroke-linecap:butt;stroke-linejoin:miter;stroke-opacity:1"/>
<path class="bond-0 atom-0 atom-1" d="M 294.257,637.653 L 292.516,632.102" style="fill:none;fill-rule:evenodd;stroke:#0000FF;stroke-width:2.0px;stroke-linecap:butt;stroke-linejoin:miter;stroke-opacity:1"/>
<path class="bond-0 atom-0 atom-1" d="M 292.516,632.102 L 290.775,626.55" style="fill:none;fill-rule:evenodd;stroke:#000000;stroke-width:2.0px;stroke-linecap:butt;stroke-linejoin:miter;stroke-opacity:1"/>
<path class="bond-1 atom-1 atom-2" d="M 292.133,626.124 L 278.24,623.022" style="fill:none;fill-rule:evenodd;stroke:#000000;stroke-width:2.0px;stroke-linecap:butt;stroke-linejoin:miter;stroke-opacity:1"/>
<path class="bond-25 atom-6 atom-1" d="M 301.766,615.644 L 292.133,626.124" style="fill:none;fill-rule:evenodd;stroke:#000000;stroke-width:2.0px;stroke-linecap:butt;stroke-linejoin:miter;stroke-opacity:1"/>
<path class="bond-2 atom-2 atom-3" d="M 278.24,623.022 L 273.98,609.439" style="fill:none;fill-rule:evenodd;stroke:#000000;stroke-width:2.0px;stroke-linecap:butt;stroke-linejoin:miter;stroke-opacity:1"/>
<path class="bond-2 atom-2 atom-3" d="M 280.318,620.133 L 277.336,610.625" style="fill:none;fill-rule:evenodd;stroke:#000000;stroke-width:2.0px;stroke-linecap:butt;stroke-linejoin:miter;stroke-opacity:1"/>
<path class="bond-3 atom-3 atom-4" d="M 273.98,609.439 L 283.613,598.959" style="fill:none;fill-rule:evenodd;stroke:#000000;stroke-width:2.0px;stroke-linecap:butt;stroke-linejoin:miter;stroke-opacity:1"/>
<path class="bond-4 atom-4 atom-5" d="M 283.613,598.959 L 297.506,602.061" style="fill:none;fill-rule:evenodd;stroke:#000000;stroke-width:2.0px;stroke-linecap:butt;stroke-linejoin:miter;stroke-opacity:1"/>
<path class="bond-4 atom-4 atom-5" d="M 285.077,602.203 L 294.802,604.374" style="fill:none;fill-rule:evenodd;stroke:#000000;stroke-width:2.0px;stroke-linecap:butt;stroke-linejoin:miter;stroke-opacity:1"/>
<path class="bond-5 atom-5 atom-6" d="M 297.506,602.061 L 301.766,615.644" style="fill:none;fill-rule:evenodd;stroke:#000000;stroke-width:2.0px;stroke-linecap:butt;stroke-linejoin:miter;stroke-opacity:1"/>
<path class="bond-6 atom-6 atom-7" d="M 301.766,615.644 L 315.659,618.746" style="fill:none;fill-rule:evenodd;stroke:#000000;stroke-width:2.0px;stroke-linecap:butt;stroke-linejoin:miter;stroke-opacity:1"/>
<path class="bond-6 atom-6 atom-7" d="M 304.47,613.33 L 314.195,615.502" style="fill:none;fill-rule:evenodd;stroke:#000000;stroke-width:2.0px;stroke-linecap:butt;stroke-linejoin:miter;stroke-opacity:1"/>
<path class="bond-7 atom-7 atom-8" d="M 315.659,618.746 L 317.4,624.297" style="fill:none;fill-rule:evenodd;stroke:#000000;stroke-width:2.0px;stroke-linecap:butt;stroke-linejoin:miter;stroke-opacity:1"/>
<path class="bond-7 atom-7 atom-8" d="M 317.4,624.297 L 319.141,629.849" style="fill:none;fill-rule:evenodd;stroke:#0000FF;stroke-width:2.0px;stroke-linecap:butt;stroke-linejoin:miter;stroke-opacity:1"/>
<path class="bond-8 atom-8 atom-9" d="M 321.886,632.768 L 327.849,634.099" style="fill:none;fill-rule:evenodd;stroke:#0000FF;stroke-width:2.0px;stroke-linecap:butt;stroke-linejoin:miter;stroke-opacity:1"/>
<path class="bond-8 atom-8 atom-9" d="M 327.849,634.099 L 333.812,635.431" style="fill:none;fill-rule:evenodd;stroke:#000000;stroke-width:2.0px;stroke-linecap:butt;stroke-linejoin:miter;stroke-opacity:1"/>
<path class="bond-9 atom-9 atom-10" d="M 333.812,635.431 L 338.072,649.013" style="fill:none;fill-rule:evenodd;stroke:#000000;stroke-width:2.0px;stroke-linecap:butt;stroke-linejoin:miter;stroke-opacity:1"/>
<path class="bond-10 atom-10 atom-11" d="M 338.072,649.013 L 328.439,659.494" style="fill:none;fill-rule:evenodd;stroke:#000000;stroke-width:2.0px;stroke-linecap:butt;stroke-linejoin:miter;stroke-opacity:1"/>
<path class="bond-10 atom-10 atom-11" d="M 338.723,652.512 L 331.98,659.848" style="fill:none;fill-rule:evenodd;stroke:#000000;stroke-width:2.0px;stroke-linecap:butt;stroke-linejoin:miter;stroke-opacity:1"/>
<path class="bond-26 atom-15 atom-10" d="M 351.965,652.116 L 338.072,649.013" style="fill:none;fill-rule:evenodd;stroke:#000000;stroke-width:2.0px;stroke-linecap:butt;stroke-linejoin:miter;stroke-opacity:1"/>
<path class="bond-11 atom-11 atom-12" d="M 328.439,659.494 L 332.699,673.077" style="fill:none;fill-rule:evenodd;stroke:#000000;stroke-width:2.0px;stroke-linecap:butt;stroke-linejoin:miter;stroke-opacity:1"/>
<path class="bond-12 atom-12 atom-13" d="M 332.699,673.077 L 346.592,676.179" style="fill:none;fill-rule:evenodd;stroke:#000000;stroke-width:2.0px;stroke-linecap:butt;stroke-linejoin:miter;stroke-opacity:1"/>
<path class="bond-12 atom-12 atom-13" d="M 335.403,670.763 L 345.128,672.935" style="fill:none;fill-rule:evenodd;stroke:#000000;stroke-width:2.0px;stroke-linecap:butt;stroke-linejoin:miter;stroke-opacity:1"/>
<path class="bond-13 atom-13 atom-14" d="M 346.592,676.179 L 356.225,665.698" style="fill:none;fill-rule:evenodd;stroke:#000000;stroke-width:2.0px;stroke-linecap:butt;stroke-linejoin:miter;stroke-opacity:1"/>
<path class="bond-14 atom-14 atom-15" d="M 356.225,665.698 L 351.965,652.116" style="fill:none;fill-rule:evenodd;stroke:#000000;stroke-width:2.0px;stroke-linecap:butt;stroke-linejoin:miter;stroke-opacity:1"/>
<path class="bond-14 atom-14 atom-15" d="M 352.869,664.513 L 349.887,655.005" style="fill:none;fill-rule:evenodd;stroke:#000000;stroke-width:2.0px;stroke-linecap:butt;stroke-linejoin:miter;stroke-opacity:1"/>
<path class="bond-15 atom-15 atom-16" d="M 351.965,652.116 L 355.798,647.945" style="fill:none;fill-rule:evenodd;stroke:#000000;stroke-width:2.0px;stroke-linecap:butt;stroke-linejoin:miter;stroke-opacity:1"/>
<path class="bond-15 atom-15 atom-16" d="M 355.798,647.945 L 359.631,643.775" style="fill:none;fill-rule:evenodd;stroke:#0000FF;stroke-width:2.0px;stroke-linecap:butt;stroke-linejoin:miter;stroke-opacity:1"/>
<path class="bond-16 atom-16 atom-17" d="M 363.565,642.074 L 368.4,643.154" style="fill:none;fill-rule:evenodd;stroke:#0000FF;stroke-width:2.0px;stroke-linecap:butt;stroke-linejoin:miter;stroke-opacity:1"/>
<path class="bond-16 atom-16 atom-17" d="M 368.4,643.154 L 373.235,644.234" style="fill:none;fill-rule:evenodd;stroke:#FF0000;stroke-width:2.0px;stroke-linecap:butt;stroke-linejoin:miter;stroke-opacity:1"/>
<path class="bond-17 atom-17 atom-18" d="M 377.792,642.233 L 382.903,636.673" style="fill:none;fill-rule:evenodd;stroke:#FF0000;stroke-width:2.0px;stroke-linecap:butt;stroke-linejoin:miter;stroke-opacity:1"/>
<path class="bond-18 atom-18 atom-19" d="M 387.429,634.771 L 392.269,635.852" style="fill:none;fill-rule:evenodd;stroke:#FF0000;stroke-width:2.0px;stroke-linecap:butt;stroke-linejoin:miter;stroke-opacity:1"/>
<path class="bond-18 atom-18 atom-19" d="M 392.269,635.852 L 397.109,636.933" style="fill:none;fill-rule:evenodd;stroke:#0000FF;stroke-width:2.0px;stroke-linecap:butt;stroke-linejoin:miter;stroke-opacity:1"/>
<path class="bond-19 atom-19 atom-20" d="M 400.983,635.219 L 404.816,631.049" style="fill:none;fill-rule:evenodd;stroke:#0000FF;stroke-width:2.0px;stroke-linecap:butt;stroke-linejoin:miter;stroke-opacity:1"/>
<path class="bond-19 atom-19 atom-20" d="M 404.816,631.049 L 408.65,626.878" style="fill:none;fill-rule:evenodd;stroke:#000000;stroke-width:2.0px;stroke-linecap:butt;stroke-linejoin:miter;stroke-opacity:1"/>
<path class="bond-20 atom-20 atom-21" d="M 408.65,626.878 L 422.542,629.98" style="fill:none;fill-rule:evenodd;stroke:#000000;stroke-width:2.0px;stroke-linecap:butt;stroke-linejoin:miter;stroke-opacity:1"/>
<path class="bond-21 atom-21 atom-22" d="M 422.542,629.98 L 432.176,619.5" style="fill:none;fill-rule:evenodd;stroke:#000000;stroke-width:2.0px;stroke-linecap:butt;stroke-linejoin:miter;stroke-opacity:1"/>
<path class="bond-22 atom-22 atom-23" d="M 432.176,619.5 L 437.969,620.794" style="fill:none;fill-rule:evenodd;stroke:#000000;stroke-width:2.0px;stroke-linecap:butt;stroke-linejoin:miter;stroke-opacity:1"/>
<path class="bond-22 atom-22 atom-23" d="M 437.969,620.794 L 443.763,622.087" style="fill:none;fill-rule:evenodd;stroke:#FF0000;stroke-width:2.0px;stroke-linecap:butt;stroke-linejoin:miter;stroke-opacity:1"/>
<path class="bond-23 atom-23 atom-24" d="M 448.37,620.098 L 452.036,616.11" style="fill:none;fill-rule:evenodd;stroke:#FF0000;stroke-width:2.0px;stroke-linecap:butt;stroke-linejoin:miter;stroke-opacity:1"/>
<path class="bond-23 atom-23 atom-24" d="M 452.036,616.11 L 455.701,612.122" style="fill:none;fill-rule:evenodd;stroke:#000000;stroke-width:2.0px;stroke-linecap:butt;stroke-linejoin:miter;stroke-opacity:1"/>
<path class="bond-24 atom-24 atom-25" d="M 455.701,612.122 L 469.594,615.224" style="fill:none;fill-rule:evenodd;stroke:#000000;stroke-width:2.0px;stroke-linecap:butt;stroke-linejoin:miter;stroke-opacity:1"/>
<path class="atom-0" d="M 295.454 637.583 L 296.846 639.833 Q 296.984 640.055, 297.206 640.457 Q 297.428 640.859, 297.44 640.883 L 297.44 637.583 L 298.004 637.583 L 298.004 641.831 L 297.422 641.831 L 295.928 639.371 Q 295.754 639.083, 295.568 638.753 Q 295.388 638.423, 295.334 638.321 L 295.334 641.831 L 294.782 641.831 L 294.782 637.583 L 295.454 637.583 " fill="#0000FF"/>
<path class="atom-0" d="M 298.514 637.583 L 299.09 637.583 L 299.09 639.389 L 301.262 639.389 L 301.262 637.583 L 301.838 637.583 L 301.838 641.831 L 301.262 641.831 L 301.262 639.869 L 299.09 639.869 L 299.09 641.831 L 298.514 641.831 L 298.514 637.583 " fill="#0000FF"/>
<path class="atom-0" d="M 302.044 641.682 Q 302.147 641.416, 302.392 641.27 Q 302.638 641.119, 302.978 641.119 Q 303.402 641.119, 303.64 641.349 Q 303.877 641.579, 303.877 641.987 Q 303.877 642.402, 303.568 642.791 Q 303.264 643.179, 302.63 643.638 L 303.925 643.638 L 303.925 643.955 L 302.036 643.955 L 302.036 643.689 Q 302.559 643.317, 302.868 643.04 Q 303.18 642.763, 303.331 642.513 Q 303.481 642.264, 303.481 642.006 Q 303.481 641.737, 303.347 641.587 Q 303.212 641.436, 302.978 641.436 Q 302.753 641.436, 302.602 641.527 Q 302.452 641.618, 302.345 641.82 L 302.044 641.682 " fill="#0000FF"/>
<path class="atom-0" d="M 302.194 638.349 L 302.943 638.349 L 302.943 637.56 L 303.275 637.56 L 303.275 638.349 L 304.044 638.349 L 304.044 638.634 L 303.275 638.634 L 303.275 639.426 L 302.943 639.426 L 302.943 638.634 L 302.194 638.634 L 302.194 638.349 " fill="#0000FF"/>
<path class="atom-8" d="M 314.486 630.204 L 315.062 630.204 L 315.062 632.01 L 317.234 632.01 L 317.234 630.204 L 317.81 630.204 L 317.81 634.452 L 317.234 634.452 L 317.234 632.49 L 315.062 632.49 L 315.062 634.452 L 314.486 634.452 L 314.486 630.204 " fill="#0000FF"/>
<path class="atom-8" d="M 318.98 630.204 L 320.372 632.454 Q 320.51 632.676, 320.732 633.078 Q 320.954 633.48, 320.966 633.504 L 320.966 630.204 L 321.53 630.204 L 321.53 634.452 L 320.948 634.452 L 319.454 631.992 Q 319.28 631.704, 319.094 631.374 Q 318.914 631.044, 318.86 630.942 L 318.86 634.452 L 318.308 634.452 L 318.308 630.204 L 318.98 630.204 " fill="#0000FF"/>
<path class="atom-16" d="M 360.659 639.511 L 362.051 641.761 Q 362.189 641.983, 362.411 642.385 Q 362.633 642.787, 362.645 642.811 L 362.645 639.511 L 363.209 639.511 L 363.209 643.759 L 362.627 643.759 L 361.133 641.299 Q 360.959 641.011, 360.773 640.681 Q 360.593 640.351, 360.539 640.249 L 360.539 643.759 L 359.987 643.759 L 359.987 639.511 L 360.659 639.511 " fill="#0000FF"/>
<path class="atom-16" d="M 359.936 634.838 L 360.512 634.838 L 360.512 636.644 L 362.684 636.644 L 362.684 634.838 L 363.26 634.838 L 363.26 639.086 L 362.684 639.086 L 362.684 637.124 L 360.512 637.124 L 360.512 639.086 L 359.936 639.086 L 359.936 634.838 " fill="#0000FF"/>
<path class="atom-17" d="M 373.541 644.749 Q 373.541 643.729, 374.045 643.159 Q 374.549 642.589, 375.491 642.589 Q 376.433 642.589, 376.937 643.159 Q 377.441 643.729, 377.441 644.749 Q 377.441 645.781, 376.931 646.369 Q 376.421 646.951, 375.491 646.951 Q 374.555 646.951, 374.045 646.369 Q 373.541 645.787, 373.541 644.749 M 375.491 646.471 Q 376.139 646.471, 376.487 646.039 Q 376.841 645.601, 376.841 644.749 Q 376.841 643.915, 376.487 643.495 Q 376.139 643.069, 375.491 643.069 Q 374.843 643.069, 374.489 643.489 Q 374.141 643.909, 374.141 644.749 Q 374.141 645.607, 374.489 646.039 Q 374.843 646.471, 375.491 646.471 " fill="#FF0000"/>
<path class="atom-18" d="M 383.174 634.269 Q 383.174 633.249, 383.678 632.679 Q 384.182 632.109, 385.124 632.109 Q 386.066 632.109, 386.57 632.679 Q 387.074 633.249, 387.074 634.269 Q 387.074 635.301, 386.564 635.889 Q 386.054 636.471, 385.124 636.471 Q 384.188 636.471, 383.678 635.889 Q 383.174 635.307, 383.174 634.269 M 385.124 635.991 Q 385.772 635.991, 386.12 635.559 Q 386.474 635.121, 386.474 634.269 Q 386.474 633.435, 386.12 633.015 Q 385.772 632.589, 385.124 632.589 Q 384.476 632.589, 384.122 633.009 Q 383.774 633.429, 383.774 634.269 Q 383.774 635.127, 384.122 635.559 Q 384.476 635.991, 385.124 635.991 " fill="#FF0000"/>
<path class="atom-19" d="M 398.078 635.235 L 399.47 637.485 Q 399.608 637.707, 399.83 638.109 Q 400.052 638.511, 400.064 638.535 L 400.064 635.235 L 400.628 635.235 L 400.628 639.483 L 400.046 639.483 L 398.552 637.023 Q 398.378 636.735, 398.192 636.405 Q 398.012 636.075, 397.958 635.973 L 397.958 639.483 L 397.406 639.483 L 397.406 635.235 L 398.078 635.235 " fill="#0000FF"/>
<path class="atom-19" d="M 397.355 639.908 L 397.931 639.908 L 397.931 641.714 L 400.103 641.714 L 400.103 639.908 L 400.679 639.908 L 400.679 644.156 L 400.103 644.156 L 400.103 642.194 L 397.931 642.194 L 397.931 644.156 L 397.355 644.156 L 397.355 639.908 " fill="#0000FF"/>
<path class="atom-23" d="M 444.118 622.614 Q 444.118 621.594, 444.622 621.024 Q 445.126 620.454, 446.068 620.454 Q 447.01 620.454, 447.514 621.024 Q 448.018 621.594, 448.018 622.614 Q 448.018 623.646, 447.508 624.234 Q 446.998 624.816, 446.068 624.816 Q 445.132 624.816, 444.622 624.234 Q 444.118 623.652, 444.118 622.614 M 446.068 624.336 Q 446.716 624.336, 447.064 623.904 Q 447.418 623.466, 447.418 622.614 Q 447.418 621.78, 447.064 621.36 Q 446.716 620.934, 446.068 620.934 Q 445.42 620.934, 445.066 621.354 Q 444.718 621.774, 444.718 622.614 Q 444.718 623.472, 445.066 623.904 Q 445.42 624.336, 446.068 624.336 " fill="#FF0000"/>
<path class="bond-0 atom-0 atom-1" d="M 598.555,633.128 L 603.841,633.128" style="fill:none;fill-rule:evenodd;stroke:#FF7F00;stroke-width:2.0px;stroke-linecap:butt;stroke-linejoin:miter;stroke-opacity:1"/>
<path class="bond-0 atom-0 atom-1" d="M 603.841,633.128 L 609.127,633.128" style="fill:none;fill-rule:evenodd;stroke:#00CC00;stroke-width:2.0px;stroke-linecap:butt;stroke-linejoin:miter;stroke-opacity:1"/>
<path class="atom-0" d="M 589.566 631.004 L 590.142 631.004 L 590.142 632.81 L 592.314 632.81 L 592.314 631.004 L 592.89 631.004 L 592.89 635.252 L 592.314 635.252 L 592.314 633.29 L 590.142 633.29 L 590.142 635.252 L 589.566 635.252 L 589.566 631.004 " fill="#FF7F00"/>
<path class="atom-0" d="M 593.096 635.103 Q 593.199 634.838, 593.444 634.691 Q 593.69 634.541, 594.03 634.541 Q 594.454 634.541, 594.692 634.77 Q 594.929 635, 594.929 635.408 Q 594.929 635.824, 594.621 636.212 Q 594.316 636.6, 593.682 637.059 L 594.977 637.059 L 594.977 637.376 L 593.088 637.376 L 593.088 637.111 Q 593.611 636.739, 593.92 636.461 Q 594.232 636.184, 594.383 635.935 Q 594.533 635.685, 594.533 635.428 Q 594.533 635.158, 594.399 635.008 Q 594.264 634.858, 594.03 634.858 Q 593.805 634.858, 593.654 634.949 Q 593.504 635.04, 593.397 635.242 L 593.096 635.103 " fill="#FF7F00"/>
<path class="atom-0" d="M 596.741 631.004 Q 597.467 631.004, 597.833 631.334 Q 598.199 631.658, 598.199 632.252 Q 598.199 632.84, 597.821 633.176 Q 597.449 633.506, 596.741 633.506 L 596.063 633.506 L 596.063 635.252 L 595.487 635.252 L 595.487 631.004 L 596.741 631.004 M 596.741 633.026 Q 597.155 633.026, 597.377 632.828 Q 597.599 632.63, 597.599 632.252 Q 597.599 631.874, 597.377 631.682 Q 597.161 631.484, 596.741 631.484 L 596.063 631.484 L 596.063 633.026 L 596.741 633.026 " fill="#FF7F00"/>
<path class="atom-1" d="M 609.44 633.275 Q 609.44 632.219, 609.932 631.667 Q 610.43 631.109, 611.372 631.109 Q 612.248 631.109, 612.716 631.727 L 612.32 632.051 Q 611.978 631.601, 611.372 631.601 Q 610.73 631.601, 610.388 632.033 Q 610.052 632.459, 610.052 633.275 Q 610.052 634.115, 610.4 634.547 Q 610.754 634.979, 611.438 634.979 Q 611.906 634.979, 612.452 634.697 L 612.62 635.147 Q 612.398 635.291, 612.062 635.375 Q 611.726 635.459, 611.354 635.459 Q 610.43 635.459, 609.932 634.895 Q 609.44 634.331, 609.44 633.275 " fill="#00CC00"/>
<path class="atom-1" d="M 613.232 630.851 L 613.784 630.851 L 613.784 635.405 L 613.232 635.405 L 613.232 630.851 " fill="#00CC00"/>
</svg>